# Made in Blockbench 5.1.4
mtllib bs_coin.mtl
o bs_coin

v 0.5 0.4375 0.5
v 0.5 0.5625 0.5
v 0.125 0.4375 0.536934
v 0.125 0.5625 0.536934
v 0.139411 0.4375 0.609383
v 0.139411 0.5625 0.609383
v 0.167679 0.4375 0.677629
v 0.167679 0.5625 0.677629
v 0.208718 0.4375 0.739049
v 0.208718 0.5625 0.739049
v 0.260951 0.4375 0.791282
v 0.260951 0.5625 0.791282
v 0.322371 0.4375 0.832321
v 0.322371 0.5625 0.832321
v 0.390617 0.4375 0.860589
v 0.390617 0.5625 0.860589
v 0.463066 0.4375 0.875
v 0.463066 0.5625 0.875
v 0.536934 0.4375 0.875
v 0.536934 0.5625 0.875
v 0.609383 0.4375 0.860589
v 0.609383 0.5625 0.860589
v 0.677629 0.4375 0.832321
v 0.677629 0.5625 0.832321
v 0.739048 0.4375 0.791282
v 0.739048 0.5625 0.791282
v 0.791282 0.4375 0.739049
v 0.791282 0.5625 0.739049
v 0.832321 0.4375 0.677629
v 0.832321 0.5625 0.677629
v 0.860589 0.4375 0.609383
v 0.860589 0.5625 0.609383
v 0.875 0.4375 0.536934
v 0.875 0.5625 0.536934
v 0.875 0.4375 0.463066
v 0.875 0.5625 0.463066
v 0.860589 0.4375 0.390617
v 0.860589 0.5625 0.390617
v 0.832321 0.4375 0.322371
v 0.832321 0.5625 0.322371
v 0.791282 0.4375 0.260952
v 0.791282 0.5625 0.260952
v 0.739048 0.4375 0.208718
v 0.739048 0.5625 0.208718
v 0.677629 0.4375 0.167679
v 0.677629 0.5625 0.167679
v 0.609383 0.4375 0.139411
v 0.609383 0.5625 0.139411
v 0.536934 0.4375 0.125
v 0.536934 0.5625 0.125
v 0.463066 0.4375 0.125
v 0.463066 0.5625 0.125
v 0.390617 0.4375 0.139411
v 0.390617 0.5625 0.139411
v 0.322371 0.4375 0.167679
v 0.322371 0.5625 0.167679
v 0.260951 0.4375 0.208718
v 0.260951 0.5625 0.208718
v 0.208718 0.4375 0.260952
v 0.208718 0.5625 0.260952
v 0.167679 0.4375 0.322371
v 0.167679 0.5625 0.322371
v 0.139411 0.4375 0.390617
v 0.139411 0.5625 0.390617
v 0.125 0.4375 0.463066
v 0.125 0.5625 0.463066
vt 0.0670026198 0.640625
vt 0.0615234375 0.6131352026
vt 0.2041015625 0.5991210938
vt 0.400390625 0.5668945312
vt 0.4287109375 0.5668945312
vt 0.4287109375 0.6142578125
vt 0.400390625 0.6142578125
vt 0.6337890625 0.6277836401
vt 0.6283098802 0.6552734375
vt 0.4912109375 0.6137695312
vt 0.5254046402 0.5419921875
vt 0.5146484375 0.5159157548
vt 0.6518554688 0.4741210938
vt 0.4306640625 0.5668945312
vt 0.458984375 0.5668945312
vt 0.458984375 0.6142578125
vt 0.4306640625 0.6142578125
vt 0.791015625 0.5159157548
vt 0.7802594223 0.5419921875
vt 0.6538085938 0.4741210938
vt 0.4677658397 0.4721679688
vt 0.4521484375 0.4488330726
vt 0.5786132812 0.3813476562
vt 0.9658203125 0.3813476562
vt 0.994140625 0.3813476562
vt 0.994140625 0.4291992188
vt 0.9658203125 0.4291992188
vt 0.70703125 0.4488330726
vt 0.6914138478 0.4721679688
vt 0.5805664062 0.3813476562
vt 0.5594267007 0.3793945312
vt 0.5395507812 0.3595186118
vt 0.650390625 0.2685546875
vt 0.9658203125 0.4311523438
vt 0.994140625 0.4311523438
vt 0.994140625 0.4790039062
vt 0.9658203125 0.4790039062
vt 0.7631835938 0.3595186118
vt 0.7433076743 0.3793945312
vt 0.65234375 0.2685546875
vt 0.5628856774 0.2666015625
vt 0.5395507812 0.2509841603
vt 0.6303710938 0.1401367188
vt 0.9321289062 0.4741210938
vt 0.9604492188 0.4741210938
vt 0.9604492188 0.5219726562
vt 0.9321289062 0.5219726562
vt 0.7231445312 0.2509841603
vt 0.6998096351 0.2666015625
vt 0.6323242188 0.1401367188
vt 0.4958029952 0.1381835938
vt 0.4697265625 0.1274273911
vt 0.5375976562 0.0009765625
vt 0.279296875 0.4794921875
vt 0.3076171875 0.4794921875
vt 0.3076171875 0.52734375
vt 0.279296875 0.52734375
vt 0.607421875 0.1274273911
vt 0.5813454423 0.1381835938
vt 0.5395507812 0.0009765625
vt 0.0284663599 0.1435546875
vt 0.0009765625 0.1380755052
vt 0.0424804688 0.0009765625
vt 0.4609375 0.5668945312
vt 0.4892578125 0.5668945312
vt 0.4892578125 0.6142578125
vt 0.4609375 0.6142578125
vt 0.0859375 0.1380755052
vt 0.0584477026 0.1435546875
vt 0.0444335938 0.0009765625
vt 0.1162109375 0.1435546875
vt 0.087890625 0.1435546875
vt 0.1020507812 0.0009765625
vt 0.3095703125 0.4794921875
vt 0.337890625 0.4794921875
vt 0.337890625 0.52734375
vt 0.3095703125 0.52734375
vt 0.146484375 0.1435546875
vt 0.1181640625 0.1435546875
vt 0.1323242188 0.0009765625
vt 0.1899414062 0.1380755052
vt 0.1624516089 0.1435546875
vt 0.1484375 0.0009765625
vt 0.9321289062 0.5737304688
vt 0.9604492188 0.5737304688
vt 0.9604492188 0.62109375
vt 0.9321289062 0.62109375
vt 0.2193843286 0.1435546875
vt 0.1918945312 0.1380755052
vt 0.2333984375 0.0009765625
vt 0.6772460938 0.1274273911
vt 0.6511696611 0.1381835938
vt 0.609375 0.0009765625
vt 0.33984375 0.4794921875
vt 0.3681640625 0.4794921875
vt 0.3681640625 0.52734375
vt 0.33984375 0.52734375
vt 0.7052756514 0.1381835938
vt 0.6791992188 0.1274273911
vt 0.7470703125 0.0009765625
vt 0.8159179688 0.2509841603
vt 0.7925833549 0.2666015625
vt 0.7250976562 0.1401367188
vt 0.9624023438 0.4809570312
vt 0.9907226562 0.4809570312
vt 0.9907226562 0.5288085938
vt 0.9624023438 0.5288085938
vt 0.8412057076 0.2666015625
vt 0.8178710938 0.2509841603
vt 0.9086914062 0.1401367188
vt 0.8759765625 0.3595186118
vt 0.8561002626 0.3793945312
vt 0.7651367188 0.2685546875
vt 0.9321289062 0.5239257812
vt 0.9604492188 0.5239257812
vt 0.9604492188 0.5717773438
vt 0.9321289062 0.5717773438
vt 0.8978059874 0.3793945312
vt 0.8779296875 0.3595186118
vt 0.9887695312 0.2685546875
vt 0.8354492188 0.4488330726
vt 0.8198318165 0.4721679688
vt 0.708984375 0.3813476562
vt 0.279296875 0.529296875
vt 0.3076171875 0.529296875
vt 0.3076171875 0.5771484375
vt 0.279296875 0.5771484375
vt 0.853019746 0.4721679688
vt 0.8374023438 0.4488330726
vt 0.9638671875 0.3813476562
vt 0.9301757812 0.5159157548
vt 0.9194195786 0.5419921875
vt 0.79296875 0.4741210938
vt 0.3095703125 0.529296875
vt 0.337890625 0.529296875
vt 0.337890625 0.5771484375
vt 0.3095703125 0.5771484375
vt 0.0117327652 0.5473632812
vt 0.0009765625 0.5212868486
vt 0.1381835938 0.4794921875
vt 0.7783203125 0.6277836401
vt 0.7728411302 0.6552734375
vt 0.6357421875 0.6137695312
vt 0.2734375 0.5791015625
vt 0.3017578125 0.5791015625
vt 0.3017578125 0.6264648438
vt 0.2734375 0.6264648438
vt 0.7857526198 0.6552734375
vt 0.7802734375 0.6277836401
vt 0.9228515625 0.6137695312
vt 0.7822265625 0.6572265625
vt 0.7822265625 0.685546875
vt 0.6396484375 0.6713867188
vt 0.33984375 0.529296875
vt 0.3681640625 0.529296875
vt 0.3681640625 0.5771484375
vt 0.33984375 0.5771484375
vt 0.7841796875 0.685546875
vt 0.7841796875 0.6572265625
vt 0.9267578125 0.6713867188
vt 0.3431536302 0.6284179688
vt 0.3486328125 0.6559077661
vt 0.2060546875 0.669921875
vt 0.3037109375 0.5791015625
vt 0.33203125 0.5791015625
vt 0.33203125 0.6264648438
vt 0.3037109375 0.6264648438
vt 0.0615234375 0.6700679224
vt 0.0670026198 0.642578125
vt 0.2041015625 0.6840820312
vt 0.2665875473 0.4794921875
vt 0.27734375 0.5055686202
vt 0.1401367188 0.5473632812
vt 0.9624023438 0.5307617188
vt 0.9907226562 0.5307617188
vt 0.9907226562 0.5786132812
vt 0.9624023438 0.5786132812
vt 0.5146484375 0.5700217452
vt 0.5254046402 0.5439453125
vt 0.6518554688 0.6118164062
vt 0.111824004 0.38671875
vt 0.1274414062 0.4100533639
vt 0.0009765625 0.4775390625
vt 0.0009765625 0.5493164062
vt 0.029296875 0.5493164062
vt 0.029296875 0.5971679688
vt 0.0009765625 0.5971679688
vt 0.1293945312 0.4100533639
vt 0.1450119335 0.38671875
vt 0.255859375 0.4775390625
vt 0.0919401063 0.2739257812
vt 0.1118164062 0.2938020812
vt 0.0009765625 0.384765625
vt 0.03125 0.5493164062
vt 0.0595703125 0.5493164062
vt 0.0595703125 0.5971679688
vt 0.03125 0.5971679688
vt 0.1137695312 0.2938020812
vt 0.1336458312 0.2739257812
vt 0.224609375 0.384765625
vt 0.0684622611 0.1455078125
vt 0.091796875 0.1611252147
vt 0.0009765625 0.2719726562
vt 0.0615234375 0.5493164062
vt 0.08984375 0.5493164062
vt 0.08984375 0.5971679688
vt 0.0615234375 0.5971679688
vt 0.09375 0.1611252147
vt 0.1170846139 0.1455078125
vt 0.1845703125 0.2719726562
vt 0.7908180986 0.0009765625
vt 0.8168945312 0.0117327652
vt 0.7490234375 0.1381835938
vt 0.333984375 0.5791015625
vt 0.3623046875 0.5791015625
vt 0.3623046875 0.6264648438
vt 0.333984375 0.6264648438
vt 0.8188476562 0.0117327652
vt 0.8449240889 0.0009765625
vt 0.88671875 0.1381835938
vt 0.2493656714 0.0009765625
vt 0.2768554688 0.0064557448
vt 0.2353515625 0.1435546875
vt 0.9624023438 0.5805664062
vt 0.9907226562 0.5805664062
vt 0.9907226562 0.6279296875
vt 0.9624023438 0.6279296875
vt 0.2788085938 0.0064557448
vt 0.3062983911 0.0009765625
vt 0.3203125 0.1435546875
vt 0.322265625 0.0009765625
vt 0.3505859375 0.0009765625
vt 0.3364257812 0.1435546875
vt 0.091796875 0.5493164062
vt 0.1201171875 0.5493164062
vt 0.1201171875 0.5971679688
vt 0.091796875 0.5971679688
vt 0.3525390625 0.0009765625
vt 0.380859375 0.0009765625
vt 0.3666992188 0.1435546875
vt 0.3828125 0.0064557448
vt 0.4103022974 0.0009765625
vt 0.4243164062 0.1435546875
vt 0.0009765625 0.5991210938
vt 0.029296875 0.5991210938
vt 0.029296875 0.646484375
vt 0.0009765625 0.646484375
vt 0.4402836401 0.0009765625
vt 0.4677734375 0.0064557448
vt 0.4262695312 0.1435546875
vt 0.888671875 0.0117327652
vt 0.9147483077 0.0009765625
vt 0.9565429688 0.1381835938
vt 0.1220703125 0.5493164062
vt 0.150390625 0.5493164062
vt 0.150390625 0.5971679688
vt 0.1220703125 0.5971679688
vt 0.5115212236 0.1401367188
vt 0.5375976562 0.1508929214
vt 0.4697265625 0.27734375
vt 0.1865234375 0.1611252147
vt 0.2098583337 0.1455078125
vt 0.27734375 0.2719726562
vt 0.15234375 0.5493164062
vt 0.1806640625 0.5493164062
vt 0.1806640625 0.5971679688
vt 0.15234375 0.5971679688
vt 0.3467822913 0.1455078125
vt 0.3701171875 0.1611252147
vt 0.279296875 0.2719726562
vt 0.2265625 0.2938020812
vt 0.2464384194 0.2739257812
vt 0.3374023438 0.384765625
vt 0.1826171875 0.5493164062
vt 0.2109375 0.5493164062
vt 0.2109375 0.5971679688
vt 0.1826171875 0.5971679688
vt 0.4303193931 0.2739257812
vt 0.4501953125 0.2938020812
vt 0.3393554688 0.384765625
vt 0.2578125 0.4100533639
vt 0.2734299022 0.38671875
vt 0.3842773438 0.4775390625
vt 0.212890625 0.5493164062
vt 0.2412109375 0.5493164062
vt 0.2412109375 0.5971679688
vt 0.212890625 0.5971679688
vt 0.4970779103 0.4741210938
vt 0.5126953125 0.4974557076
vt 0.3862304688 0.5649414062
vt 0.6538085938 0.5700217452
vt 0.6645647964 0.5439453125
vt 0.791015625 0.6118164062
vt 0.2431640625 0.5493164062
vt 0.271484375 0.5493164062
vt 0.271484375 0.5971679688
vt 0.2431640625 0.5971679688
vt 0.9194195786 0.5439453125
vt 0.9301757812 0.5700217452
vt 0.79296875 0.6118164062
vt 0.3505859375 0.6847163599
vt 0.3560651198 0.6572265625
vt 0.4931640625 0.6987304688
vt 0.03125 0.5991210938
vt 0.0595703125 0.5991210938
vt 0.0595703125 0.646484375
vt 0.03125 0.646484375
vt 0.6322161302 0.6572265625
vt 0.6376953125 0.6847163599
vt 0.4951171875 0.6987304688
vt 0.2060546875 0.7001953125
vt 0.2060546875 0.671875
vt 0.3486328125 0.6860351562
vt 0.3701171875 0.5668945312
vt 0.3984375 0.5668945312
vt 0.3984375 0.6147460938
vt 0.3701171875 0.6147460938
vt 0.1435546875 0.6860351562
vt 0.1435546875 0.7143554688
vt 0.0009765625 0.7001953125
vn 0 -1 0
vn -0.9807845095 0 0.1950941978
vn 0 1 0
vn 0 -1 0
vn -0.9238814342 0 0.3826788412
vn 0 1 0
vn 0 -1 0
vn -0.8314718907 0 0.5555668232
vn 0 1 0
vn 0 -1 0
vn -0.7071067812 0 0.7071067812
vn 0 1 0
vn 0 -1 0
vn -0.5555668232 0 0.8314718907
vn 0 1 0
vn 0 -1 0
vn -0.3826788412 0 0.9238814342
vn 0 1 0
vn 0 -1 0
vn -0.1950941978 0 0.9807845095
vn 0 1 0
vn 0 -1 0
vn 0 0 1
vn 0 1 0
vn 0 -1 0
vn 0.1950941978 0 0.9807845095
vn 0 1 0
vn 0 -1 0
vn 0.3826818326 0 0.9238801952
vn 0 1 0
vn 0 -1 0
vn 0.5555668232 0 0.8314718907
vn 0 1 0
vn 0 -1 0
vn 0.7071025507 0 0.7071110116
vn 0 1 0
vn 0 -1 0
vn 0.8314718907 0 0.5555668232
vn 0 1 0
vn 0 -1 0
vn 0.9238814342 0 0.3826788412
vn 0 1 0
vn 0 -1 0
vn 0.9807845095 0 0.1950941978
vn 0 1 0
vn 0 -1 0
vn 1 0 0
vn 0 1 0
vn 0 -1 0
vn 0.9807845095 0 -0.1950941978
vn 0 1 0
vn 0 -1 0
vn 0.9238801952 0 -0.3826818326
vn 0 1 0
vn 0 -1 0
vn 0.8314718907 0 -0.5555668232
vn 0 1 0
vn 0 -1 0
vn 0.7071067812 0 -0.7071067812
vn 0 1 0
vn 0 -1 0
vn 0.5555668232 0 -0.8314718907
vn 0 1 0
vn 0 -1 0
vn 0.3826818326 0 -0.9238801952
vn 0 1 0
vn 0 -1 0
vn 0.1950941978 0 -0.9807845095
vn 0 1 0
vn 0 -1 0
vn 0 0 -1
vn 0 1 0
vn 0 -1 0
vn -0.1950941978 0 -0.9807845095
vn 0 1 0
vn 0 -1 0
vn -0.3826788412 0 -0.9238814342
vn 0 1 0
vn 0 -1 0
vn -0.5555668232 0 -0.8314718907
vn 0 1 0
vn 0 -1 0
vn -0.7071110116 0 -0.7071025507
vn 0 1 0
vn 0 -1 0
vn -0.8314718907 0 -0.5555668232
vn 0 1 0
vn 0 -1 0
vn -0.9238801952 0 -0.3826818326
vn 0 1 0
vn 0 -1 0
vn -0.9807845095 0 -0.1950941978
vn 0 1 0
vn 0 -1 0
vn -1 0 0
vn 0 1 0
o bs_coin
usemtl m_bs_coin
f 5/1/1 3/2/1 1/3/1
f 3/4/2 5/5/2 6/6/2 4/7/2
f 4/8/3 6/9/3 2/10/3
f 7/11/4 5/12/4 1/13/4
f 5/14/5 7/15/5 8/16/5 6/17/5
f 6/18/6 8/19/6 2/20/6
f 9/21/7 7/22/7 1/23/7
f 7/24/8 9/25/8 10/26/8 8/27/8
f 8/28/9 10/29/9 2/30/9
f 11/31/10 9/32/10 1/33/10
f 9/34/11 11/35/11 12/36/11 10/37/11
f 10/38/12 12/39/12 2/40/12
f 13/41/13 11/42/13 1/43/13
f 11/44/14 13/45/14 14/46/14 12/47/14
f 12/48/15 14/49/15 2/50/15
f 15/51/16 13/52/16 1/53/16
f 13/54/17 15/55/17 16/56/17 14/57/17
f 14/58/18 16/59/18 2/60/18
f 17/61/19 15/62/19 1/63/19
f 15/64/20 17/65/20 18/66/20 16/67/20
f 16/68/21 18/69/21 2/70/21
f 19/71/22 17/72/22 1/73/22
f 17/74/23 19/75/23 20/76/23 18/77/23
f 18/78/24 20/79/24 2/80/24
f 21/81/25 19/82/25 1/83/25
f 19/84/26 21/85/26 22/86/26 20/87/26
f 20/88/27 22/89/27 2/90/27
f 23/91/28 21/92/28 1/93/28
f 21/94/29 23/95/29 24/96/29 22/97/29
f 22/98/30 24/99/30 2/100/30
f 25/101/31 23/102/31 1/103/31
f 23/104/32 25/105/32 26/106/32 24/107/32
f 24/108/33 26/109/33 2/110/33
f 27/111/34 25/112/34 1/113/34
f 25/114/35 27/115/35 28/116/35 26/117/35
f 26/118/36 28/119/36 2/120/36
f 29/121/37 27/122/37 1/123/37
f 27/124/38 29/125/38 30/126/38 28/127/38
f 28/128/39 30/129/39 2/130/39
f 31/131/40 29/132/40 1/133/40
f 29/134/41 31/135/41 32/136/41 30/137/41
f 30/138/42 32/139/42 2/140/42
f 33/141/43 31/142/43 1/143/43
f 31/144/44 33/145/44 34/146/44 32/147/44
f 32/148/45 34/149/45 2/150/45
f 35/151/46 33/152/46 1/153/46
f 33/154/47 35/155/47 36/156/47 34/157/47
f 34/158/48 36/159/48 2/160/48
f 37/161/49 35/162/49 1/163/49
f 35/164/50 37/165/50 38/166/50 36/167/50
f 36/168/51 38/169/51 2/170/51
f 39/171/52 37/172/52 1/173/52
f 37/174/53 39/175/53 40/176/53 38/177/53
f 38/178/54 40/179/54 2/180/54
f 41/181/55 39/182/55 1/183/55
f 39/184/56 41/185/56 42/186/56 40/187/56
f 40/188/57 42/189/57 2/190/57
f 43/191/58 41/192/58 1/193/58
f 41/194/59 43/195/59 44/196/59 42/197/59
f 42/198/60 44/199/60 2/200/60
f 45/201/61 43/202/61 1/203/61
f 43/204/62 45/205/62 46/206/62 44/207/62
f 44/208/63 46/209/63 2/210/63
f 47/211/64 45/212/64 1/213/64
f 45/214/65 47/215/65 48/216/65 46/217/65
f 46/218/66 48/219/66 2/220/66
f 49/221/67 47/222/67 1/223/67
f 47/224/68 49/225/68 50/226/68 48/227/68
f 48/228/69 50/229/69 2/230/69
f 51/231/70 49/232/70 1/233/70
f 49/234/71 51/235/71 52/236/71 50/237/71
f 50/238/72 52/239/72 2/240/72
f 53/241/73 51/242/73 1/243/73
f 51/244/74 53/245/74 54/246/74 52/247/74
f 52/248/75 54/249/75 2/250/75
f 55/251/76 53/252/76 1/253/76
f 53/254/77 55/255/77 56/256/77 54/257/77
f 54/258/78 56/259/78 2/260/78
f 57/261/79 55/262/79 1/263/79
f 55/264/80 57/265/80 58/266/80 56/267/80
f 56/268/81 58/269/81 2/270/81
f 59/271/82 57/272/82 1/273/82
f 57/274/83 59/275/83 60/276/83 58/277/83
f 58/278/84 60/279/84 2/280/84
f 61/281/85 59/282/85 1/283/85
f 59/284/86 61/285/86 62/286/86 60/287/86
f 60/288/87 62/289/87 2/290/87
f 63/291/88 61/292/88 1/293/88
f 61/294/89 63/295/89 64/296/89 62/297/89
f 62/298/90 64/299/90 2/300/90
f 65/301/91 63/302/91 1/303/91
f 63/304/92 65/305/92 66/306/92 64/307/92
f 64/308/93 66/309/93 2/310/93
f 3/311/94 65/312/94 1/313/94
f 65/314/95 3/315/95 4/316/95 66/317/95
f 66/318/96 4/319/96 2/320/96
