# Made in Blockbench 5.1.4
mtllib coin_toss.mtl
o cylinder

v 0.59375 0.5 0.5
v 0.40625 0.5 0.5
v 0.59375 0.15625 0.568376
v 0.40625 0.15625 0.568376
v 0.59375 0.208583 0.694719
v 0.40625 0.208583 0.694719
v 0.59375 0.305281 0.791417
v 0.40625 0.305281 0.791417
v 0.59375 0.431624 0.84375
v 0.40625 0.431624 0.84375
v 0.59375 0.568376 0.84375
v 0.40625 0.568376 0.84375
v 0.59375 0.694719 0.791417
v 0.40625 0.694719 0.791417
v 0.59375 0.791417 0.694719
v 0.40625 0.791417 0.694719
v 0.59375 0.84375 0.568376
v 0.40625 0.84375 0.568376
v 0.59375 0.84375 0.431624
v 0.40625 0.84375 0.431624
v 0.59375 0.791417 0.305281
v 0.40625 0.791417 0.305281
v 0.59375 0.694719 0.208583
v 0.40625 0.694719 0.208583
v 0.59375 0.568376 0.15625
v 0.40625 0.568376 0.15625
v 0.59375 0.431624 0.15625
v 0.40625 0.431624 0.15625
v 0.59375 0.305281 0.208583
v 0.40625 0.305281 0.208583
v 0.59375 0.208583 0.305281
v 0.40625 0.208583 0.305281
v 0.59375 0.15625 0.431624
v 0.40625 0.15625 0.431624
vt 0.001953125 0.9724750682
vt 0.0634162492 0.998046875
vt 0.0966796875 0.830078125
vt 0.97265625 0.6796875
vt 0.97265625 0.61328125
vt 0.880859375 0.61328125
vt 0.880859375 0.6796875
vt 0.1338493758 0.998046875
vt 0.1953125 0.9724750682
vt 0.1005859375 0.830078125
vt 0.072265625 0.7788615962
vt 0.1195759038 0.826171875
vt 0.21484375 0.68359375
vt 0.97265625 0.609375
vt 0.97265625 0.54296875
vt 0.880859375 0.54296875
vt 0.880859375 0.609375
vt 0.3140178462 0.826171875
vt 0.361328125 0.7788615962
vt 0.21875 0.68359375
vt 0.365234375 0.6182243758
vt 0.3908061818 0.6796875
vt 0.533203125 0.5849609375
vt 0.97265625 0.5390625
vt 0.97265625 0.47265625
vt 0.880859375 0.47265625
vt 0.880859375 0.5390625
vt 0.6795063182 0.6796875
vt 0.705078125 0.6182243758
vt 0.537109375 0.5849609375
vt 0.345703125 0.416015625
vt 0.345703125 0.482421875
vt 0.513671875 0.44921875
vt 0.609375 0.482421875
vt 0.609375 0.416015625
vt 0.517578125 0.416015625
vt 0.517578125 0.482421875
vt 0.78125 0.482421875
vt 0.78125 0.416015625
vt 0.61328125 0.44921875
vt 0.7345561818 0.5849609375
vt 0.708984375 0.6464240617
vt 0.876953125 0.6796875
vt 0.876953125 0.482421875
vt 0.876953125 0.416015625
vt 0.78515625 0.416015625
vt 0.78515625 0.482421875
vt 0.533203125 0.5477912492
vt 0.5076313182 0.486328125
vt 0.365234375 0.5810546875
vt 0.4125446538 0.68359375
vt 0.365234375 0.7309040288
vt 0.5078125 0.826171875
vt 0.97265625 0.46875
vt 0.97265625 0.40234375
vt 0.880859375 0.40234375
vt 0.880859375 0.46875
vt 0.654296875 0.7309040288
vt 0.6069865962 0.68359375
vt 0.51171875 0.826171875
vt 0.2606818742 0.830078125
vt 0.19921875 0.8556499318
vt 0.2939453125 0.998046875
vt 0.001953125 0.3681640625
vt 0.001953125 0.4345703125
vt 0.09375 0.4345703125
vt 0.09375 0.3681640625
vt 0.392578125 0.8556499318
vt 0.3311150008 0.830078125
vt 0.2978515625 0.998046875
vt 0.462890625 0.830078125
vt 0.396484375 0.830078125
vt 0.4296875 0.998046875
vt 0.09765625 0.3681640625
vt 0.09765625 0.4345703125
vt 0.189453125 0.4345703125
vt 0.189453125 0.3681640625
vt 0.533203125 0.830078125
vt 0.466796875 0.830078125
vt 0.5 0.998046875
vt 0.6318359375 0.8556499318
vt 0.5703728133 0.830078125
vt 0.537109375 0.998046875
vt 0.193359375 0.3681640625
vt 0.193359375 0.4345703125
vt 0.28515625 0.4345703125
vt 0.28515625 0.3681640625
vt 0.6972053117 0.830078125
vt 0.6357421875 0.8556499318
vt 0.73046875 0.998046875
vt 0.80078125 0.7309040288
vt 0.7534709712 0.68359375
vt 0.658203125 0.826171875
vt 0.2890625 0.345703125
vt 0.2890625 0.412109375
vt 0.380859375 0.412109375
vt 0.380859375 0.345703125
vt 0.8519977788 0.68359375
vt 0.8046875 0.7309040288
vt 0.947265625 0.826171875
vt 0.705078125 0.5477912492
vt 0.6795063182 0.486328125
vt 0.537109375 0.5810546875
vt 0.384765625 0.345703125
vt 0.384765625 0.412109375
vt 0.4765625 0.412109375
vt 0.4765625 0.345703125
vt 0.7345561818 0.486328125
vt 0.708984375 0.5477912492
vt 0.876953125 0.5810546875
vt 0.6484375 0.412109375
vt 0.6484375 0.345703125
vt 0.48046875 0.37890625
vt 0.65234375 0.345703125
vt 0.65234375 0.412109375
vt 0.744140625 0.412109375
vt 0.744140625 0.345703125
vt 0.748046875 0.33203125
vt 0.748046875 0.3984375
vt 0.916015625 0.365234375
vt 0.1443500682 0.533203125
vt 0.169921875 0.4717400008
vt 0.001953125 0.4384765625
vt 0.001953125 0.2978515625
vt 0.001953125 0.3642578125
vt 0.09375 0.3642578125
vt 0.09375 0.2978515625
vt 0.173828125 0.4717400008
vt 0.1993999318 0.533203125
vt 0.341796875 0.4384765625
vt 0.1675334712 0.6796875
vt 0.21484375 0.6323772212
vt 0.072265625 0.537109375
vt 0.09765625 0.2978515625
vt 0.09765625 0.3642578125
vt 0.189453125 0.3642578125
vt 0.189453125 0.2978515625
vt 0.21875 0.6323772212
vt 0.2660602788 0.6796875
vt 0.361328125 0.537109375
vt 0.7676384383 0.998046875
vt 0.8291015625 0.9724750682
vt 0.734375 0.830078125
vt 0.28515625 0.3642578125
vt 0.28515625 0.2978515625
vt 0.193359375 0.2978515625
vt 0.193359375 0.3642578125
vt 0.8330078125 0.9724750682
vt 0.8944709367 0.998046875
vt 0.927734375 0.830078125
vt 0.931640625 0.998046875
vt 0.998046875 0.998046875
vt 0.96484375 0.830078125
vt 0.380859375 0.341796875
vt 0.380859375 0.275390625
vt 0.2890625 0.275390625
vt 0.2890625 0.341796875
vt 0.001953125 0.826171875
vt 0.068359375 0.826171875
vt 0.03515625 0.658203125
vn 1 0 0
vn 0 -0.923879 0.382686
vn -1 0 0
vn 1 0 0
vn 0 -0.707107 0.707107
vn -1 0 0
vn 1 0 0
vn 0 -0.382686 0.923879
vn -1 0 0
vn 1 0 0
vn 0 0 1
vn -1 0 0
vn 1 0 0
vn 0 0.382686 0.923879
vn -1 0 0
vn 1 0 0
vn 0 0.707107 0.707107
vn -1 0 0
vn 1 0 0
vn 0 0.923879 0.382686
vn -1 0 0
vn 1 0 0
vn 0 1 0
vn -1 0 0
vn 1 0 0
vn 0 0.923879 -0.382686
vn -1 0 0
vn 1 0 0
vn 0 0.707107 -0.707107
vn -1 0 0
vn 1 0 0
vn 0 0.382686 -0.923879
vn -1 0 0
vn 1 0 0
vn 0 0 -1
vn -1 0 0
vn 1 0 0
vn 0 -0.382686 -0.923879
vn -1 0 0
vn 1 0 0
vn 0 -0.707107 -0.707107
vn -1 0 0
vn 1 0 0
vn 0 -0.923879 -0.382686
vn -1 0 0
vn 1 0 0
vn 0 -1 0
vn -1 0 0
o cylinder
usemtl m_a02ee15b-6692-797d-6f0f-be83eb1397ff
f 5/1/1 3/2/1 1/3/1
f 3/4/2 5/5/2 6/6/2 4/7/2
f 4/8/3 6/9/3 2/10/3
f 7/11/4 5/12/4 1/13/4
f 5/14/5 7/15/5 8/16/5 6/17/5
f 6/18/6 8/19/6 2/20/6
f 9/21/7 7/22/7 1/23/7
f 7/24/8 9/25/8 10/26/8 8/27/8
f 8/28/9 10/29/9 2/30/9
f 11/31/10 9/32/10 1/33/10
f 9/34/11 11/35/11 12/36/11 10/37/11
f 10/38/12 12/39/12 2/40/12
f 13/41/13 11/42/13 1/43/13
f 11/44/14 13/45/14 14/46/14 12/47/14
f 12/48/15 14/49/15 2/50/15
f 15/51/16 13/52/16 1/53/16
f 13/54/17 15/55/17 16/56/17 14/57/17
f 14/58/18 16/59/18 2/60/18
f 17/61/19 15/62/19 1/63/19
f 15/64/20 17/65/20 18/66/20 16/67/20
f 16/68/21 18/69/21 2/70/21
f 19/71/22 17/72/22 1/73/22
f 17/74/23 19/75/23 20/76/23 18/77/23
f 18/78/24 20/79/24 2/80/24
f 21/81/25 19/82/25 1/83/25
f 19/84/26 21/85/26 22/86/26 20/87/26
f 20/88/27 22/89/27 2/90/27
f 23/91/28 21/92/28 1/93/28
f 21/94/29 23/95/29 24/96/29 22/97/29
f 22/98/30 24/99/30 2/100/30
f 25/101/31 23/102/31 1/103/31
f 23/104/32 25/105/32 26/106/32 24/107/32
f 24/108/33 26/109/33 2/110/33
f 27/111/34 25/112/34 1/113/34
f 25/114/35 27/115/35 28/116/35 26/117/35
f 26/118/36 28/119/36 2/120/36
f 29/121/37 27/122/37 1/123/37
f 27/124/38 29/125/38 30/126/38 28/127/38
f 28/128/39 30/129/39 2/130/39
f 31/131/40 29/132/40 1/133/40
f 29/134/41 31/135/41 32/136/41 30/137/41
f 30/138/42 32/139/42 2/140/42
f 33/141/43 31/142/43 1/143/43
f 31/144/44 33/145/44 34/146/44 32/147/44
f 32/148/45 34/149/45 2/150/45
f 3/151/46 33/152/46 1/153/46
f 33/154/47 3/155/47 4/156/47 34/157/47
f 34/158/48 4/159/48 2/160/48
