# Made in Blockbench 5.1.4
mtllib favorite.mtl
o pyramid

v 0.5 0.830711 0.5
v 0.390625 0.611961 0.609375
v 0.609375 0.611961 0.609375
v 0.390625 0.611961 0.390625
v 0.609375 0.611961 0.390625
v 0.390625 0.611961 0.609375
v 0.609375 0.611961 0.609375
v 0.390625 0.380711 0.609375
v 0.609375 0.380711 0.609375
v 0.390625 0.611961 0.390625
v 0.609375 0.611961 0.390625
v 0.390625 0.380711 0.390625
v 0.609375 0.380711 0.390625
v 0.5 0.57807 0.15227
v 0.390625 0.614495 0.394112
v 0.609375 0.614495 0.394112
v 0.390625 0.406451 0.326515
v 0.609375 0.406451 0.326515
v 0.390594 0.614495 0.394112
v 0.609406 0.614495 0.394112
v 0.390594 0.543034 0.614044
v 0.609406 0.543034 0.614044
v 0.390594 0.406451 0.326515
v 0.609406 0.406451 0.326515
v 0.390594 0.334991 0.546447
v 0.609406 0.334991 0.546447
v 0.5 0.57807 0.84773
v 0.390625 0.406451 0.673485
v 0.609375 0.406451 0.673485
v 0.390625 0.614495 0.605888
v 0.609375 0.614495 0.605888
v 0.390563 0.406451 0.673485
v 0.609437 0.406451 0.673485
v 0.390563 0.334991 0.453553
v 0.609437 0.334991 0.453553
v 0.390563 0.614495 0.605888
v 0.609437 0.614495 0.605888
v 0.390563 0.543034 0.385956
v 0.609437 0.543034 0.385956
v 0.5 0.169289 0.285091
v 0.390625 0.410551 0.325183
v 0.609375 0.410551 0.325183
v 0.390625 0.281973 0.502155
v 0.609375 0.281973 0.502155
v 0.390531 0.410551 0.325183
v 0.609469 0.410551 0.325183
v 0.390531 0.597636 0.461108
v 0.609469 0.597636 0.461108
v 0.390531 0.281973 0.502155
v 0.609469 0.281973 0.502155
v 0.390531 0.469058 0.638081
v 0.609469 0.469058 0.638081
v 0.5 0.169289 0.714909
v 0.390625 0.281973 0.497845
v 0.609375 0.281973 0.497845
v 0.390625 0.410551 0.674817
v 0.609375 0.410551 0.674817
v 0.3905 0.281973 0.497845
v 0.6095 0.281973 0.497845
v 0.3905 0.469058 0.361919
v 0.6095 0.469058 0.361919
v 0.3905 0.410551 0.674817
v 0.6095 0.410551 0.674817
v 0.3905 0.597636 0.538892
v 0.6095 0.597636 0.538892
vt 0.7705078125 0.3642578125
vt 0.6640625 0.3642578125
vt 0.6640625 0.470703125
vt 0.7705078125 0.470703125
vt 0.486328125 0.83984375
vt 0.5927734375 0.83984375
vt 0.5395507812 0.720703125
vt 0.486328125 0.716796875
vt 0.5927734375 0.716796875
vt 0.5395507812 0.59765625
vt 0.5966796875 0.716796875
vt 0.703125 0.716796875
vt 0.6499023438 0.59765625
vt 0.70703125 0.716796875
vt 0.8134765625 0.716796875
vt 0.7602539062 0.59765625
vt 0.880859375 0.48046875
vt 0.7744140625 0.48046875
vt 0.7744140625 0.59375
vt 0.880859375 0.59375
vt 0.9912109375 0.59375
vt 0.9912109375 0.48046875
vt 0.884765625 0.48046875
vt 0.884765625 0.59375
vt 0.3310546875 0.4697265625
vt 0.3310546875 0.36328125
vt 0.224609375 0.36328125
vt 0.224609375 0.4697265625
vt 0.7705078125 0.25390625
vt 0.6640625 0.25390625
vt 0.6640625 0.3603515625
vt 0.7705078125 0.3603515625
vt 0.1083984375 0.5869140625
vt 0.1083984375 0.4736328125
vt 0.001953125 0.4736328125
vt 0.001953125 0.5869140625
vt 0.21875 0.4736328125
vt 0.1123046875 0.4736328125
vt 0.1123046875 0.5869140625
vt 0.21875 0.5869140625
vt 0.3310546875 0.2529296875
vt 0.224609375 0.2529296875
vt 0.224609375 0.359375
vt 0.3310546875 0.359375
vt 0.923828125 0.59765625
vt 0.8173828125 0.59765625
vt 0.8706054688 0.716796875
vt 0.4330128008 0.2431640625
vt 0.462890625 0.140625
vt 0.3330078125 0.1585778626
vt 0.001953125 0.1396484375
vt 0.0318309492 0.2421875
vt 0.1318359375 0.1576013001
vt 0.001953125 0.7099609375
vt 0.1083984375 0.7099609375
vt 0.0551757812 0.5908203125
vt 0.22265625 0.5869140625
vt 0.3291015625 0.5869140625
vt 0.3291015625 0.4736328125
vt 0.22265625 0.4736328125
vt 0.3330078125 0.4736328125
vt 0.3330078125 0.5869140625
vt 0.439453125 0.5869140625
vt 0.439453125 0.4736328125
vt 0.880859375 0.359375
vt 0.880859375 0.2529296875
vt 0.7744140625 0.2529296875
vt 0.7744140625 0.359375
vt 0.9912109375 0.2529296875
vt 0.884765625 0.2529296875
vt 0.884765625 0.359375
vt 0.9912109375 0.359375
vt 0.767578125 0.8962831117
vt 0.6600135402 0.861328125
vt 0.626953125 0.9630923775
vt 0.7345177098 0.998046875
vt 0.912109375 0.9630923775
vt 0.8790489598 0.861328125
vt 0.771484375 0.8962831117
vt 0.8045447902 0.998046875
vt 0.3349609375 0.353515625
vt 0.44140625 0.353515625
vt 0.44140625 0.2470703125
vt 0.3349609375 0.2470703125
vt 0.1123046875 0.7099609375
vt 0.21875 0.7099609375
vt 0.1655273438 0.5908203125
vt 0.466796875 0.037109375
vt 0.4966746992 0.1396484375
vt 0.5966796875 0.0550622376
vt 0.2357471758 0.138671875
vt 0.265625 0.0361328125
vt 0.1357421875 0.0540856751
vt 0.22265625 0.7099609375
vt 0.3291015625 0.7099609375
vt 0.2758789062 0.5908203125
vt 0.880859375 0.36328125
vt 0.7744140625 0.36328125
vt 0.7744140625 0.4765625
vt 0.880859375 0.4765625
vt 0.9912109375 0.4765625
vt 0.9912109375 0.36328125
vt 0.884765625 0.36328125
vt 0.884765625 0.4765625
vt 0.4453125 0.2470703125
vt 0.4453125 0.353515625
vt 0.5517578125 0.353515625
vt 0.5517578125 0.2470703125
vt 0.001953125 0.3525390625
vt 0.1083984375 0.3525390625
vt 0.1083984375 0.24609375
vt 0.001953125 0.24609375
vt 0.6600135402 0.857421875
vt 0.767578125 0.8224673775
vt 0.7345177098 0.720703125
vt 0.626953125 0.7556581117
vt 0.8045447902 0.720703125
vt 0.771484375 0.8224673775
vt 0.8790489598 0.857421875
vt 0.912109375 0.7556581117
vt 0.21875 0.24609375
vt 0.1123046875 0.24609375
vt 0.1123046875 0.3525390625
vt 0.21875 0.3525390625
vt 0.439453125 0.5908203125
vt 0.3330078125 0.5908203125
vt 0.3862304688 0.7099609375
vt 0.119140625 0.7810050478
vt 0.0359215271 0.7138671875
vt 0.001953125 0.83984375
vt 0.2062659729 0.7138671875
vt 0.123046875 0.7810050478
vt 0.240234375 0.83984375
vt 0.5498046875 0.474609375
vt 0.443359375 0.474609375
vt 0.4965820312 0.59375
vt 0.443359375 0.470703125
vt 0.5498046875 0.470703125
vt 0.5498046875 0.357421875
vt 0.443359375 0.357421875
vt 0.5537109375 0.357421875
vt 0.5537109375 0.470703125
vt 0.66015625 0.470703125
vt 0.66015625 0.357421875
vt 0.662109375 0.25
vt 0.662109375 0.1435546875
vt 0.5556640625 0.1435546875
vt 0.5556640625 0.25
vt 0.3291015625 0.142578125
vt 0.22265625 0.142578125
vt 0.22265625 0.2490234375
vt 0.3291015625 0.2490234375
vt 0.0681322767 0.84375
vt 0.001953125 0.9351976225
vt 0.0881172364 0.998046875
vt 0.154296875 0.9065992525
vt 0.2243827636 0.998046875
vt 0.310546875 0.9351976225
vt 0.2443677233 0.84375
vt 0.158203125 0.9065992525
vt 0.666015625 0.2490234375
vt 0.7724609375 0.2490234375
vt 0.7724609375 0.142578125
vt 0.666015625 0.142578125
vt 0.66015625 0.474609375
vt 0.5537109375 0.474609375
vt 0.6069335938 0.59375
vt 0.3273597229 0.7138671875
vt 0.244140625 0.7810050478
vt 0.361328125 0.83984375
vt 0.482421875 0.7810050478
vt 0.3992027771 0.7138671875
vt 0.365234375 0.83984375
vt 0.7705078125 0.474609375
vt 0.6640625 0.474609375
vt 0.7172851562 0.59375
vt 0.001953125 0.4697265625
vt 0.109375 0.4697265625
vt 0.109375 0.3564453125
vt 0.001953125 0.3564453125
vt 0.11328125 0.3564453125
vt 0.11328125 0.4697265625
vt 0.220703125 0.4697265625
vt 0.220703125 0.3564453125
vt 0.7763671875 0.142578125
vt 0.7763671875 0.2490234375
vt 0.8837890625 0.2490234375
vt 0.8837890625 0.142578125
vt 0.8876953125 0.2490234375
vt 0.9951171875 0.2490234375
vt 0.9951171875 0.142578125
vt 0.8876953125 0.142578125
vt 0.314453125 0.9065992525
vt 0.3806327636 0.998046875
vt 0.466796875 0.9351976225
vt 0.4006177233 0.84375
vt 0.470703125 0.9351976225
vt 0.5568672364 0.998046875
vt 0.623046875 0.9065992525
vt 0.5368822767 0.84375
vn 0 -1 0
vn 0 0.447214 0.894427
vn -0.894427 0.447214 0
vn 0.894427 0.447214 0
vn 0 0.447214 -0.894427
vn 0 0 1
vn 0 0 -1
vn 0 1 0
vn 0 -1 0
vn -1 0 0
vn 1 0 0
vn 0 -0.309017 0.951057
vn 0 0.988847 -0.148932
vn -0.894427 0.138197 -0.425325
vn 0.894427 0.138197 -0.425325
vn 0 -0.712454 -0.701719
vn 0 0.951057 0.309017
vn 0 -0.951057 -0.309017
vn 0 0.309017 -0.951057
vn 0 -0.309017 0.951057
vn -1 0 0
vn 1 0 0
vn 0 -0.309017 -0.951057
vn 0 -0.712454 0.701719
vn -0.894427 0.138197 0.425325
vn 0.894427 0.138197 0.425325
vn 0 0.988847 0.148932
vn 0 -0.951057 0.309017
vn 0 0.951057 -0.309017
vn 0 0.309017 0.951057
vn 0 -0.309017 -0.951057
vn -1 0 0
vn 1 0 0
vn 0 0.809017 0.587785
vn 0 0.163928 -0.986472
vn -0.894427 -0.361803 -0.262866
vn 0.894427 -0.361803 -0.262866
vn 0 -0.887535 0.460741
vn 0 0.587785 -0.809017
vn 0 -0.587785 0.809017
vn 0 -0.809017 -0.587785
vn 0 0.809017 0.587785
vn -1 0 0
vn 1 0 0
vn 0 0.809017 -0.587785
vn 0 -0.887535 -0.460741
vn -0.894427 -0.361803 0.262866
vn 0.894427 -0.361803 0.262866
vn 0 0.163928 0.986472
vn 0 -0.587785 -0.809017
vn 0 0.587785 0.809017
vn 0 -0.809017 0.587785
vn 0 0.809017 -0.587785
vn -1 0 0
vn 1 0 0
o pyramid
usemtl m_bd82da39-d66a-66a1-51d8-2e1f07eafad2
f 3/1/1 2/2/1 4/3/1 5/4/1
f 2/5/2 3/6/2 1/7/2
f 4/8/3 2/9/3 1/10/3
f 3/11/4 5/12/4 1/13/4
f 5/14/5 4/15/5 1/16/5
o mesh
f 7/17/6 6/18/6 8/19/6 9/20/6
f 12/21/7 10/22/7 11/23/7 13/24/7
f 10/25/8 6/26/8 7/27/8 11/28/8
f 9/29/9 8/30/9 12/31/9 13/32/9
f 8/33/10 6/34/10 10/35/10 12/36/10
f 11/37/11 7/38/11 9/39/11 13/40/11
o pyramid
f 16/41/12 15/42/12 17/43/12 18/44/12
f 15/45/13 16/46/13 14/47/13
f 17/48/14 15/49/14 14/50/14
f 16/51/15 18/52/15 14/53/15
f 18/54/16 17/55/16 14/56/16
o mesh
f 20/57/17 19/58/17 21/59/17 22/60/17
f 25/61/18 23/62/18 24/63/18 26/64/18
f 23/65/19 19/66/19 20/67/19 24/68/19
f 22/69/20 21/70/20 25/71/20 26/72/20
f 21/73/21 19/74/21 23/75/21 25/76/21
f 24/77/22 20/78/22 22/79/22 26/80/22
o pyramid
f 29/81/23 28/82/23 30/83/23 31/84/23
f 28/85/24 29/86/24 27/87/24
f 30/88/25 28/89/25 27/90/25
f 29/91/26 31/92/26 27/93/26
f 31/94/27 30/95/27 27/96/27
o mesh
f 33/97/28 32/98/28 34/99/28 35/100/28
f 38/101/29 36/102/29 37/103/29 39/104/29
f 36/105/30 32/106/30 33/107/30 37/108/30
f 35/109/31 34/110/31 38/111/31 39/112/31
f 34/113/32 32/114/32 36/115/32 38/116/32
f 37/117/33 33/118/33 35/119/33 39/120/33
o pyramid
f 42/121/34 41/122/34 43/123/34 44/124/34
f 41/125/35 42/126/35 40/127/35
f 43/128/36 41/129/36 40/130/36
f 42/131/37 44/132/37 40/133/37
f 44/134/38 43/135/38 40/136/38
o mesh
f 46/137/39 45/138/39 47/139/39 48/140/39
f 51/141/40 49/142/40 50/143/40 52/144/40
f 49/145/41 45/146/41 46/147/41 50/148/41
f 48/149/42 47/150/42 51/151/42 52/152/42
f 47/153/43 45/154/43 49/155/43 51/156/43
f 50/157/44 46/158/44 48/159/44 52/160/44
o pyramid
f 55/161/45 54/162/45 56/163/45 57/164/45
f 54/165/46 55/166/46 53/167/46
f 56/168/47 54/169/47 53/170/47
f 55/171/48 57/172/48 53/173/48
f 57/174/49 56/175/49 53/176/49
o mesh
f 59/177/50 58/178/50 60/179/50 61/180/50
f 64/181/51 62/182/51 63/183/51 65/184/51
f 62/185/52 58/186/52 59/187/52 63/188/52
f 61/189/53 60/190/53 64/191/53 65/192/53
f 60/193/54 58/194/54 62/195/54 64/196/54
f 63/197/55 59/198/55 61/199/55 65/200/55
