# Made in Blockbench 5.1.6
mtllib infra_pickaxe.mtl
o mesh

v 0.8393942113 0.615555755 0.5830957874
v 0.8393942113 0.615555755 0.4169042126
v 0.766646713 0.5428082567 0.5830957874
v 0.766646713 0.5428082567 0.4169042126
v 0.615555755 0.8393942113 0.5830957874
v 0.615555755 0.8393942113 0.4169042126
v 0.5428082567 0.766646713 0.5830957874
v 0.5428082567 0.766646713 0.4169042126
v 0.7022931568 0.5847779672 0.5830957874
v 0.7022931568 0.5847779672 0.4169042126
v 0.6295456585 0.5120304689 0.5830957874
v 0.6295456585 0.5120304689 0.4169042126
v 0.5847779672 0.7022931568 0.5830957874
v 0.5847779672 0.7022931568 0.4169042126
v 0.5120304689 0.6295456585 0.5830957874
v 0.5120304689 0.6295456585 0.4169042126
v 0.8505861342 0.766646713 0.5590957874
v 0.8505861342 0.766646713 0.4409042126
v 0.0839394211 0 0.5590957874
v 0.0839394211 0 0.4409042126
v 0.766646713 0.8505861342 0.5590957874
v 0.766646713 0.8505861342 0.4409042126
v 0 0.0839394211 0.5590957874
v 0 0.0839394211 0.4409042126
v 0.9204543347 0.4164757541 0.5670957874
v 0.9204543347 0.4164757541 0.4329042126
v 0.7879622025 0.3931138165 0.5670957874
v 0.7879622025 0.3931138165 0.4329042126
v 0.8792273859 0.650285399 0.5670957874
v 0.8792273859 0.650285399 0.4329042126
v 0.7467352538 0.6269234614 0.5670957874
v 0.7467352538 0.6269234614 0.4329042126
v 1 0.2866460284 0.5830957874
v 1 0.2866460284 0.4169042126
v 0.8830951775 0.266032554 0.5830957874
v 0.8830951775 0.266032554 0.4169042126
v 0.945030735 0.5983922216 0.5830957874
v 0.945030735 0.5983922216 0.4169042126
v 0.8281259125 0.5777787472 0.5830957874
v 0.8281259125 0.5777787472 0.4169042126
v 0.8560880128 0.6046995202 0.5750957874
v 0.8560880128 0.6046995202 0.4249042126
v 0.8181941019 0.5005868558 0.5750957874
v 0.8181941019 0.5005868558 0.4249042126
v 0.6329894462 0.6859007577 0.5750957874
v 0.6329894462 0.6859007577 0.4249042126
v 0.5950955354 0.5817880934 0.5750957874
v 0.5950955354 0.5817880934 0.4249042126
v 0.4164757541 0.9204543347 0.5750957874
v 0.4164757541 0.9204543347 0.4249042126
v 0.3931138165 0.7879622025 0.5750957874
v 0.3931138165 0.7879622025 0.4249042126
v 0.650285399 0.8792273859 0.5750957874
v 0.650285399 0.8792273859 0.4249042126
v 0.6269234614 0.7467352538 0.5750957874
v 0.6269234614 0.7467352538 0.4249042126
v 0.2866460284 1 0.5830957874
v 0.2866460284 1 0.4169042126
v 0.266032554 0.8830951775 0.5830957874
v 0.266032554 0.8830951775 0.4169042126
v 0.5983922216 0.945030735 0.5830957874
v 0.5983922216 0.945030735 0.4169042126
v 0.5777787472 0.8281259125 0.5830957874
v 0.5777787472 0.8281259125 0.4169042126
v 0.6046995202 0.8560880128 0.5670957874
v 0.6046995202 0.8560880128 0.4329042126
v 0.5005868558 0.8181941019 0.5670957874
v 0.5005868558 0.8181941019 0.4329042126
v 0.6859007577 0.6329894462 0.5670957874
v 0.6859007577 0.6329894462 0.4329042126
v 0.5817880934 0.5950955354 0.5670957874
v 0.5817880934 0.5950955354 0.4329042126
vt 0.337890625 0.2133789062
vt 0.2646484375 0.2133789062
vt 0.2646484375 0.2587890625
vt 0.337890625 0.2587890625
vt 0.07421875 0.2573242188
vt 0.07421875 0.2119140625
vt 0.0009765625 0.2119140625
vt 0.0009765625 0.2573242188
vt 0.861328125 0.5639648438
vt 0.861328125 0.703125
vt 0.9345703125 0.703125
vt 0.9345703125 0.5639648438
vt 0.109375 0.623046875
vt 0.1826171875 0.623046875
vt 0.1826171875 0.4838867188
vt 0.109375 0.4838867188
vt 0.4255417158 0.623046875
vt 0.4575195312 0.5910690596
vt 0.3591262529 0.4926757812
vt 0.3271484375 0.5246535967
vt 0.5578659346 0.4926757812
vt 0.4594726562 0.5910690596
vt 0.4914504717 0.623046875
vt 0.58984375 0.5246535967
vt 0.1494140625 0.2119140625
vt 0.076171875 0.2119140625
vt 0.076171875 0.2573242188
vt 0.1494140625 0.2573242188
vt 0.224609375 0.2563476562
vt 0.224609375 0.2109375
vt 0.1513671875 0.2109375
vt 0.1513671875 0.2563476562
vt 0.6630859375 0.34765625
vt 0.6630859375 0.4208984375
vt 0.736328125 0.4208984375
vt 0.736328125 0.34765625
vt 0.3354492188 0.4052734375
vt 0.4086914062 0.4052734375
vt 0.4086914062 0.33203125
vt 0.3354492188 0.33203125
vt 0.7146570542 0.5063476562
vt 0.7465820312 0.4744226792
vt 0.6950109145 0.4228515625
vt 0.6630859375 0.4547765395
vt 0.3787195542 0.4072265625
vt 0.3271484375 0.4587976792
vt 0.3590734145 0.4907226562
vt 0.4106445312 0.4391515395
vt 0.0532226562 0.5224609375
vt 0.0009765625 0.5224609375
vt 0.0009765625 0.9990234375
vt 0.0532226562 0.9990234375
vt 0.107421875 0.9990234375
vt 0.107421875 0.5224609375
vt 0.0551757812 0.5224609375
vt 0.0551757812 0.9990234375
vt 0.771484375 0.2456054688
vt 0.771484375 0.2978515625
vt 0.8237304688 0.2978515625
vt 0.8237304688 0.2456054688
vt 0.8256835938 0.2978515625
vt 0.8779296875 0.2978515625
vt 0.8779296875 0.2456054688
vt 0.8256835938 0.2456054688
vt 0.1462852076 0.9990234375
vt 0.4833984375 0.6619102077
vt 0.4464882298 0.625
vt 0.109375 0.9621132299
vt 0.5222617702 0.625
vt 0.4853515625 0.6619102077
vt 0.8224647924 0.9990234375
vt 0.859375 0.9621132299
vt 0.4453125 0.3295898438
vt 0.4453125 0.26171875
vt 0.3862304688 0.26171875
vt 0.3862304688 0.3295898438
vt 0.5063476562 0.26171875
vt 0.447265625 0.26171875
vt 0.447265625 0.3295898438
vt 0.5063476562 0.3295898438
vt 0.9150390625 0.4575195312
vt 0.9150390625 0.5620117188
vt 0.9829101562 0.5620117188
vt 0.9829101562 0.4575195312
vt 0.0009765625 0.5205078125
vt 0.0688476562 0.5205078125
vt 0.0688476562 0.416015625
vt 0.0009765625 0.416015625
vt 0.776866144 0.623046875
vt 0.8349609375 0.6128005551
vt 0.816883856 0.5102539062
vt 0.7587890625 0.5205002261
vt 0.854991144 0.44921875
vt 0.8369140625 0.5517653989
vt 0.895008856 0.5620117188
vt 0.9130859375 0.4594650699
vt 0.9970703125 0.4555664062
vt 0.9970703125 0.3862304688
vt 0.9448242188 0.3862304688
vt 0.9448242188 0.4555664062
vt 0.0532226562 0.3447265625
vt 0.0009765625 0.3447265625
vt 0.0009765625 0.4140625
vt 0.0532226562 0.4140625
vt 0.1845703125 0.4838867188
vt 0.1845703125 0.623046875
vt 0.25390625 0.623046875
vt 0.25390625 0.4838867188
vt 0.255859375 0.623046875
vt 0.3251953125 0.623046875
vt 0.3251953125 0.4838867188
vt 0.255859375 0.4838867188
vt 0.8855334696 0.9990234375
vt 0.9370117188 0.9899685279
vt 0.9128063741 0.8530273438
vt 0.861328125 0.8620822533
vt 0.8855334696 0.705078125
vt 0.861328125 0.8420193092
vt 0.9128063741 0.8510742188
vt 0.9370117188 0.7141330346
vt 0.6489257812 0.2255859375
vt 0.5795898438 0.2255859375
vt 0.5795898438 0.2744140625
vt 0.6489257812 0.2744140625
vt 0.4555664062 0.259765625
vt 0.4555664062 0.2109375
vt 0.3862304688 0.2109375
vt 0.3862304688 0.259765625
vt 0.1596679688 0.3291015625
vt 0.0551757812 0.3291015625
vt 0.0551757812 0.3984375
vt 0.1596679688 0.3984375
vt 0.8427734375 0.369140625
vt 0.8427734375 0.2998046875
vt 0.73828125 0.2998046875
vt 0.73828125 0.369140625
vt 0.510683583 0.4907226562
vt 0.52734375 0.444910358
vt 0.4292578232 0.4091796875
vt 0.4125976562 0.4549919857
vt 0.1688867081 0.400390625
vt 0.0708007812 0.4361212955
vt 0.0874609482 0.4819335938
vt 0.185546875 0.4462029232
vt 0.3325195312 0.326171875
vt 0.3325195312 0.2670898438
vt 0.2646484375 0.2670898438
vt 0.2646484375 0.326171875
vt 0.76953125 0.2387695312
vt 0.7016601562 0.2387695312
vt 0.7016601562 0.2978515625
vt 0.76953125 0.2978515625
vt 0.15625 0.3271484375
vt 0.15625 0.2592773438
vt 0.0517578125 0.2592773438
vt 0.0517578125 0.3271484375
vt 0.2626953125 0.2583007812
vt 0.158203125 0.2583007812
vt 0.158203125 0.326171875
vt 0.2626953125 0.326171875
vt 0.3002929688 0.4238388003
vt 0.1977463199 0.4057617188
vt 0.1875 0.4638565123
vt 0.2900466489 0.4819335938
vt 0.9428710938 0.4291885435
vt 0.9326247739 0.37109375
vt 0.830078125 0.3891708315
vt 0.8403244449 0.447265625
vt 0.94921875 0.2978515625
vt 0.94921875 0.2456054688
vt 0.8798828125 0.2456054688
vt 0.8798828125 0.2978515625
vt 0.5776367188 0.2221679688
vt 0.5083007812 0.2221679688
vt 0.5083007812 0.2744140625
vt 0.5776367188 0.2744140625
vt 0.9838867188 0.369140625
vt 0.9838867188 0.2998046875
vt 0.8447265625 0.2998046875
vt 0.8447265625 0.369140625
vt 0.6997070312 0.2763671875
vt 0.560546875 0.2763671875
vt 0.560546875 0.345703125
vt 0.6997070312 0.345703125
vt 0.55859375 0.3557483134
vt 0.4216525658 0.3315429688
vt 0.4125976562 0.3830212179
vt 0.5495388404 0.4072265625
vt 0.3334960938 0.3796032491
vt 0.3244411842 0.328125
vt 0.1875 0.3523303446
vt 0.1965549096 0.4038085938
vt 0.0498046875 0.2734375
vt 0.0009765625 0.2734375
vt 0.0009765625 0.3427734375
vt 0.0498046875 0.3427734375
vt 0.3842773438 0.330078125
vt 0.3842773438 0.2607421875
vt 0.3354492188 0.2607421875
vt 0.3354492188 0.330078125
vt 0.828125 0.4038085938
vt 0.7587890625 0.4038085938
vt 0.7587890625 0.5083007812
vt 0.828125 0.5083007812
vt 0.6611328125 0.5063476562
vt 0.6611328125 0.4018554688
vt 0.591796875 0.4018554688
vt 0.591796875 0.5063476562
vt 0.6733398438 0.6063867081
vt 0.6376091732 0.5083007812
vt 0.591796875 0.5249609482
vt 0.6275275456 0.623046875
vt 0.7568359375 0.5249609482
vt 0.7110236393 0.5083007812
vt 0.6752929688 0.6063867081
vt 0.7211052669 0.623046875
vn 1 0 0
vn -1 0 0
vn 0 1 0
vn 0 -1 0
vn 0 0 1
vn 0 0 -1
vn 1 0 0
vn -1 0 0
vn 0 1 0
vn 0 -1 0
vn 0 0 1
vn 0 0 -1
vn 1 0 0
vn -1 0 0
vn 0 1 0
vn 0 -1 0
vn 0 0 1
vn 0 0 -1
vn 0.8191520443 -0.5735764364 0
vn -0.8191520443 0.5735764364 0
vn 0.5735764364 0.8191520443 0
vn -0.5735764364 -0.8191520443 0
vn 0 0 1
vn 0 0 -1
vn 0.8191520443 -0.5735764364 0
vn -0.8191520443 0.5735764364 0
vn 0.5735764364 0.8191520443 0
vn -0.5735764364 -0.8191520443 0
vn 0 0 1
vn 0 0 -1
vn 0.906307787 0.4226182617 0
vn -0.906307787 -0.4226182617 0
vn -0.4226182617 0.906307787 0
vn 0.4226182617 -0.906307787 0
vn 0 0 1
vn 0 0 -1
vn -0.8191520443 -0.5735764364 0
vn 0.8191520443 0.5735764364 0
vn -0.5735764364 0.8191520443 0
vn 0.5735764364 -0.8191520443 0
vn 0 0 1
vn 0 0 -1
vn -0.8191520443 -0.5735764364 0
vn 0.8191520443 0.5735764364 0
vn -0.5735764364 0.8191520443 0
vn 0.5735764364 -0.8191520443 0
vn 0 0 1
vn 0 0 -1
vn -0.906307787 0.4226182617 0
vn 0.906307787 -0.4226182617 0
vn 0.4226182617 0.906307787 0
vn -0.4226182617 -0.906307787 0
vn 0 0 1
vn 0 0 -1
o mesh
usemtl m_3463caec-3657-39e6-5903-a46a5b4fe8ae
f 2/1/1 1/2/1 3/3/1 4/4/1
f 7/5/2 5/6/2 6/7/2 8/8/2
f 5/9/3 1/10/3 2/11/3 6/12/3
f 4/13/4 3/14/4 7/15/4 8/16/4
f 3/17/5 1/18/5 5/19/5 7/20/5
f 6/21/6 2/22/6 4/23/6 8/24/6
f 10/25/7 9/26/7 11/27/7 12/28/7
f 15/29/8 13/30/8 14/31/8 16/32/8
f 13/33/9 9/34/9 10/35/9 14/36/9
f 12/37/10 11/38/10 15/39/10 16/40/10
f 11/41/11 9/42/11 13/43/11 15/44/11
f 14/45/12 10/46/12 12/47/12 16/48/12
f 18/49/13 17/50/13 19/51/13 20/52/13
f 23/53/14 21/54/14 22/55/14 24/56/14
f 21/57/15 17/58/15 18/59/15 22/60/15
f 20/61/16 19/62/16 23/63/16 24/64/16
f 19/65/17 17/66/17 21/67/17 23/68/17
f 22/69/18 18/70/18 20/71/18 24/72/18
f 26/73/19 25/74/19 27/75/19 28/76/19
f 31/77/20 29/78/20 30/79/20 32/80/20
f 29/81/21 25/82/21 26/83/21 30/84/21
f 28/85/22 27/86/22 31/87/22 32/88/22
f 27/89/23 25/90/23 29/91/23 31/92/23
f 30/93/24 26/94/24 28/95/24 32/96/24
f 34/97/25 33/98/25 35/99/25 36/100/25
f 39/101/26 37/102/26 38/103/26 40/104/26
f 37/105/27 33/106/27 34/107/27 38/108/27
f 36/109/28 35/110/28 39/111/28 40/112/28
f 35/113/29 33/114/29 37/115/29 39/116/29
f 38/117/30 34/118/30 36/119/30 40/120/30
f 42/121/31 41/122/31 43/123/31 44/124/31
f 47/125/32 45/126/32 46/127/32 48/128/32
f 45/129/33 41/130/33 42/131/33 46/132/33
f 44/133/34 43/134/34 47/135/34 48/136/34
f 43/137/35 41/138/35 45/139/35 47/140/35
f 46/141/36 42/142/36 44/143/36 48/144/36
f 51/145/37 49/146/37 50/147/37 52/148/37
f 54/149/38 53/150/38 55/151/38 56/152/38
f 50/153/39 49/154/39 53/155/39 54/156/39
f 55/157/40 51/158/40 52/159/40 56/160/40
f 53/161/41 49/162/41 51/163/41 55/164/41
f 52/165/42 50/166/42 54/167/42 56/168/42
f 59/169/43 57/170/43 58/171/43 60/172/43
f 62/173/44 61/174/44 63/175/44 64/176/44
f 58/177/45 57/178/45 61/179/45 62/180/45
f 63/181/46 59/182/46 60/183/46 64/184/46
f 61/185/47 57/186/47 59/187/47 63/188/47
f 60/189/48 58/190/48 62/191/48 64/192/48
f 67/193/49 65/194/49 66/195/49 68/196/49
f 70/197/50 69/198/50 71/199/50 72/200/50
f 66/201/51 65/202/51 69/203/51 70/204/51
f 71/205/52 67/206/52 68/207/52 72/208/52
f 69/209/53 65/210/53 67/211/53 71/212/53
f 68/213/54 66/214/54 70/215/54 72/216/54
