# Made in Blockbench 5.1.4
mtllib like.mtl
o beveled_cuboid

v 0.575 0.603689 0.676458
v 0.425 0.603689 0.676458
v 0.575 0.603689 0.770208
v 0.425 0.603689 0.770208
v 0.575 0.228689 0.676458
v 0.425 0.228689 0.676458
v 0.575 0.228689 0.770208
v 0.425 0.228689 0.770208
v 0.575 0.322439 0.785833
v 0.575 0.509939 0.785833
v 0.425 0.322439 0.785833
v 0.425 0.509939 0.785833
v 0.575 0.322439 0.660833
v 0.575 0.509939 0.660833
v 0.425 0.322439 0.660833
v 0.425 0.509939 0.660833
v 0.4 0.322439 0.676458
v 0.4 0.509939 0.676458
v 0.4 0.322439 0.770208
v 0.4 0.509939 0.770208
v 0.6 0.322439 0.676458
v 0.6 0.509939 0.676458
v 0.6 0.322439 0.770208
v 0.6 0.509939 0.770208
v 0.59375 0.603689 0.332708
v 0.40625 0.603689 0.332708
v 0.59375 0.603689 0.613958
v 0.40625 0.603689 0.613958
v 0.59375 0.228689 0.332708
v 0.40625 0.228689 0.332708
v 0.59375 0.228689 0.613958
v 0.40625 0.228689 0.613958
v 0.59375 0.322439 0.660833
v 0.59375 0.509939 0.660833
v 0.40625 0.322439 0.660833
v 0.40625 0.509939 0.660833
v 0.59375 0.322439 0.285833
v 0.59375 0.509939 0.285833
v 0.40625 0.322439 0.285833
v 0.40625 0.509939 0.285833
v 0.375 0.322439 0.332708
v 0.375 0.509939 0.332708
v 0.375 0.322439 0.613958
v 0.375 0.509939 0.613958
v 0.625 0.322439 0.332708
v 0.625 0.509939 0.332708
v 0.625 0.322439 0.613958
v 0.625 0.509939 0.613958
v 0.58125 0.573253 0.214167
v 0.417187 0.573253 0.214167
v 0.58125 0.599631 0.333153
v 0.417187 0.599631 0.333153
v 0.58125 0.207142 0.295332
v 0.417187 0.207142 0.295332
v 0.58125 0.23352 0.414318
v 0.417187 0.23352 0.414318
v 0.58125 0.329444 0.413857
v 0.58125 0.5125 0.373275
v 0.417187 0.329444 0.413857
v 0.417187 0.5125 0.373275
v 0.58125 0.294273 0.255209
v 0.58125 0.477329 0.214627
v 0.417187 0.294273 0.255209
v 0.417187 0.477329 0.214627
v 0.389844 0.298669 0.27504
v 0.389844 0.481725 0.234458
v 0.389844 0.325048 0.394026
v 0.389844 0.508104 0.353444
v 0.608594 0.298669 0.27504
v 0.608594 0.481725 0.234458
v 0.608594 0.325048 0.394026
v 0.608594 0.508104 0.353444
v 0.546875 0.753238 0.420694
v 0.453125 0.753238 0.420694
v 0.546875 0.792858 0.505661
v 0.453125 0.792858 0.505661
v 0.546875 0.492674 0.542197
v 0.453125 0.492674 0.542197
v 0.546875 0.532295 0.627163
v 0.453125 0.532295 0.627163
v 0.546875 0.604039 0.610949
v 0.546875 0.734321 0.550197
v 0.453125 0.604039 0.610949
v 0.453125 0.734321 0.550197
v 0.546875 0.551212 0.49766
v 0.546875 0.681494 0.436909
v 0.453125 0.551212 0.49766
v 0.453125 0.681494 0.436909
v 0.4375 0.557815 0.511821
v 0.4375 0.688097 0.45107
v 0.4375 0.597436 0.596788
v 0.4375 0.727717 0.536036
v 0.5625 0.557815 0.511821
v 0.5625 0.688097 0.45107
v 0.5625 0.597436 0.596788
v 0.5625 0.727717 0.536036
vt 0.5595703125 0.90625
vt 0.486328125 0.90625
vt 0.486328125 0.998046875
vt 0.5595703125 0.998046875
vt 0.63671875 0.998046875
vt 0.63671875 0.90625
vt 0.5634765625 0.90625
vt 0.5634765625 0.998046875
vt 0.705078125 0.640625
vt 0.7783203125 0.640625
vt 0.7783203125 0.5947265625
vt 0.705078125 0.5947265625
vt 0.5263671875 0.59375
vt 0.5263671875 0.6396484375
vt 0.599609375 0.6396484375
vt 0.599609375 0.59375
vt 0.6865234375 0.998046875
vt 0.6865234375 0.90625
vt 0.640625 0.90625
vt 0.640625 0.998046875
vt 0.736328125 0.90625
vt 0.6904296875 0.90625
vt 0.6904296875 0.998046875
vt 0.736328125 0.998046875
vt 0.7783203125 0.64453125
vt 0.705078125 0.64453125
vt 0.705078125 0.69140625
vt 0.7783203125 0.69140625
vt 0.501953125 0.6884765625
vt 0.501953125 0.6416015625
vt 0.4287109375 0.6416015625
vt 0.4287109375 0.6884765625
vt 0.0478515625 0.76953125
vt 0.0478515625 0.7216796875
vt 0.001953125 0.7216796875
vt 0.001953125 0.76953125
vt 0.5751953125 0.6953125
vt 0.529296875 0.6953125
vt 0.529296875 0.7431640625
vt 0.5751953125 0.7431640625
vt 0.033203125 0.6279296875
vt 0.033203125 0.6748046875
vt 0.1064453125 0.6748046875
vt 0.1064453125 0.6279296875
vt 0.1103515625 0.6748046875
vt 0.18359375 0.6748046875
vt 0.18359375 0.6279296875
vt 0.1103515625 0.6279296875
vt 0.5791015625 0.7431640625
vt 0.625 0.7431640625
vt 0.625 0.6953125
vt 0.5791015625 0.6953125
vt 0.62890625 0.6953125
vt 0.62890625 0.7431640625
vt 0.6748046875 0.7431640625
vt 0.6748046875 0.6953125
vt 0.740234375 0.998046875
vt 0.7548828125 0.998046875
vt 0.7548828125 0.90625
vt 0.740234375 0.90625
vt 0.7587890625 0.90625
vt 0.7587890625 0.998046875
vt 0.7734375 0.998046875
vt 0.7734375 0.90625
vt 0.77734375 0.90625
vt 0.77734375 0.998046875
vt 0.7919921875 0.998046875
vt 0.7919921875 0.90625
vt 0.7958984375 0.998046875
vt 0.810546875 0.998046875
vt 0.810546875 0.90625
vt 0.7958984375 0.90625
vt 0.2820180829 0.642578125
vt 0.2861328125 0.5966796875
vt 0.271484375 0.5966796875
vt 0.2941537921 0.642578125
vt 0.3046875 0.5966796875
vt 0.2900390625 0.5966796875
vt 0.3127084796 0.642578125
vt 0.3232421875 0.5966796875
vt 0.30859375 0.5966796875
vt 0.6140493329 0.6396484375
vt 0.6181640625 0.59375
vt 0.603515625 0.59375
vt 0.6326040204 0.59375
vt 0.6220703125 0.6396484375
vt 0.63671875 0.6396484375
vt 0.6447397296 0.59375
vt 0.640625 0.6396484375
vt 0.6552734375 0.6396484375
vt 0.6632944171 0.59375
vt 0.6591796875 0.6396484375
vt 0.673828125 0.6396484375
vt 0.6882680829 0.59375
vt 0.677734375 0.6396484375
vt 0.6923828125 0.6396484375
vt 0.90625 0.90625
vt 0.814453125 0.90625
vt 0.814453125 0.998046875
vt 0.90625 0.998046875
vt 0.578125 0.90234375
vt 0.578125 0.810546875
vt 0.486328125 0.810546875
vt 0.486328125 0.90234375
vt 0.001953125 0.998046875
vt 0.09375 0.998046875
vt 0.09375 0.8603515625
vt 0.001953125 0.8603515625
vt 0.09765625 0.8603515625
vt 0.09765625 0.998046875
vt 0.189453125 0.998046875
vt 0.189453125 0.8603515625
vt 0.7197265625 0.90234375
vt 0.7197265625 0.810546875
vt 0.58203125 0.810546875
vt 0.58203125 0.90234375
vt 0.861328125 0.810546875
vt 0.7236328125 0.810546875
vt 0.7236328125 0.90234375
vt 0.861328125 0.90234375
vt 0.990234375 0.703125
vt 0.8984375 0.703125
vt 0.8984375 0.75390625
vt 0.990234375 0.75390625
vt 0.4296875 0.75
vt 0.4296875 0.69921875
vt 0.337890625 0.69921875
vt 0.337890625 0.75
vt 0.81640625 0.7431640625
vt 0.81640625 0.6953125
vt 0.6787109375 0.6953125
vt 0.6787109375 0.7431640625
vt 0.189453125 0.6787109375
vt 0.0517578125 0.6787109375
vt 0.0517578125 0.7265625
vt 0.189453125 0.7265625
vt 0.2236328125 0.6982421875
vt 0.2236328125 0.7490234375
vt 0.3154296875 0.7490234375
vt 0.3154296875 0.6982421875
vt 0.43359375 0.7431640625
vt 0.525390625 0.7431640625
vt 0.525390625 0.6923828125
vt 0.43359375 0.6923828125
vt 0.8203125 0.69921875
vt 0.9580078125 0.69921875
vt 0.9580078125 0.6513671875
vt 0.8203125 0.6513671875
vt 0.193359375 0.646484375
vt 0.193359375 0.6943359375
vt 0.3310546875 0.6943359375
vt 0.3310546875 0.646484375
vt 0.91015625 0.998046875
vt 0.9375 0.998046875
vt 0.9375 0.90625
vt 0.91015625 0.90625
vt 0.94140625 0.90625
vt 0.94140625 0.998046875
vt 0.96875 0.998046875
vt 0.96875 0.90625
vt 0.865234375 0.810546875
vt 0.865234375 0.90234375
vt 0.892578125 0.90234375
vt 0.892578125 0.810546875
vt 0.896484375 0.90234375
vt 0.923828125 0.90234375
vt 0.923828125 0.810546875
vt 0.896484375 0.810546875
vt 0.0103665865 0.7177734375
vt 0.029296875 0.669921875
vt 0.001953125 0.669921875
vt 0.980844351 0.69921875
vt 0.9892578125 0.6513671875
vt 0.9619140625 0.6513671875
vt 0.353891226 0.6953125
vt 0.3623046875 0.6474609375
vt 0.3349609375 0.6474609375
vt 0.374624399 0.6953125
vt 0.3935546875 0.6474609375
vt 0.3662109375 0.6474609375
vt 0.405874399 0.6474609375
vt 0.3974609375 0.6953125
vt 0.4248046875 0.6953125
vt 0.5482271635 0.6435546875
vt 0.529296875 0.69140625
vt 0.556640625 0.69140625
vt 0.5794771635 0.6435546875
vt 0.560546875 0.69140625
vt 0.587890625 0.69140625
vt 0.6002103365 0.6435546875
vt 0.591796875 0.69140625
vt 0.619140625 0.69140625
vt 0.4375 0.8095703125
vt 0.357421875 0.8095703125
vt 0.357421875 0.9013671875
vt 0.4375 0.9013671875
vt 0.2734375 0.8916015625
vt 0.2734375 0.7998046875
vt 0.193359375 0.7998046875
vt 0.193359375 0.8916015625
vt 0.44140625 0.806640625
vt 0.521484375 0.806640625
vt 0.521484375 0.7470703125
vt 0.44140625 0.7470703125
vt 0.525390625 0.7470703125
vt 0.525390625 0.806640625
vt 0.60546875 0.806640625
vt 0.60546875 0.7470703125
vt 0.2516152988 0.998046875
vt 0.271484375 0.9084229314
vt 0.2132284512 0.8955078125
vt 0.193359375 0.9851317561
vt 0.3336465488 0.8955078125
vt 0.275390625 0.9084229314
vt 0.2952597012 0.998046875
vt 0.353515625 0.9851317561
vt 0.8623046875 0.6005859375
vt 0.7822265625 0.6005859375
vt 0.7822265625 0.6474609375
vt 0.8623046875 0.6474609375
vt 0.9462890625 0.6474609375
vt 0.9462890625 0.6005859375
vt 0.8662109375 0.6005859375
vt 0.8662109375 0.6474609375
vt 0.6670602785 0.806640625
vt 0.677734375 0.7603974369
vt 0.6200490965 0.7470703125
vt 0.609375 0.7933130331
vt 0.7393259551 0.7470703125
vt 0.681640625 0.7603974369
vt 0.6923146699 0.806640625
vt 0.75 0.7933130331
vt 0.3349609375 0.5966796875
vt 0.3349609375 0.6435546875
vt 0.4150390625 0.6435546875
vt 0.4150390625 0.5966796875
vt 0.1875 0.642578125
vt 0.267578125 0.642578125
vt 0.267578125 0.595703125
vt 0.1875 0.595703125
vt 0.75390625 0.7933135006
vt 0.811591121 0.806640625
vt 0.822265625 0.7603979044
vt 0.764580754 0.7470703125
vt 0.826171875 0.7603979044
vt 0.8368463273 0.806640625
vt 0.89453125 0.7933135006
vt 0.8838567977 0.7470703125
vt 0.3693505038 0.998046875
vt 0.3857421875 0.9958712139
vt 0.3738135587 0.9052734375
vt 0.357421875 0.9074490986
vt 0.4015767409 0.9052734375
vt 0.3896484375 0.9958712139
vt 0.4060404466 0.998046875
vt 0.41796875 0.9074490986
vt 0.421875 0.9074490986
vt 0.4338036288 0.998046875
vt 0.4501953125 0.9958712139
vt 0.4382666837 0.9052734375
vt 0.4541015625 0.9958712139
vt 0.4704935716 0.998046875
vt 0.482421875 0.9074490986
vt 0.4660298659 0.9052734375
vt 0.6273227778 0.69140625
vt 0.6396484375 0.6458529762
vt 0.623046875 0.6435546875
vt 0.505859375 0.6884765625
vt 0.5224609375 0.6437497475
vt 0.5059914308 0.6416015625
vt 0.655880918 0.69140625
vt 0.66015625 0.6435546875
vt 0.6435546875 0.6458529762
vt 0.0185546875 0.666015625
vt 0.0184226254 0.619140625
vt 0.001953125 0.62128881
vt 0.966796875 0.6005859375
vt 0.9501953125 0.6453127525
vt 0.9666651035 0.6474609375
vt 0.6763878345 0.6435546875
vt 0.6640625 0.6891079613
vt 0.6806640625 0.69140625
vt 0.970703125 0.6005859375
vt 0.9708349027 0.6474609375
vt 0.9873046875 0.6453127525
vt 0.6888459698 0.6435546875
vt 0.6845703125 0.69140625
vt 0.701171875 0.6891079613
vt 0.9736328125 0.83203125
vt 0.927734375 0.83203125
vt 0.927734375 0.90234375
vt 0.9736328125 0.90234375
vt 0.123046875 0.8564453125
vt 0.123046875 0.7861328125
vt 0.0771484375 0.7861328125
vt 0.0771484375 0.8564453125
vt 0.4189453125 0.6376953125
vt 0.46484375 0.6376953125
vt 0.46484375 0.591796875
vt 0.4189453125 0.591796875
vt 0.46875 0.591796875
vt 0.46875 0.6376953125
vt 0.5146484375 0.6376953125
vt 0.5146484375 0.591796875
vt 0.318911832 0.8916015625
vt 0.3486328125 0.8279506118
vt 0.3070652197 0.80859375
vt 0.27734375 0.8722442122
vt 0.0435207178 0.7734375
vt 0.001953125 0.7927943618
vt 0.0316741055 0.8564453125
vt 0.0732421875 0.8370879622
vt 0.068359375 0.587890625
vt 0.0224609375 0.587890625
vt 0.0224609375 0.6240234375
vt 0.068359375 0.6240234375
vt 0.1181640625 0.6240234375
vt 0.1181640625 0.587890625
vt 0.072265625 0.587890625
vt 0.072265625 0.6240234375
vt 0.3937501437 0.8056640625
vt 0.4091796875 0.7734807575
vt 0.3679681213 0.75390625
vt 0.3525390625 0.7860895636
vt 0.3185553162 0.7529296875
vt 0.27734375 0.772504195
vt 0.2927732938 0.8046875
vt 0.333984375 0.7851130011
vt 0.1220703125 0.587890625
vt 0.1220703125 0.6240234375
vt 0.16796875 0.6240234375
vt 0.16796875 0.587890625
vt 0.7822265625 0.5966796875
vt 0.828125 0.5966796875
vt 0.828125 0.560546875
vt 0.7822265625 0.560546875
vt 0.1630859375 0.7763236314
vt 0.2042970082 0.7958984375
vt 0.2197265625 0.7637154397
vt 0.1785150068 0.744140625
vt 0.0771484375 0.7500435647
vt 0.0925779918 0.7822265625
vt 0.1337890625 0.7626517564
vt 0.1183599932 0.73046875
vt 0.463385858 0.9013671875
vt 0.4736328125 0.8979754832
vt 0.4516532045 0.8310546875
vt 0.44140625 0.8344463918
vt 0.148932733 0.7861328125
vt 0.126953125 0.8530536082
vt 0.1372000795 0.8564453125
vt 0.1591796875 0.7895245168
vt 0.927734375 0.761204695
vt 0.949714158 0.828125
vt 0.9599609375 0.8247332728
vt 0.9379811545 0.7578125
vt 0.9638671875 0.8247332728
vt 0.974113967 0.828125
vt 0.99609375 0.761204695
vt 0.9858469705 0.7578125
vt 0.001953125 0.615234375
vt 0.0185546875 0.5836417289
vt 0.0085323964 0.580078125
vt 0.83203125 0.5966796875
vt 0.84765625 0.564759063
vt 0.8375421029 0.5615234375
vt 0.8681640625 0.5966796875
vt 0.8615847911 0.5615234375
vt 0.8515625 0.5650870414
vt 0.8876953125 0.5966796875
vt 0.8821844596 0.5615234375
vt 0.8720703125 0.564759063
vt 0.9072265625 0.5615234375
vt 0.8916015625 0.593444062
vt 0.9017154786 0.5966796875
vt 0.927734375 0.5615234375
vt 0.9111328125 0.5931155439
vt 0.9211551472 0.5966796875
vt 0.931640625 0.5615234375
vt 0.9371517089 0.5966796875
vt 0.947265625 0.593444062
vt 0.951171875 0.5615234375
vt 0.9577511028 0.5966796875
vt 0.9677734375 0.5931155439
vn 0 0 -1
vn 0 0 1
vn 0 1 0
vn 0 -1 0
vn 1 0 0
vn -1 0 0
vn 0 0.164399 -0.986394
vn 0 0.164399 0.986394
vn 0.966235 0.257663 0
vn -0.966235 0.257663 0
vn 0 -0.164399 -0.986394
vn 0 -0.164399 0.986394
vn 0.966235 -0.257663 0
vn -0.966235 -0.257663 0
vn -0.529999 0 -0.847998
vn 0.529999 0 -0.847998
vn -0.529999 0 0.847998
vn 0.529999 0 0.847998
vn 0.524784 -0.139942 -0.839654
vn 0.524784 -0.139942 0.839654
vn -0.524784 -0.139942 -0.839654
vn -0.524784 -0.139942 0.839654
vn 0.524784 0.139942 -0.839654
vn 0.524784 0.139942 0.839654
vn -0.524784 0.139942 -0.839654
vn -0.524784 0.139942 0.839654
vn 0 0 -1
vn 0 0 1
vn 0 1 0
vn 0 -1 0
vn 1 0 0
vn -1 0 0
vn 0 0.447214 -0.894427
vn 0 0.447214 0.894427
vn 0.948683 0.316228 0
vn -0.948683 0.316228 0
vn 0 -0.447214 -0.894427
vn 0 -0.447214 0.894427
vn 0.948683 -0.316228 0
vn -0.948683 -0.316228 0
vn -0.83205 0 -0.5547
vn 0.83205 0 -0.5547
vn -0.83205 0 0.5547
vn 0.83205 0 0.5547
vn 0.801784 -0.267261 -0.534522
vn 0.801784 -0.267261 0.534522
vn -0.801784 -0.267261 -0.534522
vn -0.801784 -0.267261 0.534522
vn 0.801784 0.267261 -0.534522
vn 0.801784 0.267261 0.534522
vn -0.801784 0.267261 -0.534522
vn -0.801784 0.267261 0.534522
vn 0 -0.21644 -0.976296
vn 0 0.21644 0.976296
vn 0 0.976296 -0.21644
vn 0 -0.976296 0.21644
vn 1 0 0
vn -1 0 0
vn 0 -0.004797 -0.999988
vn 0 0.418265 0.908325
vn 0.96 0.273363 -0.060603
vn -0.96 0.273363 -0.060603
vn 0 -0.418265 -0.908325
vn 0 0.004797 0.999988
vn 0.96 -0.273363 0.060603
vn -0.96 -0.273363 0.060603
vn -0.596324 -0.173746 -0.783716
vn 0.596324 -0.173746 -0.783716
vn -0.596324 0.173746 0.783716
vn 0.596324 0.173746 0.783716
vn 0.587504 -0.338469 -0.735036
vn 0.587504 0.003882 0.809212
vn -0.587504 -0.338469 -0.735036
vn -0.587504 0.003882 0.809212
vn 0.587504 -0.003882 -0.809212
vn 0.587504 0.338469 0.735036
vn -0.587504 -0.003882 -0.809212
vn -0.587504 0.338469 0.735036
vn 0 -0.422618 -0.906308
vn 0 0.422618 0.906308
vn 0 0.906308 -0.422618
vn 0 -0.906308 0.422618
vn 1 0 0
vn -1 0 0
vn 0 -0.220446 -0.975399
vn 0 0.605499 0.795846
vn 0.977176 0.192527 -0.089777
vn -0.977176 0.192527 -0.089777
vn 0 -0.605499 -0.795846
vn 0 0.220446 0.975399
vn 0.977176 -0.192527 0.089777
vn -0.977176 -0.192527 0.089777
vn -0.707107 -0.298836 -0.640856
vn 0.707107 -0.298836 -0.640856
vn -0.707107 0.298836 0.640856
vn 0.707107 0.298836 0.640856
vn 0.698898 -0.433066 -0.569206
vn 0.698898 0.157668 0.697627
vn -0.698898 -0.433066 -0.569206
vn -0.698898 0.157668 0.697627
vn 0.698898 -0.157668 -0.697627
vn 0.698898 0.433066 0.569206
vn -0.698898 -0.157668 -0.697627
vn -0.698898 0.433066 0.569206
o beveled_cuboid
usemtl m_6be7eca0-1d69-67c6-08f2-885ad8fb8168
f 16/1/1 14/2/1 13/3/1 15/4/1
f 9/5/2 10/6/2 12/7/2 11/8/2
f 1/9/3 2/10/3 4/11/3 3/12/3
f 8/13/4 6/14/4 5/15/4 7/16/4
f 21/17/5 22/18/5 24/19/5 23/20/5
f 20/21/6 18/22/6 17/23/6 19/24/6
f 2/25/7 1/26/7 14/27/7 16/28/7
f 10/29/8 3/30/8 4/31/8 12/32/8
f 22/33/9 1/34/9 3/35/9 24/36/9
f 4/37/10 2/38/10 18/39/10 20/40/10
f 13/41/11 5/42/11 6/43/11 15/44/11
f 8/45/12 7/46/12 9/47/12 11/48/12
f 7/49/13 5/50/13 21/51/13 23/52/13
f 17/53/14 6/54/14 8/55/14 19/56/14
f 15/57/15 17/58/15 18/59/15 16/60/15
f 22/61/16 21/62/16 13/63/16 14/64/16
f 20/65/17 19/66/17 11/67/17 12/68/17
f 9/69/18 23/70/18 24/71/18 10/72/18
f 5/73/19 13/74/19 21/75/19
f 7/76/20 23/77/20 9/78/20
f 6/79/21 17/80/21 15/81/21
f 8/82/22 11/83/22 19/84/22
f 1/85/23 22/86/23 14/87/23
f 3/88/24 10/89/24 24/90/24
f 2/91/25 16/92/25 18/93/25
f 4/94/26 20/95/26 12/96/26
f 40/97/27 38/98/27 37/99/27 39/100/27
f 33/101/28 34/102/28 36/103/28 35/104/28
f 25/105/29 26/106/29 28/107/29 27/108/29
f 32/109/30 30/110/30 29/111/30 31/112/30
f 45/113/31 46/114/31 48/115/31 47/116/31
f 44/117/32 42/118/32 41/119/32 43/120/32
f 26/121/33 25/122/33 38/123/33 40/124/33
f 34/125/34 27/126/34 28/127/34 36/128/34
f 46/129/35 25/130/35 27/131/35 48/132/35
f 28/133/36 26/134/36 42/135/36 44/136/36
f 37/137/37 29/138/37 30/139/37 39/140/37
f 32/141/38 31/142/38 33/143/38 35/144/38
f 31/145/39 29/146/39 45/147/39 47/148/39
f 41/149/40 30/150/40 32/151/40 43/152/40
f 39/153/41 41/154/41 42/155/41 40/156/41
f 46/157/42 45/158/42 37/159/42 38/160/42
f 44/161/43 43/162/43 35/163/43 36/164/43
f 33/165/44 47/166/44 48/167/44 34/168/44
f 29/169/45 37/170/45 45/171/45
f 31/172/46 47/173/46 33/174/46
f 30/175/47 41/176/47 39/177/47
f 32/178/48 35/179/48 43/180/48
f 25/181/49 46/182/49 38/183/49
f 27/184/50 34/185/50 48/186/50
f 26/187/51 40/188/51 42/189/51
f 28/190/52 44/191/52 36/192/52
f 64/193/53 62/194/53 61/195/53 63/196/53
f 57/197/54 58/198/54 60/199/54 59/200/54
f 49/201/55 50/202/55 52/203/55 51/204/55
f 56/205/56 54/206/56 53/207/56 55/208/56
f 69/209/57 70/210/57 72/211/57 71/212/57
f 68/213/58 66/214/58 65/215/58 67/216/58
f 50/217/59 49/218/59 62/219/59 64/220/59
f 58/221/60 51/222/60 52/223/60 60/224/60
f 70/225/61 49/226/61 51/227/61 72/228/61
f 52/229/62 50/230/62 66/231/62 68/232/62
f 61/233/63 53/234/63 54/235/63 63/236/63
f 56/237/64 55/238/64 57/239/64 59/240/64
f 55/241/65 53/242/65 69/243/65 71/244/65
f 65/245/66 54/246/66 56/247/66 67/248/66
f 63/249/67 65/250/67 66/251/67 64/252/67
f 70/253/68 69/254/68 61/255/68 62/256/68
f 68/257/69 67/258/69 59/259/69 60/260/69
f 57/261/70 71/262/70 72/263/70 58/264/70
f 53/265/71 61/266/71 69/267/71
f 55/268/72 71/269/72 57/270/72
f 54/271/73 65/272/73 63/273/73
f 56/274/74 59/275/74 67/276/74
f 49/277/75 70/278/75 62/279/75
f 51/280/76 58/281/76 72/282/76
f 50/283/77 64/284/77 66/285/77
f 52/286/78 68/287/78 60/288/78
f 88/289/79 86/290/79 85/291/79 87/292/79
f 81/293/80 82/294/80 84/295/80 83/296/80
f 73/297/81 74/298/81 76/299/81 75/300/81
f 80/301/82 78/302/82 77/303/82 79/304/82
f 93/305/83 94/306/83 96/307/83 95/308/83
f 92/309/84 90/310/84 89/311/84 91/312/84
f 74/313/85 73/314/85 86/315/85 88/316/85
f 82/317/86 75/318/86 76/319/86 84/320/86
f 94/321/87 73/322/87 75/323/87 96/324/87
f 76/325/88 74/326/88 90/327/88 92/328/88
f 85/329/89 77/330/89 78/331/89 87/332/89
f 80/333/90 79/334/90 81/335/90 83/336/90
f 79/337/91 77/338/91 93/339/91 95/340/91
f 89/341/92 78/342/92 80/343/92 91/344/92
f 87/345/93 89/346/93 90/347/93 88/348/93
f 94/349/94 93/350/94 85/351/94 86/352/94
f 92/353/95 91/354/95 83/355/95 84/356/95
f 81/357/96 95/358/96 96/359/96 82/360/96
f 77/361/97 85/362/97 93/363/97
f 79/364/98 95/365/98 81/366/98
f 78/367/99 89/368/99 87/369/99
f 80/370/100 83/371/100 91/372/100
f 73/373/101 94/374/101 86/375/101
f 75/376/102 82/377/102 96/378/102
f 74/379/103 88/380/103 90/381/103
f 76/382/104 92/383/104 84/384/104
