# Made in Blockbench 5.1.6
mtllib nbt_viewer.mtl
o beveled_cuboid

v 0.695 0.875 0.5375
v 0.695 0.875 0.4625
v 0.305 0.875 0.5375
v 0.305 0.875 0.4625
v 0.695 0.125 0.5375
v 0.695 0.125 0.4625
v 0.305 0.125 0.5375
v 0.305 0.125 0.4625
v 0.175 0.275 0.5375
v 0.175 0.725 0.5375
v 0.175 0.275 0.4625
v 0.175 0.725 0.4625
v 0.825 0.275 0.5375
v 0.825 0.725 0.5375
v 0.825 0.275 0.4625
v 0.825 0.725 0.4625
v 0.695 0.275 0.4375
v 0.695 0.725 0.4375
v 0.305 0.275 0.4375
v 0.305 0.725 0.4375
v 0.695 0.275 0.5625
v 0.695 0.725 0.5625
v 0.305 0.275 0.5625
v 0.305 0.725 0.5625
vt 0.060546875 0.646484375
vt 0.001953125 0.646484375
vt 0.001953125 0.998046875
vt 0.060546875 0.998046875
vt 0.123046875 0.998046875
vt 0.123046875 0.646484375
vt 0.064453125 0.646484375
vt 0.064453125 0.998046875
vt 0.5390625 0.21484375
vt 0.5390625 0.2734375
vt 0.84375 0.2734375
vt 0.84375 0.21484375
vt 0.5390625 0.2109375
vt 0.84375 0.2109375
vt 0.84375 0.15234375
vt 0.5390625 0.15234375
vt 0.431640625 0.998046875
vt 0.431640625 0.646484375
vt 0.126953125 0.646484375
vt 0.126953125 0.998046875
vt 0.740234375 0.646484375
vt 0.435546875 0.646484375
vt 0.435546875 0.998046875
vt 0.740234375 0.998046875
vt 0.275390625 0.4873046875
vt 0.216796875 0.4873046875
vt 0.216796875 0.642578125
vt 0.275390625 0.642578125
vt 0.337890625 0.642578125
vt 0.337890625 0.4873046875
vt 0.279296875 0.4873046875
vt 0.279296875 0.642578125
vt 0.771484375 0.642578125
vt 0.771484375 0.5234375
vt 0.466796875 0.5234375
vt 0.466796875 0.642578125
vt 0.771484375 0.400390625
vt 0.466796875 0.400390625
vt 0.466796875 0.51953125
vt 0.771484375 0.51953125
vt 0.341796875 0.4873046875
vt 0.341796875 0.642578125
vt 0.400390625 0.642578125
vt 0.400390625 0.4873046875
vt 0.404296875 0.642578125
vt 0.462890625 0.642578125
vt 0.462890625 0.4873046875
vt 0.404296875 0.4873046875
vt 0.216796875 0.396484375
vt 0.521484375 0.396484375
vt 0.521484375 0.27734375
vt 0.216796875 0.27734375
vt 0.525390625 0.27734375
vt 0.525390625 0.396484375
vt 0.830078125 0.396484375
vt 0.830078125 0.27734375
vt 0.744140625 0.998046875
vt 0.84765625 0.998046875
vt 0.84765625 0.646484375
vt 0.744140625 0.646484375
vt 0.8515625 0.646484375
vt 0.8515625 0.998046875
vt 0.955078125 0.998046875
vt 0.955078125 0.646484375
vt 0.001953125 0.291015625
vt 0.001953125 0.642578125
vt 0.10546875 0.642578125
vt 0.10546875 0.291015625
vt 0.109375 0.642578125
vt 0.212890625 0.642578125
vt 0.212890625 0.291015625
vt 0.109375 0.291015625
vt 0.8376760877 0.642578125
vt 0.9375 0.5234375
vt 0.833984375 0.5234375
vt 0.9338082873 0.51953125
vt 0.9375 0.400390625
vt 0.833984375 0.400390625
vt 0.9338082873 0.396484375
vt 0.9375 0.27734375
vt 0.833984375 0.27734375
vt 0.0056448377 0.287109375
vt 0.10546875 0.16796875
vt 0.001953125 0.16796875
vt 0.1130667127 0.16796875
vt 0.109375 0.287109375
vt 0.212890625 0.287109375
vt 0.3166207873 0.154296875
vt 0.216796875 0.2734375
vt 0.3203125 0.2734375
vt 0.4240426623 0.154296875
vt 0.32421875 0.2734375
vt 0.427734375 0.2734375
vt 0.4353323377 0.154296875
vt 0.431640625 0.2734375
vt 0.53515625 0.2734375
vn 1 0 0
vn -1 0 0
vn 0 1 0
vn 0 -1 0
vn 0 0 1
vn 0 0 -1
vn 0.7556890828 0.6549305384 0
vn -0.7556890828 0.6549305384 0
vn 0 0.1643989873 0.9863939238
vn 0 0.1643989873 -0.9863939238
vn 0.7556890828 -0.6549305384 0
vn -0.7556890828 -0.6549305384 0
vn 0 -0.1643989873 0.9863939238
vn 0 -0.1643989873 -0.9863939238
vn 0.1888473937 0 -0.982006447
vn 0.1888473937 0 0.982006447
vn -0.1888473937 0 -0.982006447
vn -0.1888473937 0 0.982006447
vn 0.1863677608 -0.161518726 0.9691123562
vn -0.1863677608 -0.161518726 0.9691123562
vn 0.1863677608 -0.161518726 -0.9691123562
vn -0.1863677608 -0.161518726 -0.9691123562
vn 0.1863677608 0.161518726 0.9691123562
vn -0.1863677608 0.161518726 0.9691123562
vn 0.1863677608 0.161518726 -0.9691123562
vn -0.1863677608 0.161518726 -0.9691123562
o beveled_cuboid
usemtl m_329d73b2-7a44-77f5-4f04-f748b8611cd5
f 16/1/1 14/2/1 13/3/1 15/4/1
f 9/5/2 10/6/2 12/7/2 11/8/2
f 1/9/3 2/10/3 4/11/3 3/12/3
f 8/13/4 6/14/4 5/15/4 7/16/4
f 21/17/5 22/18/5 24/19/5 23/20/5
f 20/21/6 18/22/6 17/23/6 19/24/6
f 2/25/7 1/26/7 14/27/7 16/28/7
f 10/29/8 3/30/8 4/31/8 12/32/8
f 22/33/9 1/34/9 3/35/9 24/36/9
f 4/37/10 2/38/10 18/39/10 20/40/10
f 13/41/11 5/42/11 6/43/11 15/44/11
f 8/45/12 7/46/12 9/47/12 11/48/12
f 7/49/13 5/50/13 21/51/13 23/52/13
f 17/53/14 6/54/14 8/55/14 19/56/14
f 15/57/15 17/58/15 18/59/15 16/60/15
f 22/61/16 21/62/16 13/63/16 14/64/16
f 20/65/17 19/66/17 11/67/17 12/68/17
f 9/69/18 23/70/18 24/71/18 10/72/18
f 5/73/19 13/74/19 21/75/19
f 7/76/20 23/77/20 9/78/20
f 6/79/21 17/80/21 15/81/21
f 8/82/22 11/83/22 19/84/22
f 1/85/23 22/86/23 14/87/23
f 3/88/24 10/89/24 24/90/24
f 2/91/25 16/92/25 18/93/25
f 4/94/26 20/95/26 12/96/26
