# Made in Blockbench 5.1.6
mtllib pigeon_trap.mtl
o mesh

v 0.21875 0.21875 0.21875
v 0.21875 0.21875 0.03125
v 0.21875 0.03125 0.21875
v 0.21875 0.03125 0.03125
v 0.03125 0.21875 0.21875
v 0.03125 0.21875 0.03125
v 0.03125 0.03125 0.21875
v 0.03125 0.03125 0.03125
v 0.1875 0.8125 0.1875
v 0.1875 0.8125 0.0625
v 0.1875 0.0625 0.1875
v 0.1875 0.0625 0.0625
v 0.0625 0.8125 0.1875
v 0.0625 0.8125 0.0625
v 0.0625 0.0625 0.1875
v 0.0625 0.0625 0.0625
v 0.21875 0.96875 0.21875
v 0.21875 0.96875 0.03125
v 0.21875 0.78125 0.21875
v 0.21875 0.78125 0.03125
v 0.03125 0.96875 0.21875
v 0.03125 0.96875 0.03125
v 0.03125 0.78125 0.21875
v 0.03125 0.78125 0.03125
v 0.21875 0.21875 0.96875
v 0.21875 0.21875 0.78125
v 0.21875 0.03125 0.96875
v 0.21875 0.03125 0.78125
v 0.03125 0.21875 0.96875
v 0.03125 0.21875 0.78125
v 0.03125 0.03125 0.96875
v 0.03125 0.03125 0.78125
v 0.1875 0.8125 0.9375
v 0.1875 0.8125 0.8125
v 0.1875 0.0625 0.9375
v 0.1875 0.0625 0.8125
v 0.0625 0.8125 0.9375
v 0.0625 0.8125 0.8125
v 0.0625 0.0625 0.9375
v 0.0625 0.0625 0.8125
v 0.21875 0.96875 0.96875
v 0.21875 0.96875 0.78125
v 0.21875 0.78125 0.96875
v 0.21875 0.78125 0.78125
v 0.03125 0.96875 0.96875
v 0.03125 0.96875 0.78125
v 0.03125 0.78125 0.96875
v 0.03125 0.78125 0.78125
v 0.96875 0.21875 0.21875
v 0.96875 0.21875 0.03125
v 0.96875 0.03125 0.21875
v 0.96875 0.03125 0.03125
v 0.78125 0.21875 0.21875
v 0.78125 0.21875 0.03125
v 0.78125 0.03125 0.21875
v 0.78125 0.03125 0.03125
v 0.9375 0.8125 0.1875
v 0.9375 0.8125 0.0625
v 0.9375 0.0625 0.1875
v 0.9375 0.0625 0.0625
v 0.8125 0.8125 0.1875
v 0.8125 0.8125 0.0625
v 0.8125 0.0625 0.1875
v 0.8125 0.0625 0.0625
v 0.96875 0.96875 0.21875
v 0.96875 0.96875 0.03125
v 0.96875 0.78125 0.21875
v 0.96875 0.78125 0.03125
v 0.78125 0.96875 0.21875
v 0.78125 0.96875 0.03125
v 0.78125 0.78125 0.21875
v 0.78125 0.78125 0.03125
v 0.90625 0.8125 0.6875
v 0.90625 0.8125 0.5625
v 0.90625 0.0625 0.6875
v 0.90625 0.0625 0.5625
v 0.84375 0.8125 0.6875
v 0.84375 0.8125 0.5625
v 0.84375 0.0625 0.6875
v 0.84375 0.0625 0.5625
v 0.90625 0.8125 0.4375
v 0.90625 0.8125 0.3125
v 0.90625 0.0625 0.4375
v 0.90625 0.0625 0.3125
v 0.84375 0.8125 0.4375
v 0.84375 0.8125 0.3125
v 0.84375 0.0625 0.4375
v 0.84375 0.0625 0.3125
v 0.15625 0.8125 0.6875
v 0.15625 0.8125 0.5625
v 0.15625 0.0625 0.6875
v 0.15625 0.0625 0.5625
v 0.09375 0.8125 0.6875
v 0.09375 0.8125 0.5625
v 0.09375 0.0625 0.6875
v 0.09375 0.0625 0.5625
v 0.15625 0.8125 0.4375
v 0.15625 0.8125 0.3125
v 0.15625 0.0625 0.4375
v 0.15625 0.0625 0.3125
v 0.09375 0.8125 0.4375
v 0.09375 0.8125 0.3125
v 0.09375 0.0625 0.4375
v 0.09375 0.0625 0.3125
v 0.125 0.84375 0.4375
v 0.125 0.84375 0.5625
v 0.875 0.84375 0.4375
v 0.875 0.84375 0.5625
v 0.125 0.90625 0.4375
v 0.125 0.90625 0.5625
v 0.875 0.90625 0.4375
v 0.875 0.90625 0.5625
v 0.5625 0.85 0.125
v 0.4375 0.85 0.125
v 0.5625 0.85 0.875
v 0.4375 0.85 0.875
v 0.5625 0.9125 0.125
v 0.4375 0.9125 0.125
v 0.5625 0.9125 0.875
v 0.4375 0.9125 0.875
v 0.125 0.09375 0.4375
v 0.125 0.09375 0.5625
v 0.875 0.09375 0.4375
v 0.875 0.09375 0.5625
v 0.125 0.15625 0.4375
v 0.125 0.15625 0.5625
v 0.875 0.15625 0.4375
v 0.875 0.15625 0.5625
v 0.9375 0.8125 0.9375
v 0.9375 0.8125 0.8125
v 0.9375 0.0625 0.9375
v 0.9375 0.0625 0.8125
v 0.8125 0.8125 0.9375
v 0.8125 0.8125 0.8125
v 0.8125 0.0625 0.9375
v 0.8125 0.0625 0.8125
v 0.96875 0.21875 0.96875
v 0.96875 0.21875 0.78125
v 0.96875 0.03125 0.96875
v 0.96875 0.03125 0.78125
v 0.78125 0.21875 0.96875
v 0.78125 0.21875 0.78125
v 0.78125 0.03125 0.96875
v 0.78125 0.03125 0.78125
v 0.96875 0.96875 0.96875
v 0.96875 0.96875 0.78125
v 0.96875 0.78125 0.96875
v 0.96875 0.78125 0.78125
v 0.78125 0.96875 0.96875
v 0.78125 0.96875 0.78125
v 0.78125 0.78125 0.96875
v 0.78125 0.78125 0.78125
v 0.3125 0.8125 0.90625
v 0.4375 0.8125 0.90625
v 0.3125 0.0625 0.90625
v 0.4375 0.0625 0.90625
v 0.3125 0.8125 0.84375
v 0.4375 0.8125 0.84375
v 0.3125 0.0625 0.84375
v 0.4375 0.0625 0.84375
v 0.5625 0.8125 0.90625
v 0.6875 0.8125 0.90625
v 0.5625 0.0625 0.90625
v 0.6875 0.0625 0.90625
v 0.5625 0.8125 0.84375
v 0.6875 0.8125 0.84375
v 0.5625 0.0625 0.84375
v 0.6875 0.0625 0.84375
v 0.5625 0.1 0.125
v 0.4375 0.1 0.125
v 0.5625 0.1 0.875
v 0.4375 0.1 0.875
v 0.5625 0.1625 0.125
v 0.4375 0.1625 0.125
v 0.5625 0.1625 0.875
v 0.4375 0.1625 0.875
v 0.21875 0.21875 0.96875
v 0.21875 0.21875 0.78125
v 0.21875 0.03125 0.96875
v 0.21875 0.03125 0.78125
v 0.03125 0.21875 0.96875
v 0.03125 0.21875 0.78125
v 0.03125 0.03125 0.96875
v 0.03125 0.03125 0.78125
v 0.1875 0.8125 0.9375
v 0.1875 0.8125 0.8125
v 0.1875 0.0625 0.9375
v 0.1875 0.0625 0.8125
v 0.0625 0.8125 0.9375
v 0.0625 0.8125 0.8125
v 0.0625 0.0625 0.9375
v 0.0625 0.0625 0.8125
v 0.21875 0.96875 0.96875
v 0.21875 0.96875 0.78125
v 0.21875 0.78125 0.96875
v 0.21875 0.78125 0.78125
v 0.03125 0.96875 0.96875
v 0.03125 0.96875 0.78125
v 0.03125 0.78125 0.96875
v 0.03125 0.78125 0.78125
v 0.78125 0.96875 0.96875
v 0.78125 0.96875 0.78125
v 0.78125 0.78125 0.96875
v 0.78125 0.78125 0.78125
v 0.21875 0.96875 0.96875
v 0.21875 0.96875 0.78125
v 0.21875 0.78125 0.96875
v 0.21875 0.78125 0.78125
v 0.03125 0.21875 0.78125
v 0.21875 0.21875 0.78125
v 0.03125 0.03125 0.78125
v 0.21875 0.03125 0.78125
v 0.03125 0.21875 0.21875
v 0.21875 0.21875 0.21875
v 0.03125 0.03125 0.21875
v 0.21875 0.03125 0.21875
v 0.78125 0.21875 0.78125
v 0.96875 0.21875 0.78125
v 0.78125 0.03125 0.78125
v 0.96875 0.03125 0.78125
v 0.78125 0.21875 0.21875
v 0.96875 0.21875 0.21875
v 0.78125 0.03125 0.21875
v 0.96875 0.03125 0.21875
v 0.78125 0.96875 0.21875
v 0.78125 0.96875 0.03125
v 0.78125 0.78125 0.21875
v 0.78125 0.78125 0.03125
v 0.21875 0.96875 0.21875
v 0.21875 0.96875 0.03125
v 0.21875 0.78125 0.21875
v 0.21875 0.78125 0.03125
v 0.78125 0.21875 0.21875
v 0.78125 0.21875 0.03125
v 0.78125 0.03125 0.21875
v 0.78125 0.03125 0.03125
v 0.21875 0.21875 0.21875
v 0.21875 0.21875 0.03125
v 0.21875 0.03125 0.21875
v 0.21875 0.03125 0.03125
v 0.03125 0.96875 0.78125
v 0.21875 0.96875 0.78125
v 0.03125 0.78125 0.78125
v 0.21875 0.78125 0.78125
v 0.03125 0.96875 0.21875
v 0.21875 0.96875 0.21875
v 0.03125 0.78125 0.21875
v 0.21875 0.78125 0.21875
v 0.78125 0.96875 0.78125
v 0.96875 0.96875 0.78125
v 0.78125 0.78125 0.78125
v 0.96875 0.78125 0.78125
v 0.78125 0.96875 0.21875
v 0.96875 0.96875 0.21875
v 0.78125 0.78125 0.21875
v 0.96875 0.78125 0.21875
v 0.78125 0.21875 0.96875
v 0.78125 0.21875 0.78125
v 0.78125 0.03125 0.96875
v 0.78125 0.03125 0.78125
v 0.21875 0.21875 0.96875
v 0.21875 0.21875 0.78125
v 0.21875 0.03125 0.96875
v 0.21875 0.03125 0.78125
v 0.625 0.6875 0.125
v 0.625 0.6875 0
v 0.625 0.5625 0.125
v 0.625 0.5625 0
v 0.5 0.6875 0.125
v 0.5 0.6875 0
v 0.5 0.5625 0.125
v 0.5 0.5625 0
v 0.578125 0.615625 0.03125
v 0.578125 0.615625 -0.03125
v 0.578125 0.584375 0.03125
v 0.578125 0.584375 -0.03125
v 0.546875 0.615625 0.03125
v 0.546875 0.615625 -0.03125
v 0.546875 0.584375 0.03125
v 0.546875 0.584375 -0.03125
v 0.628125 0.6076738195 0.1251103121
v 0.628125 0.5499552429 0.0142339579
v 0.628125 0.3859211113 0.2405474654
v 0.628125 0.3282025346 0.1296711113
v 0.496875 0.6076738195 0.1251103121
v 0.496875 0.5499552429 0.0142339579
v 0.496875 0.3859211113 0.2405474654
v 0.496875 0.3282025346 0.1296711113
v 0.6625 0.599016033 0.108478859
v 0.6625 0.5586130294 0.0308654111
v 0.6625 0.3772633248 0.2239160123
v 0.6625 0.3368603211 0.1463025644
v 0.625 0.599016033 0.108478859
v 0.625 0.5586130294 0.0308654111
v 0.625 0.3772633248 0.2239160123
v 0.625 0.3368603211 0.1463025644
v 0.5 0.599016033 0.108478859
v 0.5 0.5586130294 0.0308654111
v 0.5 0.3772633248 0.2239160123
v 0.5 0.3368603211 0.1463025644
v 0.4625 0.599016033 0.108478859
v 0.4625 0.5586130294 0.0308654111
v 0.4625 0.3772633248 0.2239160123
v 0.4625 0.3368603211 0.1463025644
v 0.615625 0.4185166534 0.2220444542
v 0.615625 0.3868894742 0.2018957189
v 0.615625 0.3177729768 0.3801803503
v 0.615625 0.2861457976 0.360031615
v 0.509375 0.4185166534 0.2220444542
v 0.509375 0.3868894742 0.2018957189
v 0.509375 0.3177729768 0.3801803503
v 0.509375 0.2861457976 0.360031615
v 0.621875 0.3375 0.1875
v 0.621875 0.3375 0.125
v 0.621875 0.2375 0.1875
v 0.621875 0.2375 0.125
v 0.578125 0.3375 0.1875
v 0.578125 0.3375 0.125
v 0.578125 0.2375 0.1875
v 0.578125 0.2375 0.125
v 0.546875 0.34375 0.1875
v 0.546875 0.34375 0.125
v 0.546875 0.23125 0.1875
v 0.546875 0.23125 0.125
v 0.503125 0.34375 0.1875
v 0.503125 0.34375 0.125
v 0.503125 0.23125 0.1875
v 0.503125 0.23125 0.125
v 0.634375 0.24375 0.1875
v 0.634375 0.24375 0.05
v 0.634375 0.21875 0.1875
v 0.634375 0.21875 0.05
v 0.603125 0.24375 0.1875
v 0.603125 0.24375 0.05
v 0.603125 0.21875 0.1875
v 0.603125 0.21875 0.05
v 0.559375 0.24375 0.1875
v 0.559375 0.24375 0.05
v 0.559375 0.21875 0.1875
v 0.559375 0.21875 0.05
v 0.528125 0.24375 0.1875
v 0.528125 0.24375 0.05
v 0.528125 0.21875 0.1875
v 0.528125 0.21875 0.05
v 0.596875 0.24375 0.1875
v 0.596875 0.24375 0.05
v 0.596875 0.21875 0.1875
v 0.596875 0.21875 0.05
v 0.565625 0.24375 0.1875
v 0.565625 0.24375 0.05
v 0.565625 0.21875 0.1875
v 0.565625 0.21875 0.05
v 0.521875 0.24375 0.1875
v 0.521875 0.24375 0.05
v 0.521875 0.21875 0.1875
v 0.521875 0.21875 0.05
v 0.490625 0.24375 0.1875
v 0.490625 0.24375 0.05
v 0.490625 0.21875 0.1875
v 0.490625 0.21875 0.05
vt 0.8715820312 0.6362304688
vt 0.8256835938 0.6362304688
vt 0.8256835938 0.6821289062
vt 0.8715820312 0.6821289062
vt 0.9194335938 0.6821289062
vt 0.9194335938 0.6362304688
vt 0.8735351562 0.6362304688
vt 0.8735351562 0.6821289062
vt 0.9672851562 0.6362304688
vt 0.9213867188 0.6362304688
vt 0.9213867188 0.6821289062
vt 0.9672851562 0.6821289062
vt 0.8032226562 0.6806640625
vt 0.8032226562 0.634765625
vt 0.7573242188 0.634765625
vt 0.7573242188 0.6806640625
vt 0.4204101562 0.6748046875
vt 0.4204101562 0.62890625
vt 0.3745117188 0.62890625
vt 0.3745117188 0.6748046875
vt 0.4682617188 0.62890625
vt 0.4223632812 0.62890625
vt 0.4223632812 0.6748046875
vt 0.4682617188 0.6748046875
vt 0.03125 0.8159179688
vt 0.0009765625 0.8159179688
vt 0.0009765625 0.9990234375
vt 0.03125 0.9990234375
vt 0.0634765625 0.9990234375
vt 0.0634765625 0.8159179688
vt 0.033203125 0.8159179688
vt 0.033203125 0.9990234375
vt 0.5581054688 0.275390625
vt 0.5278320312 0.275390625
vt 0.5278320312 0.3056640625
vt 0.5581054688 0.3056640625
vt 0.5903320312 0.3056640625
vt 0.5903320312 0.275390625
vt 0.5600585938 0.275390625
vt 0.5600585938 0.3056640625
vt 0.095703125 0.9990234375
vt 0.095703125 0.8159179688
vt 0.0654296875 0.8159179688
vt 0.0654296875 0.9990234375
vt 0.1279296875 0.8159179688
vt 0.09765625 0.8159179688
vt 0.09765625 0.9990234375
vt 0.1279296875 0.9990234375
vt 0.5161132812 0.62890625
vt 0.4702148438 0.62890625
vt 0.4702148438 0.6748046875
vt 0.5161132812 0.6748046875
vt 0.5639648438 0.6748046875
vt 0.5639648438 0.62890625
vt 0.5180664062 0.62890625
vt 0.5180664062 0.6748046875
vt 0.6118164062 0.62890625
vt 0.5659179688 0.62890625
vt 0.5659179688 0.6748046875
vt 0.6118164062 0.6748046875
vt 0.6596679688 0.6748046875
vt 0.6596679688 0.62890625
vt 0.6137695312 0.62890625
vt 0.6137695312 0.6748046875
vt 0.7075195312 0.6748046875
vt 0.7075195312 0.62890625
vt 0.6616210938 0.62890625
vt 0.6616210938 0.6748046875
vt 0.7553710938 0.62890625
vt 0.7094726562 0.62890625
vt 0.7094726562 0.6748046875
vt 0.7553710938 0.6748046875
vt 0.8510742188 0.5883789062
vt 0.8051757812 0.5883789062
vt 0.8051757812 0.6342773438
vt 0.8510742188 0.6342773438
vt 0.8989257812 0.6342773438
vt 0.8989257812 0.5883789062
vt 0.8530273438 0.5883789062
vt 0.8530273438 0.6342773438
vt 0.9467773438 0.5883789062
vt 0.9008789062 0.5883789062
vt 0.9008789062 0.6342773438
vt 0.9467773438 0.6342773438
vt 0.9946289062 0.6342773438
vt 0.9946289062 0.5883789062
vt 0.9487304688 0.5883789062
vt 0.9487304688 0.6342773438
vt 0.8032226562 0.6328125
vt 0.8032226562 0.5869140625
vt 0.7573242188 0.5869140625
vt 0.7573242188 0.6328125
vt 0.046875 0.5830078125
vt 0.0009765625 0.5830078125
vt 0.0009765625 0.62890625
vt 0.046875 0.62890625
vt 0.16015625 0.8159179688
vt 0.1298828125 0.8159179688
vt 0.1298828125 0.9990234375
vt 0.16015625 0.9990234375
vt 0.1923828125 0.9990234375
vt 0.1923828125 0.8159179688
vt 0.162109375 0.8159179688
vt 0.162109375 0.9990234375
vt 0.6225585938 0.2690429688
vt 0.5922851562 0.2690429688
vt 0.5922851562 0.2993164062
vt 0.6225585938 0.2993164062
vt 0.6547851562 0.2993164062
vt 0.6547851562 0.2690429688
vt 0.6245117188 0.2690429688
vt 0.6245117188 0.2993164062
vt 0.224609375 0.9990234375
vt 0.224609375 0.8159179688
vt 0.1943359375 0.8159179688
vt 0.1943359375 0.9990234375
vt 0.2568359375 0.8159179688
vt 0.2265625 0.8159179688
vt 0.2265625 0.9990234375
vt 0.2568359375 0.9990234375
vt 0.0947265625 0.5830078125
vt 0.048828125 0.5830078125
vt 0.048828125 0.62890625
vt 0.0947265625 0.62890625
vt 0.142578125 0.62890625
vt 0.142578125 0.5830078125
vt 0.0966796875 0.5830078125
vt 0.0966796875 0.62890625
vt 0.1904296875 0.5830078125
vt 0.14453125 0.5830078125
vt 0.14453125 0.62890625
vt 0.1904296875 0.62890625
vt 0.23828125 0.62890625
vt 0.23828125 0.5830078125
vt 0.1923828125 0.5830078125
vt 0.1923828125 0.62890625
vt 0.2861328125 0.62890625
vt 0.2861328125 0.5830078125
vt 0.240234375 0.5830078125
vt 0.240234375 0.62890625
vt 0.333984375 0.5830078125
vt 0.2880859375 0.5830078125
vt 0.2880859375 0.62890625
vt 0.333984375 0.62890625
vt 0.3818359375 0.5810546875
vt 0.3359375 0.5810546875
vt 0.3359375 0.626953125
vt 0.3818359375 0.626953125
vt 0.4296875 0.626953125
vt 0.4296875 0.5810546875
vt 0.3837890625 0.5810546875
vt 0.3837890625 0.626953125
vt 0.4775390625 0.5810546875
vt 0.431640625 0.5810546875
vt 0.431640625 0.626953125
vt 0.4775390625 0.626953125
vt 0.525390625 0.626953125
vt 0.525390625 0.5810546875
vt 0.4794921875 0.5810546875
vt 0.4794921875 0.626953125
vt 0.5732421875 0.626953125
vt 0.5732421875 0.5810546875
vt 0.52734375 0.5810546875
vt 0.52734375 0.626953125
vt 0.62109375 0.5810546875
vt 0.5751953125 0.5810546875
vt 0.5751953125 0.626953125
vt 0.62109375 0.626953125
vt 0.2890625 0.8159179688
vt 0.2587890625 0.8159179688
vt 0.2587890625 0.9990234375
vt 0.2890625 0.9990234375
vt 0.3212890625 0.9990234375
vt 0.3212890625 0.8159179688
vt 0.291015625 0.8159179688
vt 0.291015625 0.9990234375
vt 0.6870117188 0.2690429688
vt 0.6567382812 0.2690429688
vt 0.6567382812 0.2993164062
vt 0.6870117188 0.2993164062
vt 0.7192382812 0.2993164062
vt 0.7192382812 0.2690429688
vt 0.6889648438 0.2690429688
vt 0.6889648438 0.2993164062
vt 0.353515625 0.9990234375
vt 0.353515625 0.8159179688
vt 0.3232421875 0.8159179688
vt 0.3232421875 0.9990234375
vt 0.3857421875 0.8159179688
vt 0.35546875 0.8159179688
vt 0.35546875 0.9990234375
vt 0.3857421875 0.9990234375
vt 0.6689453125 0.5810546875
vt 0.623046875 0.5810546875
vt 0.623046875 0.626953125
vt 0.6689453125 0.626953125
vt 0.716796875 0.626953125
vt 0.716796875 0.5810546875
vt 0.6708984375 0.5810546875
vt 0.6708984375 0.626953125
vt 0.8510742188 0.5405273438
vt 0.8051757812 0.5405273438
vt 0.8051757812 0.5864257812
vt 0.8510742188 0.5864257812
vt 0.8989257812 0.5864257812
vt 0.8989257812 0.5405273438
vt 0.8530273438 0.5405273438
vt 0.8530273438 0.5864257812
vt 0.9467773438 0.5864257812
vt 0.9467773438 0.5405273438
vt 0.9008789062 0.5405273438
vt 0.9008789062 0.5864257812
vt 0.9946289062 0.5405273438
vt 0.9487304688 0.5405273438
vt 0.9487304688 0.5864257812
vt 0.9946289062 0.5864257812
vt 0.41796875 0.8159179688
vt 0.3876953125 0.8159179688
vt 0.3876953125 0.9990234375
vt 0.41796875 0.9990234375
vt 0.4501953125 0.9990234375
vt 0.4501953125 0.8159179688
vt 0.419921875 0.8159179688
vt 0.419921875 0.9990234375
vt 0.9990234375 0.2944335938
vt 0.9838867188 0.2944335938
vt 0.9838867188 0.3247070312
vt 0.9990234375 0.3247070312
vt 0.4892578125 0.3041992188
vt 0.4892578125 0.2739257812
vt 0.4741210938 0.2739257812
vt 0.4741210938 0.3041992188
vt 0.4672851562 0.9990234375
vt 0.4672851562 0.8159179688
vt 0.4521484375 0.8159179688
vt 0.4521484375 0.9990234375
vt 0.484375 0.8159179688
vt 0.4692382812 0.8159179688
vt 0.4692382812 0.9990234375
vt 0.484375 0.9990234375
vt 0.5166015625 0.8159179688
vt 0.486328125 0.8159179688
vt 0.486328125 0.9990234375
vt 0.5166015625 0.9990234375
vt 0.548828125 0.9990234375
vt 0.548828125 0.8159179688
vt 0.5185546875 0.8159179688
vt 0.5185546875 0.9990234375
vt 0.736328125 0.2690429688
vt 0.7211914062 0.2690429688
vt 0.7211914062 0.2993164062
vt 0.736328125 0.2993164062
vt 0.7534179688 0.2993164062
vt 0.7534179688 0.2690429688
vt 0.73828125 0.2690429688
vt 0.73828125 0.2993164062
vt 0.5659179688 0.9990234375
vt 0.5659179688 0.8159179688
vt 0.55078125 0.8159179688
vt 0.55078125 0.9990234375
vt 0.5830078125 0.8159179688
vt 0.5678710938 0.8159179688
vt 0.5678710938 0.9990234375
vt 0.5830078125 0.9990234375
vt 0.615234375 0.8159179688
vt 0.5849609375 0.8159179688
vt 0.5849609375 0.9990234375
vt 0.615234375 0.9990234375
vt 0.6474609375 0.9990234375
vt 0.6474609375 0.8159179688
vt 0.6171875 0.8159179688
vt 0.6171875 0.9990234375
vt 0.7705078125 0.2690429688
vt 0.7553710938 0.2690429688
vt 0.7553710938 0.2993164062
vt 0.7705078125 0.2993164062
vt 0.7875976562 0.2993164062
vt 0.7875976562 0.2690429688
vt 0.7724609375 0.2690429688
vt 0.7724609375 0.2993164062
vt 0.6645507812 0.9990234375
vt 0.6645507812 0.8159179688
vt 0.6494140625 0.8159179688
vt 0.6494140625 0.9990234375
vt 0.681640625 0.8159179688
vt 0.6665039062 0.8159179688
vt 0.6665039062 0.9990234375
vt 0.681640625 0.9990234375
vt 0.7138671875 0.8159179688
vt 0.68359375 0.8159179688
vt 0.68359375 0.9990234375
vt 0.7138671875 0.9990234375
vt 0.74609375 0.9990234375
vt 0.74609375 0.8159179688
vt 0.7158203125 0.8159179688
vt 0.7158203125 0.9990234375
vt 0.8046875 0.2690429688
vt 0.7895507812 0.2690429688
vt 0.7895507812 0.2993164062
vt 0.8046875 0.2993164062
vt 0.8217773438 0.2993164062
vt 0.8217773438 0.2690429688
vt 0.806640625 0.2690429688
vt 0.806640625 0.2993164062
vt 0.7631835938 0.9990234375
vt 0.7631835938 0.8159179688
vt 0.748046875 0.8159179688
vt 0.748046875 0.9990234375
vt 0.7802734375 0.8159179688
vt 0.7651367188 0.8159179688
vt 0.7651367188 0.9990234375
vt 0.7802734375 0.9990234375
vt 0.0009765625 0.26171875
vt 0.0009765625 0.2919921875
vt 0.1840820312 0.2919921875
vt 0.1840820312 0.26171875
vt 0.1860351562 0.2919921875
vt 0.369140625 0.2919921875
vt 0.369140625 0.26171875
vt 0.1860351562 0.26171875
vt 0.0927734375 0.2446289062
vt 0.0927734375 0.259765625
vt 0.123046875 0.259765625
vt 0.123046875 0.2446289062
vt 0.125 0.259765625
vt 0.1552734375 0.259765625
vt 0.1552734375 0.2446289062
vt 0.125 0.2446289062
vt 0.1572265625 0.259765625
vt 0.3403320312 0.259765625
vt 0.3403320312 0.2446289062
vt 0.1572265625 0.2446289062
vt 0.0927734375 0.2275390625
vt 0.0927734375 0.2426757812
vt 0.2758789062 0.2426757812
vt 0.2758789062 0.2275390625
vt 0.7822265625 0.9990234375
vt 0.8125 0.9990234375
vt 0.8125 0.8159179688
vt 0.7822265625 0.8159179688
vt 0.814453125 0.8159179688
vt 0.814453125 0.9990234375
vt 0.8447265625 0.9990234375
vt 0.8447265625 0.8159179688
vt 0.2778320312 0.2275390625
vt 0.2778320312 0.2426757812
vt 0.3081054688 0.2426757812
vt 0.3081054688 0.2275390625
vt 0.3100585938 0.2426757812
vt 0.3403320312 0.2426757812
vt 0.3403320312 0.2275390625
vt 0.3100585938 0.2275390625
vt 0.3422851562 0.2397460938
vt 0.525390625 0.2397460938
vt 0.525390625 0.224609375
vt 0.3422851562 0.224609375
vt 0.52734375 0.2197265625
vt 0.52734375 0.2348632812
vt 0.7104492188 0.2348632812
vt 0.7104492188 0.2197265625
vt 0.37109375 0.2416992188
vt 0.37109375 0.2719726562
vt 0.5541992188 0.2719726562
vt 0.5541992188 0.2416992188
vt 0.5561523438 0.2670898438
vt 0.7392578125 0.2670898438
vt 0.7392578125 0.2368164062
vt 0.5561523438 0.2368164062
vt 0.0478515625 0.2211914062
vt 0.0478515625 0.236328125
vt 0.078125 0.236328125
vt 0.078125 0.2211914062
vt 0.7124023438 0.2348632812
vt 0.7426757812 0.2348632812
vt 0.7426757812 0.2197265625
vt 0.7124023438 0.2197265625
vt 0.7446289062 0.2348632812
vt 0.927734375 0.2348632812
vt 0.927734375 0.2197265625
vt 0.7446289062 0.2197265625
vt 0.080078125 0.2104492188
vt 0.080078125 0.2255859375
vt 0.2631835938 0.2255859375
vt 0.2631835938 0.2104492188
vt 0.876953125 0.8159179688
vt 0.8466796875 0.8159179688
vt 0.8466796875 0.9990234375
vt 0.876953125 0.9990234375
vt 0.9091796875 0.9990234375
vt 0.9091796875 0.8159179688
vt 0.87890625 0.8159179688
vt 0.87890625 0.9990234375
vt 0.8540039062 0.2690429688
vt 0.8237304688 0.2690429688
vt 0.8237304688 0.2993164062
vt 0.8540039062 0.2993164062
vt 0.8862304688 0.2993164062
vt 0.8862304688 0.2690429688
vt 0.8559570312 0.2690429688
vt 0.8559570312 0.2993164062
vt 0.94140625 0.9990234375
vt 0.94140625 0.8159179688
vt 0.9111328125 0.8159179688
vt 0.9111328125 0.9990234375
vt 0.9736328125 0.8159179688
vt 0.943359375 0.8159179688
vt 0.943359375 0.9990234375
vt 0.9736328125 0.9990234375
vt 0.7646484375 0.5390625
vt 0.71875 0.5390625
vt 0.71875 0.5849609375
vt 0.7646484375 0.5849609375
vt 0.046875 0.5810546875
vt 0.046875 0.53515625
vt 0.0009765625 0.53515625
vt 0.0009765625 0.5810546875
vt 0.0947265625 0.53515625
vt 0.048828125 0.53515625
vt 0.048828125 0.5810546875
vt 0.0947265625 0.5810546875
vt 0.142578125 0.5810546875
vt 0.142578125 0.53515625
vt 0.0966796875 0.53515625
vt 0.0966796875 0.5810546875
vt 0.1904296875 0.5810546875
vt 0.1904296875 0.53515625
vt 0.14453125 0.53515625
vt 0.14453125 0.5810546875
vt 0.23828125 0.53515625
vt 0.1923828125 0.53515625
vt 0.1923828125 0.5810546875
vt 0.23828125 0.5810546875
vt 0.2861328125 0.53515625
vt 0.240234375 0.53515625
vt 0.240234375 0.5810546875
vt 0.2861328125 0.5810546875
vt 0.333984375 0.5810546875
vt 0.333984375 0.53515625
vt 0.2880859375 0.53515625
vt 0.2880859375 0.5810546875
vt 0.3818359375 0.533203125
vt 0.3359375 0.533203125
vt 0.3359375 0.5791015625
vt 0.3818359375 0.5791015625
vt 0.4296875 0.5791015625
vt 0.4296875 0.533203125
vt 0.3837890625 0.533203125
vt 0.3837890625 0.5791015625
vt 0.4775390625 0.5791015625
vt 0.4775390625 0.533203125
vt 0.431640625 0.533203125
vt 0.431640625 0.5791015625
vt 0.525390625 0.533203125
vt 0.4794921875 0.533203125
vt 0.4794921875 0.5791015625
vt 0.525390625 0.5791015625
vt 0.03125 0.630859375
vt 0.0009765625 0.630859375
vt 0.0009765625 0.8139648438
vt 0.03125 0.8139648438
vt 0.0634765625 0.8139648438
vt 0.0634765625 0.630859375
vt 0.033203125 0.630859375
vt 0.033203125 0.8139648438
vt 0.03125 0.2333984375
vt 0.03125 0.2182617188
vt 0.0009765625 0.2182617188
vt 0.0009765625 0.2333984375
vt 0.9599609375 0.2158203125
vt 0.9296875 0.2158203125
vt 0.9296875 0.2309570312
vt 0.9599609375 0.2309570312
vt 0.9907226562 0.9990234375
vt 0.9907226562 0.8159179688
vt 0.9755859375 0.8159179688
vt 0.9755859375 0.9990234375
vt 0.0805664062 0.630859375
vt 0.0654296875 0.630859375
vt 0.0654296875 0.8139648438
vt 0.0805664062 0.8139648438
vt 0.1127929688 0.630859375
vt 0.0825195312 0.630859375
vt 0.0825195312 0.8139648438
vt 0.1127929688 0.8139648438
vt 0.1450195312 0.8139648438
vt 0.1450195312 0.630859375
vt 0.1147460938 0.630859375
vt 0.1147460938 0.8139648438
vt 0.9921875 0.2309570312
vt 0.9921875 0.2158203125
vt 0.9619140625 0.2158203125
vt 0.9619140625 0.2309570312
vt 0.2954101562 0.2104492188
vt 0.2651367188 0.2104492188
vt 0.2651367188 0.2255859375
vt 0.2954101562 0.2255859375
vt 0.162109375 0.8139648438
vt 0.162109375 0.630859375
vt 0.1469726562 0.630859375
vt 0.1469726562 0.8139648438
vt 0.1791992188 0.630859375
vt 0.1640625 0.630859375
vt 0.1640625 0.8139648438
vt 0.1791992188 0.8139648438
vt 0.1811523438 0.8139648438
vt 0.2114257812 0.8139648438
vt 0.2114257812 0.630859375
vt 0.1811523438 0.630859375
vt 0.2133789062 0.630859375
vt 0.2133789062 0.8139648438
vt 0.2436523438 0.8139648438
vt 0.2436523438 0.630859375
vt 0.2973632812 0.2104492188
vt 0.2973632812 0.2255859375
vt 0.3276367188 0.2255859375
vt 0.3276367188 0.2104492188
vt 0.3295898438 0.22265625
vt 0.3598632812 0.22265625
vt 0.3598632812 0.2075195312
vt 0.3295898438 0.2075195312
vt 0.3618164062 0.2177734375
vt 0.544921875 0.2177734375
vt 0.544921875 0.2026367188
vt 0.3618164062 0.2026367188
vt 0.546875 0.2026367188
vt 0.546875 0.2177734375
vt 0.7299804688 0.2177734375
vt 0.7299804688 0.2026367188
vt 0.5732421875 0.533203125
vt 0.52734375 0.533203125
vt 0.52734375 0.5791015625
vt 0.5732421875 0.5791015625
vt 0.62109375 0.5791015625
vt 0.62109375 0.533203125
vt 0.5751953125 0.533203125
vt 0.5751953125 0.5791015625
vt 0.6689453125 0.533203125
vt 0.623046875 0.533203125
vt 0.623046875 0.5791015625
vt 0.6689453125 0.5791015625
vt 0.716796875 0.5791015625
vt 0.716796875 0.533203125
vt 0.6708984375 0.533203125
vt 0.6708984375 0.5791015625
vt 0.8125 0.5385742188
vt 0.8125 0.4926757812
vt 0.7666015625 0.4926757812
vt 0.7666015625 0.5385742188
vt 0.8603515625 0.4926757812
vt 0.814453125 0.4926757812
vt 0.814453125 0.5385742188
vt 0.8603515625 0.5385742188
vt 0.2758789062 0.630859375
vt 0.2456054688 0.630859375
vt 0.2456054688 0.8139648438
vt 0.2758789062 0.8139648438
vt 0.3081054688 0.8139648438
vt 0.3081054688 0.630859375
vt 0.2778320312 0.630859375
vt 0.2778320312 0.8139648438
vt 0.9184570312 0.2690429688
vt 0.8881835938 0.2690429688
vt 0.8881835938 0.2993164062
vt 0.9184570312 0.2993164062
vt 0.9506835938 0.2993164062
vt 0.9506835938 0.2690429688
vt 0.9204101562 0.2690429688
vt 0.9204101562 0.2993164062
vt 0.3403320312 0.8139648438
vt 0.3403320312 0.630859375
vt 0.3100585938 0.630859375
vt 0.3100585938 0.8139648438
vt 0.3725585938 0.630859375
vt 0.3422851562 0.630859375
vt 0.3422851562 0.8139648438
vt 0.3725585938 0.8139648438
vt 0.908203125 0.4926757812
vt 0.8623046875 0.4926757812
vt 0.8623046875 0.5385742188
vt 0.908203125 0.5385742188
vt 0.9560546875 0.5385742188
vt 0.9560546875 0.4926757812
vt 0.91015625 0.4926757812
vt 0.91015625 0.5385742188
vt 0.7646484375 0.4912109375
vt 0.71875 0.4912109375
vt 0.71875 0.537109375
vt 0.7646484375 0.537109375
vt 0.046875 0.533203125
vt 0.046875 0.4873046875
vt 0.0009765625 0.4873046875
vt 0.0009765625 0.533203125
vt 0.0947265625 0.533203125
vt 0.0947265625 0.4873046875
vt 0.048828125 0.4873046875
vt 0.048828125 0.533203125
vt 0.142578125 0.4873046875
vt 0.0966796875 0.4873046875
vt 0.0966796875 0.533203125
vt 0.142578125 0.533203125
vt 0.1904296875 0.4873046875
vt 0.14453125 0.4873046875
vt 0.14453125 0.533203125
vt 0.1904296875 0.533203125
vt 0.23828125 0.533203125
vt 0.23828125 0.4873046875
vt 0.1923828125 0.4873046875
vt 0.1923828125 0.533203125
vt 0.3774414062 0.4853515625
vt 0.240234375 0.4853515625
vt 0.240234375 0.53125
vt 0.3774414062 0.53125
vt 0.5166015625 0.53125
vt 0.5166015625 0.4853515625
vt 0.3793945312 0.4853515625
vt 0.3793945312 0.53125
vt 0.6557617188 0.53125
vt 0.6557617188 0.4853515625
vt 0.5185546875 0.4853515625
vt 0.5185546875 0.53125
vt 0.9038085938 0.4448242188
vt 0.7666015625 0.4448242188
vt 0.7666015625 0.4907226562
vt 0.9038085938 0.4907226562
vt 0.7036132812 0.4853515625
vt 0.6577148438 0.4853515625
vt 0.6577148438 0.53125
vt 0.7036132812 0.53125
vt 0.9516601562 0.4907226562
vt 0.9516601562 0.4448242188
vt 0.9057617188 0.4448242188
vt 0.9057617188 0.4907226562
vt 0.4204101562 0.8139648438
vt 0.4204101562 0.6767578125
vt 0.3745117188 0.6767578125
vt 0.3745117188 0.8139648438
vt 0.4682617188 0.6767578125
vt 0.4223632812 0.6767578125
vt 0.4223632812 0.8139648438
vt 0.4682617188 0.8139648438
vt 0.1381835938 0.4853515625
vt 0.1381835938 0.439453125
vt 0.0009765625 0.439453125
vt 0.0009765625 0.4853515625
vt 0.27734375 0.4375
vt 0.1401367188 0.4375
vt 0.1401367188 0.4833984375
vt 0.27734375 0.4833984375
vt 0.7514648438 0.443359375
vt 0.7055664062 0.443359375
vt 0.7055664062 0.4892578125
vt 0.7514648438 0.4892578125
vt 0.3251953125 0.4833984375
vt 0.3251953125 0.4375
vt 0.279296875 0.4375
vt 0.279296875 0.4833984375
vt 0.5161132812 0.8139648438
vt 0.5161132812 0.6767578125
vt 0.4702148438 0.6767578125
vt 0.4702148438 0.8139648438
vt 0.5639648438 0.6767578125
vt 0.5180664062 0.6767578125
vt 0.5180664062 0.8139648438
vt 0.5639648438 0.8139648438
vt 0.4643554688 0.4833984375
vt 0.4643554688 0.4375
vt 0.3271484375 0.4375
vt 0.3271484375 0.4833984375
vt 0.603515625 0.4375
vt 0.4663085938 0.4375
vt 0.4663085938 0.4833984375
vt 0.603515625 0.4833984375
vt 0.6513671875 0.4375
vt 0.60546875 0.4375
vt 0.60546875 0.4833984375
vt 0.6513671875 0.4833984375
vt 0.69921875 0.4833984375
vt 0.69921875 0.4375
vt 0.6533203125 0.4375
vt 0.6533203125 0.4833984375
vt 0.890625 0.3969726562
vt 0.7534179688 0.3969726562
vt 0.7534179688 0.4428710938
vt 0.890625 0.4428710938
vt 0.1381835938 0.4375
vt 0.1381835938 0.3916015625
vt 0.0009765625 0.3916015625
vt 0.0009765625 0.4375
vt 0.27734375 0.435546875
vt 0.27734375 0.3896484375
vt 0.1401367188 0.3896484375
vt 0.1401367188 0.435546875
vt 0.4165039062 0.3896484375
vt 0.279296875 0.3896484375
vt 0.279296875 0.435546875
vt 0.4165039062 0.435546875
vt 0.9384765625 0.3969726562
vt 0.892578125 0.3969726562
vt 0.892578125 0.4428710938
vt 0.9384765625 0.4428710938
vt 0.986328125 0.4428710938
vt 0.986328125 0.3969726562
vt 0.9404296875 0.3969726562
vt 0.9404296875 0.4428710938
vt 0.5556640625 0.3896484375
vt 0.4184570312 0.3896484375
vt 0.4184570312 0.435546875
vt 0.5556640625 0.435546875
vt 0.6948242188 0.435546875
vt 0.6948242188 0.3896484375
vt 0.5576171875 0.3896484375
vt 0.5576171875 0.435546875
vt 0.833984375 0.3950195312
vt 0.833984375 0.3491210938
vt 0.6967773438 0.3491210938
vt 0.6967773438 0.3950195312
vt 0.9731445312 0.3491210938
vt 0.8359375 0.3491210938
vt 0.8359375 0.3950195312
vt 0.9731445312 0.3950195312
vt 0.046875 0.34375
vt 0.0009765625 0.34375
vt 0.0009765625 0.3896484375
vt 0.046875 0.3896484375
vt 0.0947265625 0.3896484375
vt 0.0947265625 0.34375
vt 0.048828125 0.34375
vt 0.048828125 0.3896484375
vt 0.6118164062 0.8139648438
vt 0.6118164062 0.6767578125
vt 0.5659179688 0.6767578125
vt 0.5659179688 0.8139648438
vt 0.6596679688 0.6767578125
vt 0.6137695312 0.6767578125
vt 0.6137695312 0.8139648438
vt 0.6596679688 0.8139648438
vt 0.2338867188 0.3876953125
vt 0.2338867188 0.341796875
vt 0.0966796875 0.341796875
vt 0.0966796875 0.3876953125
vt 0.373046875 0.341796875
vt 0.2358398438 0.341796875
vt 0.2358398438 0.3876953125
vt 0.373046875 0.3876953125
vt 0.4208984375 0.341796875
vt 0.375 0.341796875
vt 0.375 0.3876953125
vt 0.4208984375 0.3876953125
vt 0.46875 0.3876953125
vt 0.46875 0.341796875
vt 0.4228515625 0.341796875
vt 0.4228515625 0.3876953125
vt 0.7075195312 0.8139648438
vt 0.7075195312 0.6767578125
vt 0.6616210938 0.6767578125
vt 0.6616210938 0.8139648438
vt 0.7553710938 0.6767578125
vt 0.7094726562 0.6767578125
vt 0.7094726562 0.8139648438
vt 0.7553710938 0.8139648438
vt 0.6079101562 0.3876953125
vt 0.6079101562 0.341796875
vt 0.470703125 0.341796875
vt 0.470703125 0.3876953125
vt 0.7470703125 0.3012695312
vt 0.6098632812 0.3012695312
vt 0.6098632812 0.3471679688
vt 0.7470703125 0.3471679688
vt 0.794921875 0.3012695312
vt 0.7490234375 0.3012695312
vt 0.7490234375 0.3471679688
vt 0.794921875 0.3471679688
vt 0.8427734375 0.3471679688
vt 0.8427734375 0.3012695312
vt 0.796875 0.3012695312
vt 0.796875 0.3471679688
vt 0.9819335938 0.3012695312
vt 0.8447265625 0.3012695312
vt 0.8447265625 0.3471679688
vt 0.9819335938 0.3471679688
vt 0.1381835938 0.33984375
vt 0.1381835938 0.2939453125
vt 0.0009765625 0.2939453125
vt 0.0009765625 0.33984375
vt 0.27734375 0.33984375
vt 0.27734375 0.2939453125
vt 0.1401367188 0.2939453125
vt 0.1401367188 0.33984375
vt 0.4165039062 0.2939453125
vt 0.279296875 0.2939453125
vt 0.279296875 0.33984375
vt 0.4165039062 0.33984375
vt 0.9829101562 0.2622070312
vt 0.9526367188 0.2622070312
vt 0.9526367188 0.2924804688
vt 0.9829101562 0.2924804688
vt 0.771484375 0.2670898438
vt 0.771484375 0.2368164062
vt 0.7412109375 0.2368164062
vt 0.7412109375 0.2670898438
vt 0.8037109375 0.2368164062
vt 0.7734375 0.2368164062
vt 0.7734375 0.2670898438
vt 0.8037109375 0.2670898438
vt 0.8359375 0.2670898438
vt 0.8359375 0.2368164062
vt 0.8056640625 0.2368164062
vt 0.8056640625 0.2670898438
vt 0.8681640625 0.2670898438
vt 0.8681640625 0.2368164062
vt 0.837890625 0.2368164062
vt 0.837890625 0.2670898438
vt 0.900390625 0.2368164062
vt 0.8701171875 0.2368164062
vt 0.8701171875 0.2670898438
vt 0.900390625 0.2670898438
vt 0.828125 0.2099609375
vt 0.8129882812 0.2099609375
vt 0.8129882812 0.2177734375
vt 0.828125 0.2177734375
vt 0.8452148438 0.2177734375
vt 0.8452148438 0.2099609375
vt 0.830078125 0.2099609375
vt 0.830078125 0.2177734375
vt 0.041015625 0.2182617188
vt 0.033203125 0.2182617188
vt 0.033203125 0.2333984375
vt 0.041015625 0.2333984375
vt 0.05078125 0.2192382812
vt 0.05078125 0.2041015625
vt 0.04296875 0.2041015625
vt 0.04296875 0.2192382812
vt 0.8549804688 0.2177734375
vt 0.8549804688 0.2099609375
vt 0.8471679688 0.2099609375
vt 0.8471679688 0.2177734375
vt 0.8647460938 0.2099609375
vt 0.8569335938 0.2099609375
vt 0.8569335938 0.2177734375
vt 0.8647460938 0.2177734375
vt 0.8125 0.7597235769
vt 0.7854680763 0.7456054688
vt 0.7573242188 0.7998467356
vt 0.7843561424 0.8139648438
vt 0.8696289062 0.7998467356
vt 0.8414850487 0.7456054688
vt 0.814453125 0.7597235769
vt 0.8425969826 0.8139648438
vt 0.5258789062 0.2749023438
vt 0.4936523438 0.2749023438
vt 0.4936523438 0.3056640625
vt 0.5258789062 0.3056640625
vt 0.9345703125 0.2670898438
vt 0.9345703125 0.2368164062
vt 0.90234375 0.2368164062
vt 0.90234375 0.2670898438
vt 0.7895507812 0.7436523438
vt 0.7895507812 0.6826171875
vt 0.7573242188 0.6826171875
vt 0.7573242188 0.7436523438
vt 0.8237304688 0.6826171875
vt 0.7915039062 0.6826171875
vt 0.7915039062 0.7436523438
vt 0.8237304688 0.7436523438
vt 0.9189453125 0.7598581556
vt 0.89990353 0.75
vt 0.8715820312 0.8041066881
vt 0.8906238138 0.8139648438
vt 0.9682617188 0.8041066881
vt 0.93994022 0.75
vt 0.9208984375 0.7598581556
vt 0.9492199362 0.8139648438
vt 0.0571289062 0.23828125
vt 0.0478515625 0.23828125
vt 0.0478515625 0.259765625
vt 0.0571289062 0.259765625
vt 0.068359375 0.259765625
vt 0.068359375 0.23828125
vt 0.0590820312 0.23828125
vt 0.0590820312 0.259765625
vt 0.9794921875 0.8139648438
vt 0.9794921875 0.7529296875
vt 0.9702148438 0.7529296875
vt 0.9702148438 0.8139648438
vt 0.9907226562 0.7529296875
vt 0.9814453125 0.7529296875
vt 0.9814453125 0.8139648438
vt 0.9907226562 0.8139648438
vt 0.9189453125 0.6939401869
vt 0.89990353 0.6840820312
vt 0.8715820312 0.7381887193
vt 0.8906238138 0.748046875
vt 0.9682617188 0.7381887193
vt 0.93994022 0.6840820312
vt 0.9208984375 0.6939401869
vt 0.9492199362 0.748046875
vt 0.0795898438 0.23828125
vt 0.0703125 0.23828125
vt 0.0703125 0.259765625
vt 0.0795898438 0.259765625
vt 0.0908203125 0.259765625
vt 0.0908203125 0.23828125
vt 0.0815429688 0.23828125
vt 0.0815429688 0.259765625
vt 0.9794921875 0.7509765625
vt 0.9794921875 0.6899414062
vt 0.9702148438 0.6899414062
vt 0.9702148438 0.7509765625
vt 0.9907226562 0.6899414062
vt 0.9814453125 0.6899414062
vt 0.9814453125 0.7509765625
vt 0.9907226562 0.7509765625
vt 0.537109375 0.315317034
vt 0.5321981036 0.3076171875
vt 0.4936523438 0.3321439035
vt 0.4985636152 0.33984375
vt 0.5825195312 0.3321439035
vt 0.5439737714 0.3076171875
vt 0.5390625 0.315317034
vt 0.5776082598 0.33984375
vt 0.783203125 0.2084960938
vt 0.7573242188 0.2084960938
vt 0.7573242188 0.2177734375
vt 0.783203125 0.2177734375
vt 0.8110351562 0.2177734375
vt 0.8110351562 0.2084960938
vt 0.78515625 0.2084960938
vt 0.78515625 0.2177734375
vt 0.4443359375 0.33984375
vt 0.4443359375 0.2939453125
vt 0.4184570312 0.2939453125
vt 0.4184570312 0.33984375
vt 0.4721679688 0.2939453125
vt 0.4462890625 0.2939453125
vt 0.4462890625 0.33984375
vt 0.4721679688 0.33984375
vt 0.0161132812 0.2353515625
vt 0.0009765625 0.2353515625
vt 0.0009765625 0.259765625
vt 0.0161132812 0.259765625
vt 0.033203125 0.259765625
vt 0.033203125 0.2353515625
vt 0.0180664062 0.2353515625
vt 0.0180664062 0.259765625
vt 0.0634765625 0.2041015625
vt 0.052734375 0.2041015625
vt 0.052734375 0.2192382812
vt 0.0634765625 0.2192382812
vt 0.076171875 0.2192382812
vt 0.076171875 0.2041015625
vt 0.0654296875 0.2041015625
vt 0.0654296875 0.2192382812
vt 0.9814453125 0.2602539062
vt 0.9814453125 0.2358398438
vt 0.970703125 0.2358398438
vt 0.970703125 0.2602539062
vt 0.0458984375 0.2353515625
vt 0.03515625 0.2353515625
vt 0.03515625 0.259765625
vt 0.0458984375 0.259765625
vt 0.9516601562 0.2329101562
vt 0.9365234375 0.2329101562
vt 0.9365234375 0.2602539062
vt 0.9516601562 0.2602539062
vt 0.96875 0.2602539062
vt 0.96875 0.2329101562
vt 0.9536132812 0.2329101562
vt 0.9536132812 0.2602539062
vt 0.7426757812 0.2026367188
vt 0.7319335938 0.2026367188
vt 0.7319335938 0.2177734375
vt 0.7426757812 0.2177734375
vt 0.7553710938 0.2177734375
vt 0.7553710938 0.2026367188
vt 0.7446289062 0.2026367188
vt 0.7446289062 0.2177734375
vt 0.9956054688 0.2924804688
vt 0.9956054688 0.2651367188
vt 0.9848632812 0.2651367188
vt 0.9848632812 0.2924804688
vt 0.9956054688 0.2358398438
vt 0.9848632812 0.2358398438
vt 0.9848632812 0.2631835938
vt 0.9956054688 0.2631835938
vt 0.900390625 0.2119140625
vt 0.8666992188 0.2119140625
vt 0.8666992188 0.2177734375
vt 0.900390625 0.2177734375
vt 0.0346679688 0.2163085938
vt 0.0346679688 0.2104492188
vt 0.0009765625 0.2104492188
vt 0.0009765625 0.2163085938
vt 0.99609375 0.5048828125
vt 0.98828125 0.5048828125
vt 0.98828125 0.5385742188
vt 0.99609375 0.5385742188
vt 0.99609375 0.5029296875
vt 0.99609375 0.4692382812
vt 0.98828125 0.4692382812
vt 0.98828125 0.5029296875
vt 0.91015625 0.2177734375
vt 0.91015625 0.2119140625
vt 0.90234375 0.2119140625
vt 0.90234375 0.2177734375
vt 0.919921875 0.2119140625
vt 0.912109375 0.2119140625
vt 0.912109375 0.2177734375
vt 0.919921875 0.2177734375
vt 0.9555664062 0.2080078125
vt 0.921875 0.2080078125
vt 0.921875 0.2138671875
vt 0.9555664062 0.2138671875
vt 0.9912109375 0.2138671875
vt 0.9912109375 0.2080078125
vt 0.9575195312 0.2080078125
vt 0.9575195312 0.2138671875
vt 0.99609375 0.43359375
vt 0.98828125 0.43359375
vt 0.98828125 0.4672851562
vt 0.99609375 0.4672851562
vt 0.99609375 0.431640625
vt 0.99609375 0.3979492188
vt 0.98828125 0.3979492188
vt 0.98828125 0.431640625
vt 0.8745117188 0.2099609375
vt 0.8745117188 0.2041015625
vt 0.8666992188 0.2041015625
vt 0.8666992188 0.2099609375
vt 0.8842773438 0.2041015625
vt 0.8764648438 0.2041015625
vt 0.8764648438 0.2099609375
vt 0.8842773438 0.2099609375
vt 0.919921875 0.2041015625
vt 0.8862304688 0.2041015625
vt 0.8862304688 0.2099609375
vt 0.919921875 0.2099609375
vt 0.0346679688 0.2084960938
vt 0.0346679688 0.2026367188
vt 0.0009765625 0.2026367188
vt 0.0009765625 0.2084960938
vt 0.99609375 0.3623046875
vt 0.98828125 0.3623046875
vt 0.98828125 0.3959960938
vt 0.99609375 0.3959960938
vt 0.9916992188 0.3603515625
vt 0.9916992188 0.3266601562
vt 0.9838867188 0.3266601562
vt 0.9838867188 0.3603515625
vt 0.0859375 0.2084960938
vt 0.0859375 0.2026367188
vt 0.078125 0.2026367188
vt 0.078125 0.2084960938
vt 0.095703125 0.2026367188
vt 0.087890625 0.2026367188
vt 0.087890625 0.2084960938
vt 0.095703125 0.2084960938
vt 0.1313476562 0.2026367188
vt 0.09765625 0.2026367188
vt 0.09765625 0.2084960938
vt 0.1313476562 0.2084960938
vt 0.1669921875 0.2084960938
vt 0.1669921875 0.2026367188
vt 0.1333007812 0.2026367188
vt 0.1333007812 0.2084960938
vt 0.4819335938 0.3061523438
vt 0.4741210938 0.3061523438
vt 0.4741210938 0.33984375
vt 0.4819335938 0.33984375
vt 0.4916992188 0.33984375
vt 0.4916992188 0.3061523438
vt 0.4838867188 0.3061523438
vt 0.4838867188 0.33984375
vt 0.1767578125 0.2084960938
vt 0.1767578125 0.2026367188
vt 0.1689453125 0.2026367188
vt 0.1689453125 0.2084960938
vt 0.1865234375 0.2026367188
vt 0.1787109375 0.2026367188
vt 0.1787109375 0.2084960938
vt 0.1865234375 0.2084960938
vn 1 0 0
vn -1 0 0
vn 0 1 0
vn 0 -1 0
vn 0 0 1
vn 0 0 -1
vn 1 0 0
vn -1 0 0
vn 0 1 0
vn 0 -1 0
vn 0 0 1
vn 0 0 -1
vn 1 0 0
vn -1 0 0
vn 0 1 0
vn 0 -1 0
vn 0 0 1
vn 0 0 -1
vn 1 0 0
vn -1 0 0
vn 0 1 0
vn 0 -1 0
vn 0 0 1
vn 0 0 -1
vn 1 0 0
vn -1 0 0
vn 0 1 0
vn 0 -1 0
vn 0 0 1
vn 0 0 -1
vn 1 0 0
vn -1 0 0
vn 0 1 0
vn 0 -1 0
vn 0 0 1
vn 0 0 -1
vn 1 0 0
vn -1 0 0
vn 0 1 0
vn 0 -1 0
vn 0 0 1
vn 0 0 -1
vn 1 0 0
vn -1 0 0
vn 0 1 0
vn 0 -1 0
vn 0 0 1
vn 0 0 -1
vn 1 0 0
vn -1 0 0
vn 0 1 0
vn 0 -1 0
vn 0 0 1
vn 0 0 -1
vn 1 0 0
vn -1 0 0
vn 0 1 0
vn 0 -1 0
vn 0 0 1
vn 0 0 -1
vn 1 0 0
vn -1 0 0
vn 0 1 0
vn 0 -1 0
vn 0 0 1
vn 0 0 -1
vn 1 0 0
vn -1 0 0
vn 0 1 0
vn 0 -1 0
vn 0 0 1
vn 0 0 -1
vn 1 0 0
vn -1 0 0
vn 0 1 0
vn 0 -1 0
vn 0 0 1
vn 0 0 -1
vn 0 -1 0
vn 0 1 0
vn -1 0 0
vn 1 0 0
vn 0 0 -1
vn 0 0 1
vn 0 -1 0
vn 0 1 0
vn 0 0 -1
vn 0 0 1
vn 1 0 0
vn -1 0 0
vn 0 -1 0
vn 0 1 0
vn -1 0 0
vn 1 0 0
vn 0 0 -1
vn 0 0 1
vn 1 0 0
vn -1 0 0
vn 0 1 0
vn 0 -1 0
vn 0 0 1
vn 0 0 -1
vn 1 0 0
vn -1 0 0
vn 0 1 0
vn 0 -1 0
vn 0 0 1
vn 0 0 -1
vn 1 0 0
vn -1 0 0
vn 0 1 0
vn 0 -1 0
vn 0 0 1
vn 0 0 -1
vn 0 0 1
vn 0 0 -1
vn 0 1 0
vn 0 -1 0
vn -1 0 0
vn 1 0 0
vn 0 0 1
vn 0 0 -1
vn 0 1 0
vn 0 -1 0
vn -1 0 0
vn 1 0 0
vn 0 -1 0
vn 0 1 0
vn 0 0 -1
vn 0 0 1
vn 1 0 0
vn -1 0 0
vn 1 0 0
vn -1 0 0
vn 0 1 0
vn 0 -1 0
vn 0 0 1
vn 0 0 -1
vn 1 0 0
vn -1 0 0
vn 0 1 0
vn 0 -1 0
vn 0 0 1
vn 0 0 -1
vn 1 0 0
vn -1 0 0
vn 0 1 0
vn 0 -1 0
vn 0 0 1
vn 0 0 -1
vn 1 0 0
vn -1 0 0
vn 0 1 0
vn 0 -1 0
vn 0 0 1
vn 0 0 -1
vn 0 0 1
vn 0 0 -1
vn 0 1 0
vn 0 -1 0
vn -1 0 0
vn 1 0 0
vn 0 0 1
vn 0 0 -1
vn 0 1 0
vn 0 -1 0
vn -1 0 0
vn 1 0 0
vn 1 0 0
vn -1 0 0
vn 0 1 0
vn 0 -1 0
vn 0 0 1
vn 0 0 -1
vn 1 0 0
vn -1 0 0
vn 0 1 0
vn 0 -1 0
vn 0 0 1
vn 0 0 -1
vn 0 0 1
vn 0 0 -1
vn 0 1 0
vn 0 -1 0
vn -1 0 0
vn 1 0 0
vn 0 0 1
vn 0 0 -1
vn 0 1 0
vn 0 -1 0
vn -1 0 0
vn 1 0 0
vn 1 0 0
vn -1 0 0
vn 0 1 0
vn 0 -1 0
vn 0 0 1
vn 0 0 -1
vn 1 0 0
vn -1 0 0
vn 0 1 0
vn 0 -1 0
vn 0 0 1
vn 0 0 -1
vn 1 0 0
vn -1 0 0
vn 0 1 0
vn 0 -1 0
vn 0 0 1
vn 0 0 -1
vn 1 0 0
vn -1 0 0
vn 0 0.8870108332 -0.4617486132
vn 0 -0.8870108332 0.4617486132
vn 0 0.4617486132 0.8870108332
vn 0 -0.4617486132 -0.8870108332
vn 1 0 0
vn -1 0 0
vn 0 0.8870108332 -0.4617486132
vn 0 -0.8870108332 0.4617486132
vn 0 0.4617486132 0.8870108332
vn 0 -0.4617486132 -0.8870108332
vn 1 0 0
vn -1 0 0
vn 0 0.8870108332 -0.4617486132
vn 0 -0.8870108332 0.4617486132
vn 0 0.4617486132 0.8870108332
vn 0 -0.4617486132 -0.8870108332
vn 1 0 0
vn -1 0 0
vn 0 0.5372996083 -0.8433914458
vn 0 -0.5372996083 0.8433914458
vn 0 0.8433914458 0.5372996083
vn 0 -0.8433914458 -0.5372996083
vn 1 0 0
vn -1 0 0
vn 0 1 0
vn 0 -1 0
vn 0 0 1
vn 0 0 -1
vn 1 0 0
vn -1 0 0
vn 0 1 0
vn 0 -1 0
vn 0 0 1
vn 0 0 -1
vn 1 0 0
vn -1 0 0
vn 0 1 0
vn 0 -1 0
vn 0 0 1
vn 0 0 -1
vn 1 0 0
vn -1 0 0
vn 0 1 0
vn 0 -1 0
vn 0 0 1
vn 0 0 -1
vn 1 0 0
vn -1 0 0
vn 0 1 0
vn 0 -1 0
vn 0 0 1
vn 0 0 -1
vn 1 0 0
vn -1 0 0
vn 0 1 0
vn 0 -1 0
vn 0 0 1
vn 0 0 -1
o mesh
usemtl m_72d9a993-bcf0-0a55-2407-0795bbfdbb0b
f 2/1/1 1/2/1 3/3/1 4/4/1
f 7/5/2 5/6/2 6/7/2 8/8/2
f 5/9/3 1/10/3 2/11/3 6/12/3
f 4/13/4 3/14/4 7/15/4 8/16/4
f 3/17/5 1/18/5 5/19/5 7/20/5
f 6/21/6 2/22/6 4/23/6 8/24/6
f 10/25/7 9/26/7 11/27/7 12/28/7
f 15/29/8 13/30/8 14/31/8 16/32/8
f 13/33/9 9/34/9 10/35/9 14/36/9
f 12/37/10 11/38/10 15/39/10 16/40/10
f 11/41/11 9/42/11 13/43/11 15/44/11
f 14/45/12 10/46/12 12/47/12 16/48/12
f 18/49/13 17/50/13 19/51/13 20/52/13
f 23/53/14 21/54/14 22/55/14 24/56/14
f 21/57/15 17/58/15 18/59/15 22/60/15
f 20/61/16 19/62/16 23/63/16 24/64/16
f 19/65/17 17/66/17 21/67/17 23/68/17
f 22/69/18 18/70/18 20/71/18 24/72/18
f 26/73/19 25/74/19 27/75/19 28/76/19
f 31/77/20 29/78/20 30/79/20 32/80/20
f 29/81/21 25/82/21 26/83/21 30/84/21
f 28/85/22 27/86/22 31/87/22 32/88/22
f 27/89/23 25/90/23 29/91/23 31/92/23
f 30/93/24 26/94/24 28/95/24 32/96/24
f 34/97/25 33/98/25 35/99/25 36/100/25
f 39/101/26 37/102/26 38/103/26 40/104/26
f 37/105/27 33/106/27 34/107/27 38/108/27
f 36/109/28 35/110/28 39/111/28 40/112/28
f 35/113/29 33/114/29 37/115/29 39/116/29
f 38/117/30 34/118/30 36/119/30 40/120/30
f 42/121/31 41/122/31 43/123/31 44/124/31
f 47/125/32 45/126/32 46/127/32 48/128/32
f 45/129/33 41/130/33 42/131/33 46/132/33
f 44/133/34 43/134/34 47/135/34 48/136/34
f 43/137/35 41/138/35 45/139/35 47/140/35
f 46/141/36 42/142/36 44/143/36 48/144/36
f 50/145/37 49/146/37 51/147/37 52/148/37
f 55/149/38 53/150/38 54/151/38 56/152/38
f 53/153/39 49/154/39 50/155/39 54/156/39
f 52/157/40 51/158/40 55/159/40 56/160/40
f 51/161/41 49/162/41 53/163/41 55/164/41
f 54/165/42 50/166/42 52/167/42 56/168/42
f 58/169/43 57/170/43 59/171/43 60/172/43
f 63/173/44 61/174/44 62/175/44 64/176/44
f 61/177/45 57/178/45 58/179/45 62/180/45
f 60/181/46 59/182/46 63/183/46 64/184/46
f 59/185/47 57/186/47 61/187/47 63/188/47
f 62/189/48 58/190/48 60/191/48 64/192/48
f 66/193/49 65/194/49 67/195/49 68/196/49
f 71/197/50 69/198/50 70/199/50 72/200/50
f 69/201/51 65/202/51 66/203/51 70/204/51
f 68/205/52 67/206/52 71/207/52 72/208/52
f 67/209/53 65/210/53 69/211/53 71/212/53
f 70/213/54 66/214/54 68/215/54 72/216/54
f 74/217/55 73/218/55 75/219/55 76/220/55
f 79/221/56 77/222/56 78/223/56 80/224/56
f 77/225/57 73/226/57 74/227/57 78/228/57
f 76/229/58 75/230/58 79/231/58 80/232/58
f 75/233/59 73/234/59 77/235/59 79/236/59
f 78/237/60 74/238/60 76/239/60 80/240/60
f 82/241/61 81/242/61 83/243/61 84/244/61
f 87/245/62 85/246/62 86/247/62 88/248/62
f 85/249/63 81/250/63 82/251/63 86/252/63
f 84/253/64 83/254/64 87/255/64 88/256/64
f 83/257/65 81/258/65 85/259/65 87/260/65
f 86/261/66 82/262/66 84/263/66 88/264/66
f 90/265/67 89/266/67 91/267/67 92/268/67
f 95/269/68 93/270/68 94/271/68 96/272/68
f 93/273/69 89/274/69 90/275/69 94/276/69
f 92/277/70 91/278/70 95/279/70 96/280/70
f 91/281/71 89/282/71 93/283/71 95/284/71
f 94/285/72 90/286/72 92/287/72 96/288/72
f 98/289/73 97/290/73 99/291/73 100/292/73
f 103/293/74 101/294/74 102/295/74 104/296/74
f 101/297/75 97/298/75 98/299/75 102/300/75
f 100/301/76 99/302/76 103/303/76 104/304/76
f 99/305/77 97/306/77 101/307/77 103/308/77
f 102/309/78 98/310/78 100/311/78 104/312/78
f 106/313/79 105/314/79 107/315/79 108/316/79
f 111/317/80 109/318/80 110/319/80 112/320/80
f 109/321/81 105/322/81 106/323/81 110/324/81
f 108/325/82 107/326/82 111/327/82 112/328/82
f 107/329/83 105/330/83 109/331/83 111/332/83
f 110/333/84 106/334/84 108/335/84 112/336/84
f 114/337/85 113/338/85 115/339/85 116/340/85
f 119/341/86 117/342/86 118/343/86 120/344/86
f 117/345/87 113/346/87 114/347/87 118/348/87
f 116/349/88 115/350/88 119/351/88 120/352/88
f 115/353/89 113/354/89 117/355/89 119/356/89
f 118/357/90 114/358/90 116/359/90 120/360/90
f 122/361/91 121/362/91 123/363/91 124/364/91
f 127/365/92 125/366/92 126/367/92 128/368/92
f 125/369/93 121/370/93 122/371/93 126/372/93
f 124/373/94 123/374/94 127/375/94 128/376/94
f 123/377/95 121/378/95 125/379/95 127/380/95
f 126/381/96 122/382/96 124/383/96 128/384/96
f 130/385/97 129/386/97 131/387/97 132/388/97
f 135/389/98 133/390/98 134/391/98 136/392/98
f 133/393/99 129/394/99 130/395/99 134/396/99
f 132/397/100 131/398/100 135/399/100 136/400/100
f 131/401/101 129/402/101 133/403/101 135/404/101
f 134/405/102 130/406/102 132/407/102 136/408/102
f 138/409/103 137/410/103 139/411/103 140/412/103
f 143/413/104 141/414/104 142/415/104 144/416/104
f 141/417/105 137/418/105 138/419/105 142/420/105
f 140/421/106 139/422/106 143/423/106 144/424/106
f 139/425/107 137/426/107 141/427/107 143/428/107
f 142/429/108 138/430/108 140/431/108 144/432/108
f 146/433/109 145/434/109 147/435/109 148/436/109
f 151/437/110 149/438/110 150/439/110 152/440/110
f 149/441/111 145/442/111 146/443/111 150/444/111
f 148/445/112 147/446/112 151/447/112 152/448/112
f 147/449/113 145/450/113 149/451/113 151/452/113
f 150/453/114 146/454/114 148/455/114 152/456/114
f 154/457/115 153/458/115 155/459/115 156/460/115
f 159/461/116 157/462/116 158/463/116 160/464/116
f 157/465/117 153/466/117 154/467/117 158/468/117
f 156/469/118 155/470/118 159/471/118 160/472/118
f 155/473/119 153/474/119 157/475/119 159/476/119
f 158/477/120 154/478/120 156/479/120 160/480/120
f 162/481/121 161/482/121 163/483/121 164/484/121
f 167/485/122 165/486/122 166/487/122 168/488/122
f 165/489/123 161/490/123 162/491/123 166/492/123
f 164/493/124 163/494/124 167/495/124 168/496/124
f 163/497/125 161/498/125 165/499/125 167/500/125
f 166/501/126 162/502/126 164/503/126 168/504/126
f 170/505/127 169/506/127 171/507/127 172/508/127
f 175/509/128 173/510/128 174/511/128 176/512/128
f 173/513/129 169/514/129 170/515/129 174/516/129
f 172/517/130 171/518/130 175/519/130 176/520/130
f 171/521/131 169/522/131 173/523/131 175/524/131
f 174/525/132 170/526/132 172/527/132 176/528/132
f 178/529/133 177/530/133 179/531/133 180/532/133
f 183/533/134 181/534/134 182/535/134 184/536/134
f 181/537/135 177/538/135 178/539/135 182/540/135
f 180/541/136 179/542/136 183/543/136 184/544/136
f 179/545/137 177/546/137 181/547/137 183/548/137
f 182/549/138 178/550/138 180/551/138 184/552/138
f 186/553/139 185/554/139 187/555/139 188/556/139
f 191/557/140 189/558/140 190/559/140 192/560/140
f 189/561/141 185/562/141 186/563/141 190/564/141
f 188/565/142 187/566/142 191/567/142 192/568/142
f 187/569/143 185/570/143 189/571/143 191/572/143
f 190/573/144 186/574/144 188/575/144 192/576/144
f 194/577/145 193/578/145 195/579/145 196/580/145
f 199/581/146 197/582/146 198/583/146 200/584/146
f 197/585/147 193/586/147 194/587/147 198/588/147
f 196/589/148 195/590/148 199/591/148 200/592/148
f 195/593/149 193/594/149 197/595/149 199/596/149
f 198/597/150 194/598/150 196/599/150 200/600/150
f 202/601/151 201/602/151 203/603/151 204/604/151
f 207/605/152 205/606/152 206/607/152 208/608/152
f 205/609/153 201/610/153 202/611/153 206/612/153
f 204/613/154 203/614/154 207/615/154 208/616/154
f 203/617/155 201/618/155 205/619/155 207/620/155
f 206/621/156 202/622/156 204/623/156 208/624/156
f 210/625/157 209/626/157 211/627/157 212/628/157
f 215/629/158 213/630/158 214/631/158 216/632/158
f 213/633/159 209/634/159 210/635/159 214/636/159
f 212/637/160 211/638/160 215/639/160 216/640/160
f 211/641/161 209/642/161 213/643/161 215/644/161
f 214/645/162 210/646/162 212/647/162 216/648/162
f 218/649/163 217/650/163 219/651/163 220/652/163
f 223/653/164 221/654/164 222/655/164 224/656/164
f 221/657/165 217/658/165 218/659/165 222/660/165
f 220/661/166 219/662/166 223/663/166 224/664/166
f 219/665/167 217/666/167 221/667/167 223/668/167
f 222/669/168 218/670/168 220/671/168 224/672/168
f 226/673/169 225/674/169 227/675/169 228/676/169
f 231/677/170 229/678/170 230/679/170 232/680/170
f 229/681/171 225/682/171 226/683/171 230/684/171
f 228/685/172 227/686/172 231/687/172 232/688/172
f 227/689/173 225/690/173 229/691/173 231/692/173
f 230/693/174 226/694/174 228/695/174 232/696/174
f 234/697/175 233/698/175 235/699/175 236/700/175
f 239/701/176 237/702/176 238/703/176 240/704/176
f 237/705/177 233/706/177 234/707/177 238/708/177
f 236/709/178 235/710/178 239/711/178 240/712/178
f 235/713/179 233/714/179 237/715/179 239/716/179
f 238/717/180 234/718/180 236/719/180 240/720/180
f 242/721/181 241/722/181 243/723/181 244/724/181
f 247/725/182 245/726/182 246/727/182 248/728/182
f 245/729/183 241/730/183 242/731/183 246/732/183
f 244/733/184 243/734/184 247/735/184 248/736/184
f 243/737/185 241/738/185 245/739/185 247/740/185
f 246/741/186 242/742/186 244/743/186 248/744/186
f 250/745/187 249/746/187 251/747/187 252/748/187
f 255/749/188 253/750/188 254/751/188 256/752/188
f 253/753/189 249/754/189 250/755/189 254/756/189
f 252/757/190 251/758/190 255/759/190 256/760/190
f 251/761/191 249/762/191 253/763/191 255/764/191
f 254/765/192 250/766/192 252/767/192 256/768/192
f 258/769/193 257/770/193 259/771/193 260/772/193
f 263/773/194 261/774/194 262/775/194 264/776/194
f 261/777/195 257/778/195 258/779/195 262/780/195
f 260/781/196 259/782/196 263/783/196 264/784/196
f 259/785/197 257/786/197 261/787/197 263/788/197
f 262/789/198 258/790/198 260/791/198 264/792/198
f 266/793/199 265/794/199 267/795/199 268/796/199
f 271/797/200 269/798/200 270/799/200 272/800/200
f 269/801/201 265/802/201 266/803/201 270/804/201
f 268/805/202 267/806/202 271/807/202 272/808/202
f 267/809/203 265/810/203 269/811/203 271/812/203
f 270/813/204 266/814/204 268/815/204 272/816/204
f 274/817/205 273/818/205 275/819/205 276/820/205
f 279/821/206 277/822/206 278/823/206 280/824/206
f 277/825/207 273/826/207 274/827/207 278/828/207
f 276/829/208 275/830/208 279/831/208 280/832/208
f 275/833/209 273/834/209 277/835/209 279/836/209
f 278/837/210 274/838/210 276/839/210 280/840/210
f 282/841/211 281/842/211 283/843/211 284/844/211
f 287/845/212 285/846/212 286/847/212 288/848/212
f 285/849/213 281/850/213 282/851/213 286/852/213
f 284/853/214 283/854/214 287/855/214 288/856/214
f 283/857/215 281/858/215 285/859/215 287/860/215
f 286/861/216 282/862/216 284/863/216 288/864/216
f 290/865/217 289/866/217 291/867/217 292/868/217
f 295/869/218 293/870/218 294/871/218 296/872/218
f 293/873/219 289/874/219 290/875/219 294/876/219
f 292/877/220 291/878/220 295/879/220 296/880/220
f 291/881/221 289/882/221 293/883/221 295/884/221
f 294/885/222 290/886/222 292/887/222 296/888/222
f 298/889/223 297/890/223 299/891/223 300/892/223
f 303/893/224 301/894/224 302/895/224 304/896/224
f 301/897/225 297/898/225 298/899/225 302/900/225
f 300/901/226 299/902/226 303/903/226 304/904/226
f 299/905/227 297/906/227 301/907/227 303/908/227
f 302/909/228 298/910/228 300/911/228 304/912/228
f 306/913/229 305/914/229 307/915/229 308/916/229
f 311/917/230 309/918/230 310/919/230 312/920/230
f 309/921/231 305/922/231 306/923/231 310/924/231
f 308/925/232 307/926/232 311/927/232 312/928/232
f 307/929/233 305/930/233 309/931/233 311/932/233
f 310/933/234 306/934/234 308/935/234 312/936/234
f 314/937/235 313/938/235 315/939/235 316/940/235
f 319/941/236 317/942/236 318/943/236 320/944/236
f 317/945/237 313/946/237 314/947/237 318/948/237
f 316/949/238 315/950/238 319/951/238 320/952/238
f 315/953/239 313/954/239 317/955/239 319/956/239
f 318/957/240 314/958/240 316/959/240 320/960/240
f 322/961/241 321/962/241 323/963/241 324/964/241
f 327/965/242 325/966/242 326/967/242 328/968/242
f 325/969/243 321/970/243 322/971/243 326/972/243
f 324/973/244 323/974/244 327/975/244 328/976/244
f 323/977/245 321/978/245 325/979/245 327/980/245
f 326/981/246 322/982/246 324/983/246 328/984/246
f 330/985/247 329/986/247 331/987/247 332/988/247
f 335/989/248 333/990/248 334/991/248 336/992/248
f 333/993/249 329/994/249 330/995/249 334/996/249
f 332/997/250 331/998/250 335/999/250 336/1000/250
f 331/1001/251 329/1002/251 333/1003/251 335/1004/251
f 334/1005/252 330/1006/252 332/1007/252 336/1008/252
f 338/1009/253 337/1010/253 339/1011/253 340/1012/253
f 343/1013/254 341/1014/254 342/1015/254 344/1016/254
f 341/1017/255 337/1018/255 338/1019/255 342/1020/255
f 340/1021/256 339/1022/256 343/1023/256 344/1024/256
f 339/1025/257 337/1026/257 341/1027/257 343/1028/257
f 342/1029/258 338/1030/258 340/1031/258 344/1032/258
f 346/1033/259 345/1034/259 347/1035/259 348/1036/259
f 351/1037/260 349/1038/260 350/1039/260 352/1040/260
f 349/1041/261 345/1042/261 346/1043/261 350/1044/261
f 348/1045/262 347/1046/262 351/1047/262 352/1048/262
f 347/1049/263 345/1050/263 349/1051/263 351/1052/263
f 350/1053/264 346/1054/264 348/1055/264 352/1056/264
f 354/1057/265 353/1058/265 355/1059/265 356/1060/265
f 359/1061/266 357/1062/266 358/1063/266 360/1064/266
f 357/1065/267 353/1066/267 354/1067/267 358/1068/267
f 356/1069/268 355/1070/268 359/1071/268 360/1072/268
f 355/1073/269 353/1074/269 357/1075/269 359/1076/269
f 358/1077/270 354/1078/270 356/1079/270 360/1080/270
