# Made in Blockbench 5.1.6
mtllib structure_airdrop.mtl
o mesh

v 0.5914165534 0.5041038256 0.525
v 0.5914165534 0.5041038256 0.475
v 0.5914165534 0.4541038256 0.525
v 0.5914165534 0.4541038256 0.475
v 0.5851665534 0.5041038256 0.525
v 0.5851665534 0.5041038256 0.475
v 0.5851665534 0.4541038256 0.525
v 0.5851665534 0.4541038256 0.475
v 0.5755334609 0.5031639453 0.525
v 0.5755334609 0.5031639453 0.475
v 0.5724867273 0.4783502915 0.525
v 0.5724867273 0.4783502915 0.475
v 0.5693300474 0.5039256287 0.525
v 0.5693300474 0.5039256287 0.475
v 0.5662833138 0.4791119749 0.525
v 0.5662833138 0.4791119749 0.475
v 0.7543548696 0.6267102866 0.525
v 0.7543548696 0.6267102866 0.475
v 0.7543548696 0.6142102866 0.525
v 0.7543548696 0.6142102866 0.475
v 0.7293548696 0.6267102866 0.525
v 0.7293548696 0.6267102866 0.475
v 0.7293548696 0.6142102866 0.525
v 0.7293548696 0.6142102866 0.475
v 0.7293548696 0.6267102866 0.528125
v 0.7293548696 0.6267102866 0.471875
v 0.7350297509 0.6155727051 0.528125
v 0.7350297509 0.6155727051 0.471875
v 0.6848045434 0.6040107616 0.528125
v 0.6848045434 0.6040107616 0.471875
v 0.6904794247 0.5928731801 0.528125
v 0.6904794247 0.5928731801 0.471875
v 0.6903822306 0.6132707569 0.53125
v 0.6903822306 0.6132707569 0.46875
v 0.7012352417 0.5517202723 0.53125
v 0.7012352417 0.5517202723 0.46875
v 0.6411418429 0.604588348 0.53125
v 0.6411418429 0.604588348 0.46875
v 0.651994854 0.5430378634 0.53125
v 0.651994854 0.5430378634 0.46875
v 0.7228994133 0.5729124459 0.55625
v 0.7228994133 0.5729124459 0.44375
v 0.7554584466 0.3882609922 0.55625
v 0.7554584466 0.3882609922 0.44375
v 0.624418638 0.5555476281 0.55625
v 0.624418638 0.5555476281 0.44375
v 0.6569776713 0.3708961744 0.55625
v 0.6569776713 0.3708961744 0.44375
v 0.5414165534 0.5041038256 0.525
v 0.5414165534 0.5041038256 0.475
v 0.5414165534 0.4666038256 0.525
v 0.5414165534 0.4666038256 0.475
v 0.5351665534 0.5041038256 0.525
v 0.5351665534 0.5041038256 0.475
v 0.5351665534 0.4666038256 0.525
v 0.5351665534 0.4666038256 0.475
v 0.5132915534 0.6228538256 0.55625
v 0.5132915534 0.6228538256 0.44375
v 0.5132915534 0.5103538256 0.55625
v 0.5132915534 0.5103538256 0.44375
v 0.3882915534 0.6228538256 0.55625
v 0.3882915534 0.6228538256 0.44375
v 0.3882915534 0.5103538256 0.55625
v 0.3882915534 0.5103538256 0.44375
v 0.5348627792 0.4718560827 0.5289938531
v 0.5326818099 0.4718560827 0.4790414421
v 0.5965345467 0.4620789287 0.5263012056
v 0.5943535774 0.4620789287 0.4763487945
v 0.5338859944 0.4656830306 0.5290365005
v 0.531705025 0.4656830306 0.4790840894
v 0.5955577619 0.4559058766 0.526343853
v 0.5933767925 0.4559058766 0.4763914419
v 0.6570415534 0.6291038256 0.5625
v 0.6570415534 0.6291038256 0.4375
v 0.6570415534 0.5041038256 0.5625
v 0.6570415534 0.5041038256 0.4375
v 0.4945415534 0.6291038256 0.5625
v 0.4945415534 0.6291038256 0.4375
v 0.4945415534 0.5041038256 0.5625
v 0.4945415534 0.5041038256 0.4375
v 0.4070415534 0.6134788256 0.546875
v 0.4070415534 0.6134788256 0.453125
v 0.4070415534 0.5197288256 0.546875
v 0.4070415534 0.5197288256 0.453125
v 0.2445415534 0.6134788256 0.546875
v 0.2445415534 0.6134788256 0.453125
v 0.2445415534 0.5197288256 0.546875
v 0.2445415534 0.5197288256 0.453125
vt 0.1923828125 0.6044921875
vt 0.1484375 0.6044921875
vt 0.1484375 0.6484375
vt 0.1923828125 0.6484375
vt 0.7119140625 0.6474609375
vt 0.7119140625 0.603515625
vt 0.66796875 0.603515625
vt 0.66796875 0.6474609375
vt 0.2109375 0.669921875
vt 0.205078125 0.669921875
vt 0.205078125 0.7138671875
vt 0.2109375 0.7138671875
vt 0.220703125 0.7138671875
vt 0.220703125 0.669921875
vt 0.21484375 0.669921875
vt 0.21484375 0.7138671875
vt 0.2109375 0.666015625
vt 0.2109375 0.6220703125
vt 0.205078125 0.6220703125
vt 0.205078125 0.666015625
vt 0.220703125 0.6220703125
vt 0.21484375 0.6220703125
vt 0.21484375 0.666015625
vt 0.220703125 0.666015625
vt 0.76953125 0.5986328125
vt 0.7255859375 0.5986328125
vt 0.7255859375 0.62109375
vt 0.76953125 0.62109375
vt 0.8173828125 0.62109375
vt 0.8173828125 0.5986328125
vt 0.7734375 0.5986328125
vt 0.7734375 0.62109375
vt 0.7216796875 0.603515625
vt 0.7158203125 0.603515625
vt 0.7158203125 0.6474609375
vt 0.7216796875 0.6474609375
vt 0.23046875 0.640625
vt 0.23046875 0.5966796875
vt 0.224609375 0.5966796875
vt 0.224609375 0.640625
vt 0.8265283487 0.62109375
vt 0.8291015625 0.599301743
vt 0.8238622763 0.5986328125
vt 0.8212890625 0.6204248195
vt 0.8382470987 0.5986328125
vt 0.8330078125 0.599301743
vt 0.8355810263 0.62109375
vt 0.8408203125 0.6204248195
vt 0.462890625 0.5888671875
vt 0.4189453125 0.5888671875
vt 0.4189453125 0.599609375
vt 0.462890625 0.599609375
vt 0.5107421875 0.599609375
vt 0.5107421875 0.5888671875
vt 0.466796875 0.5888671875
vt 0.466796875 0.599609375
vt 0.2568359375 0.5966796875
vt 0.234375 0.5966796875
vt 0.234375 0.640625
vt 0.2568359375 0.640625
vt 0.283203125 0.640625
vt 0.283203125 0.5966796875
vt 0.2607421875 0.5966796875
vt 0.2607421875 0.640625
vt 0.8671875 0.62109375
vt 0.8671875 0.6103515625
vt 0.8447265625 0.6103515625
vt 0.8447265625 0.62109375
vt 0.8671875 0.595703125
vt 0.8447265625 0.595703125
vt 0.8447265625 0.6064453125
vt 0.8671875 0.6064453125
vt 0.564453125 0.5888671875
vt 0.5146484375 0.5888671875
vt 0.5146484375 0.599609375
vt 0.564453125 0.599609375
vt 0.6181640625 0.599609375
vt 0.6181640625 0.5888671875
vt 0.568359375 0.5888671875
vt 0.568359375 0.599609375
vt 0.3369140625 0.640625
vt 0.3369140625 0.5966796875
vt 0.287109375 0.5966796875
vt 0.287109375 0.640625
vt 0.9306640625 0.5859375
vt 0.880859375 0.5859375
vt 0.880859375 0.6298828125
vt 0.9306640625 0.6298828125
vt 0.09375 0.6082759637
vt 0.0887846759 0.5986328125
vt 0.0498046875 0.6182865363
vt 0.0547700116 0.6279296875
vt 0.1416015625 0.6182865363
vt 0.1026215741 0.5986328125
vt 0.09765625 0.6082759637
vt 0.1366362384 0.6279296875
vt 0.72265625 0.6513671875
vt 0.66796875 0.6513671875
vt 0.66796875 0.7060546875
vt 0.72265625 0.7060546875
vt 0.78125 0.6796875
vt 0.78125 0.625
vt 0.7265625 0.625
vt 0.7265625 0.6796875
vt 0.8291015625 0.625
vt 0.78515625 0.625
vt 0.78515625 0.6796875
vt 0.8291015625 0.6796875
vt 0.876953125 0.6796875
vt 0.876953125 0.625
vt 0.8330078125 0.625
vt 0.8330078125 0.6796875
vt 0.720703125 0.7638786562
vt 0.7111791711 0.7099609375
vt 0.66796875 0.7175666563
vt 0.6774927039 0.771484375
vt 0.201171875 0.6599494688
vt 0.1579614539 0.65234375
vt 0.1484375 0.7062614687
vt 0.1916479211 0.7138671875
vt 0.3388671875 0.8330078125
vt 0.240234375 0.8330078125
vt 0.240234375 0.998046875
vt 0.3388671875 0.998046875
vt 0.44140625 0.998046875
vt 0.44140625 0.8330078125
vt 0.3427734375 0.8330078125
vt 0.3427734375 0.998046875
vt 0.826171875 0.7861328125
vt 0.73828125 0.7861328125
vt 0.73828125 0.884765625
vt 0.826171875 0.884765625
vt 0.91796875 0.884765625
vt 0.91796875 0.7861328125
vt 0.830078125 0.7861328125
vt 0.830078125 0.884765625
vt 0.1171875 0.9827692688
vt 0.0885555912 0.8203125
vt 0.001953125 0.8355901062
vt 0.0305850338 0.998046875
vt 0.236328125 0.8355901062
vt 0.1497256588 0.8203125
vt 0.12109375 0.9827692688
vt 0.2076962162 0.998046875
vt 0.978515625 0.5966796875
vt 0.9345703125 0.5966796875
vt 0.9345703125 0.6298828125
vt 0.978515625 0.6298828125
vt 0.0458984375 0.6279296875
vt 0.0458984375 0.5947265625
vt 0.001953125 0.5947265625
vt 0.001953125 0.6279296875
vt 0.3466796875 0.5966796875
vt 0.3408203125 0.5966796875
vt 0.3408203125 0.640625
vt 0.3466796875 0.640625
vt 0.3564453125 0.640625
vt 0.3564453125 0.5966796875
vt 0.3505859375 0.5966796875
vt 0.3505859375 0.640625
vt 0.3662109375 0.640625
vt 0.3662109375 0.607421875
vt 0.3603515625 0.607421875
vt 0.3603515625 0.640625
vt 0.98828125 0.5966796875
vt 0.982421875 0.5966796875
vt 0.982421875 0.6298828125
vt 0.98828125 0.6298828125
vt 0.3388671875 0.73046875
vt 0.240234375 0.73046875
vt 0.240234375 0.8291015625
vt 0.3388671875 0.8291015625
vt 0.44140625 0.8291015625
vt 0.44140625 0.73046875
vt 0.3427734375 0.73046875
vt 0.3427734375 0.8291015625
vt 0.111328125 0.7177734375
vt 0.001953125 0.7177734375
vt 0.001953125 0.81640625
vt 0.111328125 0.81640625
vt 0.224609375 0.81640625
vt 0.224609375 0.7177734375
vt 0.115234375 0.7177734375
vt 0.115234375 0.81640625
vt 0.84765625 0.7822265625
vt 0.84765625 0.68359375
vt 0.73828125 0.68359375
vt 0.73828125 0.7822265625
vt 0.9609375 0.68359375
vt 0.8515625 0.68359375
vt 0.8515625 0.7822265625
vt 0.9609375 0.7822265625
vt 0.9375 0.6773399232
vt 0.9356111343 0.6337890625
vt 0.880859375 0.6361366392
vt 0.8827482407 0.6796875
vt 0.998046875 0.6361366392
vt 0.9432951158 0.6337890625
vt 0.94140625 0.6773399233
vt 0.9961580092 0.6796875
vt 0.666015625 0.599609375
vt 0.666015625 0.59375
vt 0.6220703125 0.59375
vt 0.6220703125 0.599609375
vt 0.7138671875 0.59375
vt 0.669921875 0.59375
vt 0.669921875 0.599609375
vt 0.7138671875 0.599609375
vt 0.2001953125 0.5952946456
vt 0.1463604726 0.5869140625
vt 0.1455078125 0.5922053544
vt 0.1993426524 0.6005859375
vt 0.4150390625 0.5912287919
vt 0.4141864023 0.5859375
vt 0.3603515625 0.5943180831
vt 0.3612042227 0.599609375
vt 0.5546875 0.888671875
vt 0.4453125 0.888671875
vt 0.4453125 0.998046875
vt 0.5546875 0.998046875
vt 0.66796875 0.998046875
vt 0.66796875 0.888671875
vt 0.55859375 0.888671875
vt 0.55859375 0.998046875
vt 0.814453125 0.888671875
vt 0.671875 0.888671875
vt 0.671875 0.998046875
vt 0.814453125 0.998046875
vt 0.9609375 0.998046875
vt 0.9609375 0.888671875
vt 0.818359375 0.888671875
vt 0.818359375 0.998046875
vt 0.587890625 0.884765625
vt 0.587890625 0.775390625
vt 0.4453125 0.775390625
vt 0.4453125 0.884765625
vt 0.734375 0.775390625
vt 0.591796875 0.775390625
vt 0.591796875 0.884765625
vt 0.734375 0.884765625
vt 0.52734375 0.689453125
vt 0.4453125 0.689453125
vt 0.4453125 0.771484375
vt 0.52734375 0.771484375
vt 0.61328125 0.771484375
vt 0.61328125 0.689453125
vt 0.53125 0.689453125
vt 0.53125 0.771484375
vt 0.37109375 0.64453125
vt 0.228515625 0.64453125
vt 0.228515625 0.7265625
vt 0.37109375 0.7265625
vt 0.14453125 0.7138671875
vt 0.14453125 0.6318359375
vt 0.001953125 0.6318359375
vt 0.001953125 0.7138671875
vt 0.517578125 0.685546875
vt 0.517578125 0.603515625
vt 0.375 0.603515625
vt 0.375 0.685546875
vt 0.6640625 0.603515625
vt 0.521484375 0.603515625
vt 0.521484375 0.685546875
vt 0.6640625 0.685546875
vn 1 0 0
vn -1 0 0
vn 0 1 0
vn 0 -1 0
vn 0 0 1
vn 0 0 -1
vn 0.9925461516 -0.1218693434 0
vn -0.9925461516 0.1218693434 0
vn 0.1218693434 0.9925461516 0
vn -0.1218693434 -0.9925461516 0
vn 0 0 1
vn 0 0 -1
vn 1 0 0
vn -1 0 0
vn 0 1 0
vn 0 -1 0
vn 0 0 1
vn 0 0 -1
vn 0.8910065242 0.4539904997 0
vn -0.8910065242 -0.4539904997 0
vn -0.4539904997 0.8910065242 0
vn 0.4539904997 -0.8910065242 0
vn 0 0 1
vn 0 0 -1
vn 0.984807753 0.1736481777 0
vn -0.984807753 -0.1736481777 0
vn -0.1736481777 0.984807753 0
vn 0.1736481777 -0.984807753 0
vn 0 0 1
vn 0 0 -1
vn 0.984807753 0.1736481777 0
vn -0.984807753 -0.1736481777 0
vn -0.1736481777 0.984807753 0
vn 0.1736481777 -0.984807753 0
vn 0 0 1
vn 0 0 -1
vn 1 0 0
vn -1 0 0
vn 0 1 0
vn 0 -1 0
vn 0 0 1
vn 0 0 -1
vn 1 0 0
vn -1 0 0
vn 0 1 0
vn 0 -1 0
vn 0 0 1
vn 0 0 -1
vn 0.1562855741 0.9876883406 -0.0068235755
vn -0.1562855741 -0.9876883406 0.0068235755
vn -0.9867482801 0.156434465 0.0430823603
vn 0.9867482801 -0.156434465 -0.0430823603
vn 0.0436193874 0 0.9990482216
vn -0.0436193874 0 -0.9990482216
vn 1 0 0
vn -1 0 0
vn 0 1 0
vn 0 -1 0
vn 0 0 1
vn 0 0 -1
vn 1 0 0
vn -1 0 0
vn 0 1 0
vn 0 -1 0
vn 0 0 1
vn 0 0 -1
o mesh
usemtl m_84cc7c6e-f078-648c-dd96-1e38822919cd
f 2/1/1 1/2/1 3/3/1 4/4/1
f 7/5/2 5/6/2 6/7/2 8/8/2
f 5/9/3 1/10/3 2/11/3 6/12/3
f 4/13/4 3/14/4 7/15/4 8/16/4
f 3/17/5 1/18/5 5/19/5 7/20/5
f 6/21/6 2/22/6 4/23/6 8/24/6
f 10/25/7 9/26/7 11/27/7 12/28/7
f 15/29/8 13/30/8 14/31/8 16/32/8
f 13/33/9 9/34/9 10/35/9 14/36/9
f 12/37/10 11/38/10 15/39/10 16/40/10
f 11/41/11 9/42/11 13/43/11 15/44/11
f 14/45/12 10/46/12 12/47/12 16/48/12
f 18/49/13 17/50/13 19/51/13 20/52/13
f 23/53/14 21/54/14 22/55/14 24/56/14
f 21/57/15 17/58/15 18/59/15 22/60/15
f 20/61/16 19/62/16 23/63/16 24/64/16
f 19/65/17 17/66/17 21/67/17 23/68/17
f 22/69/18 18/70/18 20/71/18 24/72/18
f 26/73/19 25/74/19 27/75/19 28/76/19
f 31/77/20 29/78/20 30/79/20 32/80/20
f 29/81/21 25/82/21 26/83/21 30/84/21
f 28/85/22 27/86/22 31/87/22 32/88/22
f 27/89/23 25/90/23 29/91/23 31/92/23
f 30/93/24 26/94/24 28/95/24 32/96/24
f 34/97/25 33/98/25 35/99/25 36/100/25
f 39/101/26 37/102/26 38/103/26 40/104/26
f 37/105/27 33/106/27 34/107/27 38/108/27
f 36/109/28 35/110/28 39/111/28 40/112/28
f 35/113/29 33/114/29 37/115/29 39/116/29
f 38/117/30 34/118/30 36/119/30 40/120/30
f 42/121/31 41/122/31 43/123/31 44/124/31
f 47/125/32 45/126/32 46/127/32 48/128/32
f 45/129/33 41/130/33 42/131/33 46/132/33
f 44/133/34 43/134/34 47/135/34 48/136/34
f 43/137/35 41/138/35 45/139/35 47/140/35
f 46/141/36 42/142/36 44/143/36 48/144/36
f 50/145/37 49/146/37 51/147/37 52/148/37
f 55/149/38 53/150/38 54/151/38 56/152/38
f 53/153/39 49/154/39 50/155/39 54/156/39
f 52/157/40 51/158/40 55/159/40 56/160/40
f 51/161/41 49/162/41 53/163/41 55/164/41
f 54/165/42 50/166/42 52/167/42 56/168/42
f 58/169/43 57/170/43 59/171/43 60/172/43
f 63/173/44 61/174/44 62/175/44 64/176/44
f 61/177/45 57/178/45 58/179/45 62/180/45
f 60/181/46 59/182/46 63/183/46 64/184/46
f 59/185/47 57/186/47 61/187/47 63/188/47
f 62/189/48 58/190/48 60/191/48 64/192/48
f 66/193/49 65/194/49 67/195/49 68/196/49
f 71/197/50 69/198/50 70/199/50 72/200/50
f 69/201/51 65/202/51 66/203/51 70/204/51
f 68/205/52 67/206/52 71/207/52 72/208/52
f 67/209/53 65/210/53 69/211/53 71/212/53
f 70/213/54 66/214/54 68/215/54 72/216/54
f 74/217/55 73/218/55 75/219/55 76/220/55
f 79/221/56 77/222/56 78/223/56 80/224/56
f 77/225/57 73/226/57 74/227/57 78/228/57
f 76/229/58 75/230/58 79/231/58 80/232/58
f 75/233/59 73/234/59 77/235/59 79/236/59
f 78/237/60 74/238/60 76/239/60 80/240/60
f 82/241/61 81/242/61 83/243/61 84/244/61
f 87/245/62 85/246/62 86/247/62 88/248/62
f 85/249/63 81/250/63 82/251/63 86/252/63
f 84/253/64 83/254/64 87/255/64 88/256/64
f 83/257/65 81/258/65 85/259/65 87/260/65
f 86/261/66 82/262/66 84/263/66 88/264/66
